<?xml version="1.0" encoding="UTF-8"?>
<!DOCTYPE svg PUBLIC "-//W3C//DTD SVG 1.1//EN" "http://www.w3.org/Graphics/SVG/1.1/DTD/svg11.dtd">
<!-- Creator: CorelDRAW -->
<svg xmlns="http://www.w3.org/2000/svg" xml:space="preserve" width="114.468mm" height="41.1252mm" style="shape-rendering:geometricPrecision; text-rendering:geometricPrecision; image-rendering:optimizeQuality; fill-rule:evenodd; clip-rule:evenodd"
viewBox="0 0 137.255 49.3116"
 xmlns:xlink="http://www.w3.org/1999/xlink">
 <defs>
  <style type="text/css">
   <![CDATA[
    .fil0 {fill:#4C4840}
   ]]>
  </style>
 </defs>
 <g id="Capa_x0020_1">
  <metadata id="CorelCorpID_0Corel-Layer"/>
  <g id="_174729856">
   <path id="_174731080" class="fil0" d="M107.016 13.6758l0 -12.4923 5.25884 0 0 12.2292c0,1.39367 1.0969,1.84104 2.49788,1.84104l0 5.12839 -1.44619 0c-3.88412,0 -6.31054,-2.74717 -6.31054,-6.70635zm-0.657325 1.31501l0.131537 1.18347 0.131417 0.394491 0.131417 0.262954 0.131537 0.526028 0.131417 0.131417 0.131537 0.263074 0.131417 0.131417 0.131537 0.263074 0.131417 0.131417 0.131537 0.131537 0.131417 0.262954 0.131417 0.131537 0.131537 0.131537 0.131417 0.131417 0.131537 0.131537 0.131417 0.131537 0.262954 0 0 0.262954 0.131417 0.131537 0.262954 0.131417 0.131537 0.131537 0.262954 0.131537 0.131417 0.131417 0.394371 0.131537 0.131537 0.131537 0.394371 0.131537 0.525908 0.131417 0.394371 0.131537 0.525908 0.131537 3.41828 0 0 -6.57493 -1.44619 -0.131537 -0.525908 -0.131417 -0.131537 -0.131537 -0.131417 -0.262954 -0.131417 -0.394611 -0.131537 -12.8867 -6.57349 0 0 14.4648z"/>
   <path id="_174730432" class="fil0" d="M44.6998 12.0978l-0.131537 0.262954 -0.131417 0.394491 0 0.262954 -0.262954 0 -0.131537 0.263074 -0.131417 0.131417 -0.131417 0.131537 -0.131537 0.131537 0 0.262954 -0.262954 0 -0.131417 0.131537 -0.131537 0.131537 -0.262834 0.131417 -0.131537 0.131537 -0.394371 0.131537 -0.394491 0.131417 -0.394371 0.131537 -0.262954 0.131537 -0.130218 -8.16945 0.787544 0.148084 0.394491 0.131417 0.131417 0.131537 0.394491 0.131537 0.131417 0.131417 0.131417 0.131537 0.262954 0.131537 0.262954 0 0 0.262954 0.131537 0.131537 0.131417 0.131417 0.131417 0.263074 0.131537 0.131417 0.131417 0.131537 0.131537 0.131537 0.131417 0.394491 0.131537 0.262954 0.131417 0.394491 0 1.57796 -0.131417 0.526028zm-9.99178 -10.7828l6.57349 0c2.62199,0 5.09481,1.20446 6.41042,2.53014 1.19642,1.20554 3.05545,3.60654 3.05545,5.88571l0 1.97246c0,2.11442 -1.6667,4.75752 -2.79357,5.88463 -1.35206,1.35242 -3.39454,2.66264 -6.01497,2.66264l0 -4.73389c1.81886,-0.423748 3.68124,-2.08865 3.68124,-4.20787l0 -0.788982c0,-2.07438 -2.29356,-4.47094 -4.07561,-4.47094l-1.0517 0 0 14.3332 -5.78475 0 0 -19.0671zm-0.657325 19.7247l8.41405 0 0.788863 -0.131537 0.525908 -0.131537 0.788743 -0.131417 0.262954 -0.131537 0.262954 -0.131537 0.394371 -0.131537 0.394491 -0.131417 0.131417 -0.131537 0.262954 -0.131537 0.262954 -0.131417 0.262954 -0.131537 0.131417 -0.131537 0.262954 -0.131417 0.131417 -0.131537 0.131537 -0.131537 0.131417 -0.131417 0.262954 -0.131537 0.131537 -0.131537 0.131417 -0.131417 0.131537 -0.131537 0.131417 -0.131537 0.131417 -0.131417 0.131537 -0.131537 0.131417 -0.131537 0.131537 -0.131417 0.131417 -0.131537 0.131537 -0.131537 0.131417 -0.131417 0.131537 -0.263074 0.131417 -0.131417 0.131417 -0.263074 0.131537 -0.131417 0.131417 -0.131537 0.131537 -0.262954 0.131417 -0.263074 0.131537 -0.131417 0.131417 -0.394491 0.131417 -0.263074 0.131537 -0.262954 0.131417 -0.262954 0.131537 -0.526028 0.131417 -0.394491 0.131537 -0.394491 0.131417 -1.05206 0.131537 -0.9204 0 -1.57796 -0.131537 -0.788982 -0.131417 -0.788982 -0.131537 -0.394491 -0.131417 -0.263074 -0.131537 -0.525908 -0.131417 -0.263074 -0.131537 -0.262954 -0.131417 -0.263074 -0.131417 -0.262954 -0.131537 -0.131537 -0.131417 -0.262954 -0.131537 -0.262954 -0.131417 -0.263074 -0.262954 0 0 -0.394491 -0.131417 -0.131417 -0.131537 -0.131537 -0.131417 -0.131537 -0.131537 -0.131417 -0.131417 -0.131537 -0.131537 -0.131537 -0.131417 -0.131417 -0.131537 -0.131537 -0.131417 -0.131537 -0.131417 -0.131417 -0.131537 -0.131537 -0.131417 -0.131537 -0.131537 -0.131417 -0.131417 -0.131537 -0.262954 -0.131537 -0.131537 -0.131417 -0.131417 -0.131537 -0.262954 -0.131537 -0.262954 -0.131417 -0.131417 -0.131537 -0.131537 -0.131537 -0.394371 -0.131417 -0.262954 -0.131537 -0.262954 -0.131537 -0.262954 -0.131417 -0.394371 -0.131537 -0.262954 -0.131537 -0.394371 -0.131417 -0.788863 -0.131537 -0.657325 -0.131537 -1.31465 -0.131417 -7.36236 0 0 20.5137z"/>
   <path id="_146152496" class="fil0" d="M54.1656 6.57493c0,-3.14034 2.38625,-5.39146 5.39026,-5.39146l5.25884 0 0 5.12839 -4.07561 0c-0.649771,0 -1.18323,0.533582 -1.18323,1.18347l0 0.394491c0,0.379263 0.864164,1.05206 1.18323,1.05206l3.68124 0 0 3.81338 -4.33856 0c-0.478306,0 -0.92028,0.641138 -0.92028,1.18347l0 0.131537c0,0.649891 0.533462,1.18347 1.18323,1.18347l4.46998 0 0 5.12839 -4.99589 0c-2.62283,0 -5.65321,-2.23049 -5.65321,-4.47094l0 -9.33625zm3.68124 -5.91749l-0.394491 0.131537 -0.394371 0.131537 -0.394371 0.131417 -0.131537 0.131537 -0.262954 0.131537 -0.131417 0.131417 -0.262954 0.131537 -0.131417 0.131537 -0.262954 0.131417 -0.131537 0.131537 -0.131417 0.131537 -0.131537 0.131417 -0.131417 0.131537 -0.131417 0.131537 -0.131537 0.131417 -0.131417 0.263074 -0.131537 0.131417 -0.131417 0.131537 -0.131537 0.262954 -0.131417 0.263074 -0.131537 0.131417 -0.131417 0.394491 -0.131417 0.263074 -0.131537 0.394491 -0.131417 0.525908 0 10.6514 0.131417 0.526028 0.131537 0.394491 0.131417 0.262954 0.131417 0.394491 0.131537 0.262954 0.131417 0.131537 0.131537 0.394491 0.131417 0.131537 0.131537 0.131417 0.131417 0.131537 0.131537 0.262954 0.131417 0.131537 0.131417 0.131537 0.131537 0.131417 0.262954 0.131537 0.131417 0.131537 0.131537 0.131417 0.262954 0.131537 0.131417 0.131537 0.131417 0.131417 0.394491 0.131537 0.131417 0.131537 0.262954 0.131537 0.525908 0.131417 0.394371 0.131537 0.525908 0.131537 6.96787 0 0 -6.4434 -5.12731 -0.131537 -0.262954 -0.131537 -0.131417 -0.262954 0 -0.262954 0 -0.263074 0.657325 0 4.46998 -0.131537 0 -5.2598 -4.20703 -0.131537 -0.525908 0 0 -0.262954 -0.131417 -0.526028 0.262834 0 0.262954 -0.131537 4.73294 -0.131417 0 -6.4434 -7.0994 0 -0.525788 0.131417z"/>
   <path id="_174730672" class="fil0" d="M73.2287 5.65441c0,-2.28265 2.53398,-4.86543 4.73294,-4.86543l0.525908 0c2.60628,0 3.83196,1.32149 4.73294,3.02439 0.516316,-0.378304 0.792819,-1.38096 1.86394,-2.08061 0.641618,-0.419072 1.85291,-0.943781 2.86899,-0.943781l0.788743 0c1.39619,0 2.87211,1.16381 3.51409,2.00807 0.990665,1.30278 1.21885,2.09596 1.21885,4.30379l0 13.2813 -5.25884 0 0 -13.2813c0,-0.366193 -0.554086,-0.920519 -0.92028,-0.920519l-0.131417 0c-0.649771,0 -1.18323,0.533582 -1.18323,1.18359l0 13.0182 -5.25884 0 0 -13.0182c0,-0.650011 -0.533343,-1.18359 -1.18323,-1.18359 -0.39653,0 -1.0517,0.53622 -1.0517,0.920519l0 13.2813 -5.25884 0 0 -14.7277zm3.81266 -5.52288l-0.394371 0.131417 -0.262954 0.131537 -0.394491 0.131537 -0.262834 0.131417 -0.131537 0.131537 -0.394371 0.131537 -0.131537 0.131417 -0.131417 0.131537 -0.131537 0.131537 -0.262834 0.131417 -0.131537 0.131537 0 0.262954 -0.262954 0 -0.131417 0.131537 -0.131537 0.131537 -0.131417 0.131417 -0.131417 0.131537 -0.131537 0.262954 -0.131417 0.263074 -0.131537 0.131417 -0.131417 0.131537 -0.131537 0.394491 -0.131417 0.394491 -0.131537 0.262954 -0.131417 0.394491 0 16.4373 6.57349 0 0.131417 -13.6758 0.131537 -0.263074 0.131417 -0.131417 0.131537 0 0.131417 0.131417 0.131537 0.263074 0.131417 13.6758 6.57349 0 0.131537 -13.6758 0.131417 -0.263074 0.394371 0 0.131537 0.131537 0.131417 13.8073 6.57349 0 0 -16.3058 -0.131417 -0.394491 -0.131537 -0.262954 -0.131417 -0.394491 -0.131537 -0.394491 -0.131417 -0.131537 -0.131417 -0.131537 -0.131537 -0.262954 -0.131417 -0.262954 -0.131537 -0.131537 -0.131417 -0.131537 -0.131537 -0.262954 -0.131417 -0.131537 -0.262954 0 0 -0.262954 -0.131417 -0.131537 -0.262954 -0.131417 -0.131537 -0.131537 -0.131417 -0.131537 -0.262954 -0.131417 -0.262954 -0.131537 -0.131417 -0.131537 -0.262954 -0.131417 -0.525908 -0.131537 -0.262954 -0.131537 -0.394371 -0.131417 -0.657325 -0.131537 -1.57773 0 -0.657325 0.131537 -0.262954 0.131417 -0.394371 0.131537 -0.394371 0.131537 -0.262954 0.131417 -0.262954 0.131537 -0.262954 0.131537 -0.131537 0.131417 -0.131417 0.131537 -0.131417 0.131537 -0.262954 0.131417 -0.131537 0.131537 -0.131417 0.131537 -0.131537 0.131417 -0.131417 0.131537 -0.131417 0.131537 -0.131537 0.131417 -0.131417 0 -0.131537 -0.131417 -0.131417 -0.263074 -0.262954 -0.131417 -0.131537 -0.131537 -0.131417 -0.131537 -0.131417 -0.131417 -0.131537 -0.131537 -0.131417 -0.131537 -0.131537 -0.131417 -0.262954 -0.131537 -0.262954 -0.131537 -0.262834 -0.131417 -0.394491 -0.131537 -0.394371 -0.131537 -0.394371 -0.131417 -0.657445 -0.131537 -1.57761 0 -0.657325 0.131537z"/>
   <path id="_174730696" class="fil0" d="M97.5507 1.18347l5.39026 0 0 19.1987 -5.39026 0 0 -19.1987zm-0.657445 19.8562l6.70503 0 0 -20.5137 -6.70503 0 0 20.5137z"/>
   <path id="_174730720" class="fil0" d="M6.96787 37.0824l0 1.18347c0,1.97941 2.36263,4.07645 4.46998,4.07645l0.788863 0c2.23013,0 4.33844,-2.05747 4.33844,-4.20799l1.57904 -0.031895 4.60008 0.163432 0 0.525908c0,2.52283 -1.91922,5.40273 -3.25401,6.73908 -1.45902,1.4607 -4.1448,3.12332 -7.0006,3.12332l-1.18323 0c-5.34973,0 -10.6491,-5.25764 -10.6491,-10.5198l0 -0.788982c0,-5.51892 5.04013,-10.9143 10.3862,-10.9143l1.57761 0c2.50652,0 5.26124,1.6107 6.67122,2.79525 1.689,1.41921 2.86971,3.64695 3.45006,6.11761l-6.44004 0.423508c-0.34521,-1.48168 -2.32114,-3.15593 -4.20715,-3.15593 -2.74153,0 -5.12731,1.82893 -5.12731,4.47094zm3.15533 -11.3088l-1.05182 0.131417 -0.525788 0.131537 -0.262954 0.131537 -0.657325 0.131417 -0.131537 0.131537 -0.394371 0.131537 -0.131537 0.131417 -0.394371 0.131537 -0.262954 0.131537 -0.131417 0.131417 -0.394491 0.131537 -0.131417 0.131537 -0.262954 0.131417 -0.262954 0.131537 -0.131417 0.131537 -0.131537 0.131537 -0.131417 0.131417 -0.262954 0.131537 -0.131417 0.131537 -0.131537 0.131417 -0.262954 0.131537 -0.131417 0.131537 -0.131537 0.131417 -0.131417 0.131537 -0.131537 0.131537 -0.131417 0.131417 -0.131417 0.131537 -0.131537 0.131537 -0.131417 0.262954 -0.262954 0.131537 -0.131537 0.262954 0 0.262954 -0.262954 0 -0.131417 0.263074 -0.131417 0.131417 -0.131537 0.263074 -0.131417 0.131417 -0.131537 0.263074 -0.131417 0.262954 -0.131537 0.131537 -0.131417 0.394491 -0.131417 0.262954 -0.131537 0.131537 -0.131417 0.262954 -0.131537 0.526028 -0.131417 0.262954 -0.131537 0.262954 -0.131417 0.657565 -0.131537 0.526028 -0.131417 0.657445 0 3.41888 0.131417 0.657565 0.131537 0.525908 0.131417 0.657565 0.131537 0.394491 0.131417 0.262954 0.131537 0.394491 0.131417 0.394491 0.131537 0.131537 0.131417 0.262954 0.131417 0.394491 0.131537 0.131537 0.131417 0.131537 0.131537 0.394491 0.131417 0.131417 0.131537 0.131537 0.131417 0.262954 0.131417 0.263074 0.262954 0 0 0.262954 0.131537 0.131537 0.131417 0.131417 0.131537 0.131537 0.131417 0.262954 0.131537 0.131537 0.131417 0.131537 0.131417 0.131417 0.131537 0.131537 0.262954 0.131537 0.131417 0.131417 0.131537 0.131537 0.131417 0.131537 0.131537 0.131417 0.131417 0.131537 0.262954 0.131537 0.131417 0.131417 0.131537 0.131537 0.262954 0.131537 0.131417 0.131417 0.262954 0.131537 0.131417 0.131537 0.394491 0.131417 0.131417 0.131537 0.262954 0.131537 0.394371 0.131417 0.262954 0.131537 0.262954 0.131537 0.525908 0.131417 0.262954 0.131537 0.394371 0.131537 0.394371 0.131417 1.18323 0.131537 3.41828 0 1.0517 -0.131537 0.394491 -0.131417 0.394371 -0.131537 0.262954 -0.131537 0.525908 -0.131417 0.262834 -0.131537 0.131537 -0.131537 0.394371 -0.131417 0.262954 -0.131537 0.131537 -0.131537 0.262834 -0.131417 0.262954 -0.131537 0.131537 -0.131537 0.131417 -0.131417 0.394491 -0.131537 0.131417 -0.131537 0.131417 -0.131417 0.262954 -0.131537 0.131537 -0.131537 0.131417 -0.131417 0.131537 -0.131537 0.131417 -0.131537 0.131417 -0.131417 0.131537 -0.131537 0.131417 -0.131537 0.262954 -0.131417 0.131537 -0.263074 0.131417 -0.131417 0.131537 -0.131537 0.131417 -0.131537 0.131417 -0.131417 0.131537 -0.263074 0.131417 -0.131417 0.131537 -0.131537 0.131417 -0.262954 0.131537 -0.131537 0.131417 -0.262954 0.131537 -0.263074 0.131417 -0.262954 0.131417 -0.131537 0.131537 -0.262954 0.131417 -0.394491 0.131537 -0.262954 0.131417 -0.263074 0.131537 -0.526028 0.131417 -0.394491 0.131417 -0.262954 0.131537 -0.526028 0.131417 -0.788982 0.131537 -0.525908 0.131417 -0.657565 0 -0.9204 -6.04759 -0.131537 -1.57761 0 -0.131537 0.657445 -0.131417 0.394491 -0.131537 0.394491 -0.131417 0.263074 -0.131417 0.525908 -0.131537 0.131537 -0.131417 0.131537 -0.131537 0.262954 -0.131417 0.131537 -0.131537 0.131417 0 0.263074 -0.262954 0 -0.131417 0.131417 -0.131417 0.131537 -0.262954 0.131537 -0.131537 0.131417 -0.262954 0.131537 -0.525788 0.131537 -0.525908 0.131417 -1.31477 0 -0.525788 -0.131417 -0.394491 -0.131537 -0.262954 -0.131537 -0.262834 -0.131417 -0.262954 -0.131537 -0.131537 -0.131537 -0.131417 -0.131417 -0.262954 -0.131537 -0.131537 -0.131537 -0.131417 -0.131417 -0.131417 -0.263074 -0.131537 -0.131417 -0.131417 -0.131537 -0.131537 -0.262954 -0.131417 -0.394491 -0.131537 -0.263074 -0.131417 -0.394491 0 -1.70938 0.131417 -0.394491 0.131537 -0.263074 0.131417 -0.394491 0.131537 -0.262954 0.131417 -0.131537 0.131537 -0.131417 0.131417 -0.263074 0.131417 -0.131537 0.131537 -0.131417 0.131417 -0.131537 0.131537 -0.131537 0.262954 -0.131417 0.131417 -0.131537 0.262954 -0.131537 0.131417 -0.131417 0.262954 -0.131537 0.657445 -0.131537 1.84056 0 0.657325 0.131537 0.262954 0.131537 0.131417 0.131417 0.131537 0.131537 0.262954 0.131537 0.131417 0.131417 0.131417 0.131537 0.131537 0.131537 0.131417 0.131417 0.131537 0.131537 0.131417 0.131537 0.131537 0.262954 0.131417 0.131537 0.131537 0.131537 0.131417 0.394491 0.131417 0.262954 0.131537 0.131537 0.131417 0.262954 0.657325 0 1.57773 -0.131537 2.89226 -0.131417 1.70914 -0.131537 0.92028 -0.131537 0 -0.394491 -0.131417 -0.394491 -0.131537 -0.394491 -0.131417 -0.788982 -0.131537 -0.262954 -0.131417 -0.394491 -0.131417 -0.263074 -0.131537 -0.525908 -0.131417 -0.263074 -0.131537 -0.262954 -0.131417 -0.262954 -0.131537 -0.263074 -0.131417 -0.131417 -0.131417 -0.263074 -0.131537 -0.262954 -0.131417 -0.131537 -0.131537 -0.131417 -0.131417 -0.263074 -0.131537 -0.131417 -0.131417 -0.131537 -0.131537 -0.131537 -0.131417 -0.262954 -0.131417 -0.131537 -0.131537 -0.131417 -0.131417 -0.131537 -0.131537 -0.131537 -0.131417 -0.131417 -0.131537 -0.131537 -0.131417 -0.131537 -0.131537 -0.131417 -0.131417 -0.131537 -0.262954 -0.131537 -0.131417 -0.131417 -0.131537 -0.131537 -0.262954 -0.131537 -0.131417 -0.131417 -0.131417 -0.131537 -0.131537 -0.131537 -0.262954 -0.131537 -0.262954 -0.131417 -0.131417 -0.131537 -0.394371 -0.131537 -0.131537 -0.131417 -0.262954 -0.131537 -0.394371 -0.131537 -0.131537 -0.131417 -0.394371 -0.131537 -0.262954 -0.131537 -0.525788 -0.131417 -0.394491 -0.131537 -0.394371 -0.131537 -1.05182 -0.131417 -1.18323 -0.131537 -1.0517 0 -1.18323 0.131537z"/>
   <path id="_174730384" class="fil0" d="M63.6314 37.7399c0,-6.56378 4.13029,-11.3088 10.5176,-11.3088l0.92028 0c2.82319,0 5.85706,1.19678 7.26583,2.59513 0.838024,0.831789 1.65638,1.5848 2.20196,2.66288 0.24245,0.479145 1.31273,3.00629 1.31273,3.55234l0 2.49848 -0.287415 2.75844c-0.455404,0.719797 -0.768359,2.18757 -1.47413,3.23795 -0.673033,1.00194 -1.31957,1.75543 -2.21599,2.51755 -1.47377,1.25314 -4.23281,2.4004 -6.93441,2.4004l-0.262954 0c-6.12792,0 -11.0435,-4.82466 -11.0435,-10.9143zm9.07138 -11.9663l-1.0517 0.131417 -0.394371 0.131537 -0.394491 0.131537 -0.525788 0.131417 -0.394491 0.131537 -0.262954 0.131537 -0.262954 0.131417 -0.394371 0.131537 -0.131417 0.131537 -0.262954 0.131417 -0.394491 0.131537 -0.131417 0.131537 -0.131417 0.131417 -0.262954 0.131537 -0.262954 0.131537 -0.131537 0.131537 -0.131417 0.131417 -0.262954 0.131537 -0.131417 0.131537 -0.131537 0.131417 -0.262954 0.131537 -0.131417 0.262954 -0.131537 0.131537 -0.262834 0.131537 -0.131537 0.262954 -0.131417 0.131537 -0.131537 0.131417 0 0.263074 -0.262954 0 -0.131417 0.131417 -0.131537 0.263074 -0.131417 0.131417 -0.131417 0.263074 -0.131537 0.131417 -0.131417 0.263074 -0.131537 0.262954 -0.131417 0.131537 -0.131537 0.394491 -0.131417 0.262954 -0.131417 0.131537 -0.131537 0.394491 -0.131417 0.394491 -0.131537 0.394491 -0.131417 0.262954 -0.131537 0.920519 -0.131417 0.657445 -0.131537 1.31501 0 1.18347 0.131537 1.31501 0.131417 0.788982 0.131537 0.9204 0.131417 0.394491 0.131537 0.394491 0.131417 0.394491 0.131537 0.394611 0.131417 0.131417 0.131417 0.263074 0.131537 0.394491 0.131417 0.262954 0.131537 0.131537 0.131417 0.394491 0.131537 0.131417 0.131417 0.131537 0.131417 0.262954 0.131537 0.263074 0.131417 0.131417 0.131537 0.131537 0.131417 0.262954 0.131537 0.131537 0.131417 0.131537 0.131537 0.131417 0.131417 0.131537 0.131417 0.131537 0.131537 0.131417 0.131417 0.131537 0.131537 0.131537 0.131417 0.131417 0.131537 0.131537 0.131417 0.131537 0.262954 0.131417 0.131417 0.131537 0.131537 0.131537 0.262954 0 0 0.262954 0.394371 0.131537 0.131417 0.131417 0.131537 0.131537 0.262954 0.131537 0.262954 0.131417 0.262954 0.131537 0.262834 0.131537 0.394491 0.131417 0.262954 0.131537 0.262954 0.131537 0.525788 0.131417 0.394491 0.131537 0.394371 0.131537 0.394371 0.131417 1.18323 0.131537 3.15533 0 1.18323 -0.131537 0.394371 -0.131417 0.394371 -0.131537 0.394491 -0.131537 0.525788 -0.131417 0.262954 -0.131537 0.262954 -0.131537 0.394491 -0.131417 0.262834 -0.131537 0.262954 -0.131537 0.262954 -0.131417 0.131537 -0.131537 0.131417 -0.131537 0.262954 -0.131417 0.262954 -0.131537 0.131417 -0.131537 0.131537 -0.131417 0.262954 -0.131537 0.131417 -0.131537 0.131417 -0.131417 0.131537 -0.131537 0.262954 -0.131537 0.131417 -0.262954 0.262954 -0.131537 0.131537 -0.262954 0.262834 -0.131537 0.131537 -0.262954 0 -0.262954 0.262954 0 0.131417 -0.131537 0.131537 -0.262954 0.131417 -0.131537 0.131417 -0.262954 0.131537 -0.263074 0.131417 -0.131417 0.131537 -0.131537 0.131417 -0.262954 0.131537 -0.394491 0.131417 -0.263074 0.131537 -0.131417 0.131417 -0.394491 0.131417 -0.263074 0.131537 -0.394491 0.131417 -0.262954 0.131537 -0.657565 0.131417 -0.525908 0.131537 -0.526028 0 -4.86543 -0.131537 -0.657445 -0.131417 -0.394491 -0.131537 -0.657565 -0.131417 -0.262954 -0.131537 -0.262954 -0.131417 -0.263074 -0.131417 -0.394491 -0.131537 -0.262954 -0.131417 -0.131537 -0.131537 -0.394491 -0.131417 -0.131417 -0.131537 -0.263074 -0.131417 -0.131417 -0.131537 -0.263074 -0.131417 -0.131417 -0.131417 -0.131537 -0.131537 -0.262954 -0.131417 -0.131537 -0.131537 -0.131537 -0.131417 -0.131417 -0.131537 -0.263074 -0.131417 -0.131417 -0.262954 0 0 -0.263074 -0.262954 -0.131417 -0.131417 -0.131537 -0.131537 -0.131537 -0.131417 -0.131417 -0.131537 -0.131537 -0.262834 -0.131537 -0.131537 -0.131417 -0.131417 -0.131537 -0.262954 -0.131537 -0.131537 -0.131537 -0.262954 -0.131417 -0.262834 -0.131537 -0.262954 -0.131537 -0.131537 -0.131417 -0.262954 -0.131537 -0.525788 -0.131537 -0.131537 -0.131417 -0.394371 -0.131537 -0.262954 -0.131537 -0.657325 -0.131417 -0.394491 -0.131537 -0.394371 -0.131537 -1.0517 -0.131417 -1.05182 -0.131537 -1.84056 0 -1.05182 0.131537z"/>
   <path id="_174729664" class="fil0" d="M32.7361 36.2934l0.131417 -0.394491 0.131417 -0.131537 0.131537 -0.526028 0.131417 -0.131417 0.131537 -0.263074 0.131417 -0.131537 0 -0.262954 0.262954 0 0.131537 -0.131537 0 -0.262954 0.262834 0 0.131537 -0.131537 0.131417 -0.131417 0.131537 -0.131537 0.262954 -0.131537 0.262954 -0.131417 0.262834 -0.131537 0.394491 -0.131537 0.394371 -0.131417 0.788863 -0.131537 0.525788 0 0.788863 0.131537 0.394371 0.131417 0.525908 0.131537 0.131537 0.131537 0.262954 0.131417 0.262834 0.131537 0.262954 0 0 0.262954 0.262954 0.131537 0.131537 0.131537 0.131417 0.131417 0.131417 0.131537 0.131537 0.131537 0.131417 0.262954 0.131537 0.131537 0.131417 0.131537 0.131537 0.394491 0.131417 0.262954 0.131537 0.394491 0 2.6299 -0.131537 0.263074 -0.131417 0.262954 -0.131537 0.394491 -0.131417 0.262954 -0.131537 0.131537 -0.131417 0.131537 -0.131537 0.262954 -0.131417 0.131537 -0.131417 0.131417 0 0.263074 -0.262954 0 -0.131537 0.131417 -0.131417 0.131537 -0.262954 0.131537 -0.262954 0.131417 -0.262954 0.131537 -0.131417 0.131537 -0.657325 0.131417 -0.394491 0.131537 -1.44619 0 -0.525788 -0.131537 -0.525908 -0.131417 -0.262954 -0.131537 -0.131417 -0.131537 -0.262954 -0.131417 -0.262954 -0.131537 -0.131537 -0.131537 -0.131417 -0.131417 -0.262954 -0.131537 -0.131417 -0.262954 -0.262954 0 0 -0.263074 -0.131537 -0.131417 -0.131417 -0.263074 -0.131537 -0.131417 -0.131417 -0.131537 -0.131537 -0.526028 -0.131417 -0.394491 -0.131417 -0.394491 0 -2.10387zm-0.788863 0.525908l0 1.31501c0,2.33457 2.47342,4.73389 4.86435,4.73389l1.05182 0c2.61611,0 4.73294,-2.69909 4.73294,-5.52288l0 -0.657445c0,-2.29225 -2.70988,-4.60248 -5.12743,-4.60248 -2.85808,0 -5.52168,2.00303 -5.52168,4.73389z"/>
   <path id="_174729736" class="fil0" d="M79.1449 38.9233l-0.131417 0.262954 -0.131537 0.263074 -0.131417 0.394491 -0.131537 0.131417 -0.131417 0.131537 -0.131537 0.262954 0 0.263074 -0.262954 0 -0.131417 0.131417 0 0.263074 -0.262954 0 -0.131417 0.131417 -0.131537 0.131537 -0.262954 0.131537 -0.131417 0.131417 -0.262954 0.131537 -0.262954 0.131537 -0.525908 0.131417 -0.525788 0.131537 -1.44619 0 -0.525908 -0.131537 -0.525908 -0.131417 -0.262954 -0.131537 -0.131417 -0.131537 -0.262954 -0.131417 -0.262954 -0.131537 -0.131417 -0.131537 -0.131537 -0.131417 -0.131417 -0.131537 -0.131537 -0.131537 -0.131417 -0.131417 -0.131417 -0.131537 -0.131537 -0.131537 -0.131417 -0.262954 -0.131537 -0.262954 -0.131417 -0.131537 -0.131537 -0.262954 -0.131417 -0.394491 -0.131417 -0.394491 -0.131537 -0.657565 0 -1.31489 0.131537 -0.526028 0.131417 -0.394491 0.131417 -0.394491 0.131537 -0.131537 0.131417 -0.262954 0.131537 -0.263074 0.131417 -0.131417 0.131537 -0.131537 0.131417 -0.131537 0.131417 -0.131417 0.131537 -0.131537 0.131417 -0.131537 0.131537 -0.131417 0.262954 -0.131537 0.262954 -0.131537 0.262834 -0.131417 0.131537 -0.131537 0.525908 -0.131537 0.394371 -0.131417 0.657325 -0.131537 0.657325 0 0.657445 0.131537 0.394371 0.131417 0.525908 0.131537 0.262954 0.131537 0.131417 0.131417 0.394371 0.131537 0.131537 0.131537 0.131417 0.131417 0.131537 0.131537 0.131417 0.131537 0.131417 0.131417 0.131537 0.131537 0.131417 0.131537 0.131537 0.131417 0.131417 0.131537 0.131537 0.263074 0.131417 0.262954 0.131537 0.262954 0.131417 0.263074 0.131417 0.788982 0 1.18347 -0.131417 1.05194zm-9.72882 -1.31501c0,2.68602 2.22318,5.25992 4.86447,5.25992l1.31465 0c1.92329,0 4.46998,-2.58626 4.46998,-4.60236l0 -1.97246c0,-1.9131 -2.8425,-4.20799 -4.99589,-4.20799l-0.131417 0 -2.0986 0.29353c-1.00098,0.636582 -1.31993,0.649651 -2.21011,1.57725 -0.389695,0.406242 -1.21309,1.92605 -1.21309,2.60016l0 1.05194z"/>
   <path id="_174729784" class="fil0" d="M52.062 26.9571l5.78475 0 0 13.2813c0,1.14378 0.90673,2.10399 1.97198,2.10399l0.788863 0 0 5.78583 -1.84056 0c-4.05762,0 -6.70503,-3.07919 -6.70503,-7.23238l0 -13.9387zm-0.788743 14.7277l0.131417 1.05206 0.131537 0.525908 0.131417 0.657565 0.131417 0.394491 0.131537 0.262954 0.131417 0.394491 0.131537 0.131537 0.131417 0.262954 0.131537 0.131537 0.131417 0.262954 0.131537 0.131537 0.131417 0.131417 0.131417 0.263074 0.131537 0.131417 0.262954 0 0 0.263074 0.131417 0.131417 0.131537 0.131537 0.262834 0.131537 0.131537 0.131417 0.131417 0.131537 0.131537 0.131537 0.262954 0.131417 0.131417 0.131537 0.262954 0.131537 0.262954 0.131417 0.131417 0.131537 0.262954 0.131537 0.525908 0.131417 0.262954 0.131537 0.394371 0.131537 1.18323 0.131417 3.41828 0 0 -7.10084 -1.44619 -0.131537 -0.525908 -0.131417 -0.262954 -0.131537 -0.262954 0 0 -0.262954 -0.131417 -0.263074 -0.131537 -0.657445 -0.131417 -13.8073 -7.23082 0 0 15.3853z"/>
   <path id="_174735424" class="fil0" d="M89.531 26.9571l9.20292 0c3.5792,0 6.70491,3.29034 6.70491,6.9693l0 0.394491c0,1.61633 -1.72569,4.55392 -2.89238,4.86543l3.61781 8.91358 -5.85274 0.0282978c-0.429504,0 -3.28675,-6.34975 -3.28675,-7.10084l0 -4.86543c1.19199,0 2.49788,-0.593416 2.49788,-1.7095l0 -0.657445c0,-0.915843 -0.892701,-1.57796 -1.84056,-1.57796l-2.23493 0 0 15.9112 -5.91617 0 0 -21.1711zm-0.657325 21.8286l7.23082 0 0.000239812 -15.9227 1.84032 0.143048 0.262954 0.131417 0.262954 0.131537 0.131417 0.262954 0.278062 0.000839343 -0.146525 1.05122 0 0.262954 -0.262954 0 0 0.263074 -0.262954 0 -0.525908 0.131417 -1.44619 0.131537 0 6.31186 0.131537 0.262954 0.131417 0.263074 0.131537 0.394491 0.131417 0.262954 0.131417 0.131537 0.131537 0.394491 0.131417 0.394491 0.131537 0.131537 0.131417 0.262954 0.131537 0.526028 0.131417 0.131417 0.131537 0.263074 0.131417 0.394491 0.131417 0.262954 0.131537 0.262954 0.131417 0.263074 0.131537 0.394491 0.131417 0.262954 0.131537 0.262954 0.131417 0.394491 0.131417 0.263074 0.131537 0.262954 0.131417 0.262954 0.131537 0.263074 0.131417 0.131417 7.62531 0 0 -0.394491 -0.131537 -0.394491 -0.131417 -0.262954 -0.131537 -0.262954 -0.131417 -0.394491 -0.131417 -0.263074 -0.131537 -0.394491 -0.131417 -0.131417 -0.131537 -0.526028 -0.131417 -0.262954 -0.131537 -0.263074 -0.131417 -0.394491 -0.131537 -0.262954 -0.131417 -0.262954 -0.131417 -0.263074 -0.131537 -0.394491 -0.131417 -0.394491 -0.131537 -0.131417 -0.131417 -0.526028 -0.131537 -0.262954 -0.131417 -0.263074 -0.131417 -0.394491 -0.131537 -0.262954 -0.131417 -0.263074 -0.131537 -0.262954 -0.131417 -0.526028 -0.131537 -0.262954 -0.131417 -0.131537 0 -0.525908 0.262954 -0.131537 0.131417 -0.262954 0.262954 -0.131537 0.131537 -0.262954 0.131417 -0.131537 0.131417 -0.131537 0.131537 -0.131417 0.131417 -0.263074 0.131537 -0.131417 0.131417 -0.263074 0.131537 -0.262954 0.131417 -0.262954 0.131417 -0.263074 0.131537 -0.262954 0.131417 -0.394491 0.131537 -0.394491 0.131417 -0.526028 0 -3.02439 -0.131417 -0.394491 -0.131537 -0.394491 -0.131417 -0.394491 -0.131537 -0.263074 -0.131417 -0.262954 -0.131417 -0.131537 -0.131537 -0.394491 -0.131417 -0.131417 -0.131537 -0.263074 -0.131417 -0.131417 -0.131537 -0.263074 -0.131417 -0.131417 -0.131417 -0.131537 -0.131537 -0.131537 -0.131417 -0.131417 -0.131537 -0.131537 -0.131417 -0.131537 -0.131537 -0.131417 -0.131417 -0.131537 -0.131537 -0.131537 -0.131417 -0.131417 -0.262954 -0.131537 -0.131417 -0.131537 -0.262954 -0.131537 -0.131537 -0.131417 -0.131417 -0.131537 -0.394371 -0.131537 -0.131537 -0.131417 -0.262954 -0.131537 -0.394371 -0.131537 -0.394371 -0.131417 -0.262954 -0.131537 -0.394491 -0.131537 -11.3063 0 0 22.4861z"/>
   <path id="_174735352" class="fil0" d="M110.172 32.7429c0,-2.97199 2.62463,-5.78583 5.52168,-5.78583l6.31066 0 0 5.52288 -3.94419 0c-0.898697,0 -1.84056,0.579027 -1.84056,1.44643 0,0.768359 0.678069,1.44655 1.44619,1.44655l4.07561 0 0 4.3394 -4.46998 0c-0.985629,0 -1.44619,0.460679 -1.44619,1.44643 0,0.661162 0.653728,1.31501 1.31465,1.31501l4.99589 0 0 5.65441 -5.91617 0c-1.56957,0 -3.18555,-0.839103 -4.05415,-1.59931 -0.680228,-0.595334 -1.99344,-2.40064 -1.99344,-3.52908l0 -10.2569zm3.81266 -6.31186l-0.262954 0.131537 -0.262954 0.131417 -0.394371 0.131537 -0.262954 0.131537 -0.131537 0.131417 -0.262954 0.131537 -0.131417 0.131537 -0.131537 0.131417 -0.262834 0.131537 -0.131537 0.131537 -0.131417 0.131537 -0.131537 0.131417 -0.131417 0.131537 -0.131537 0.131537 -0.131417 0.131417 -0.131417 0.131537 -0.131537 0.131537 -0.131417 0.131417 -0.131537 0.263074 -0.131417 0.131417 -0.131537 0.263074 -0.131417 0.131417 -0.131537 0.263074 -0.131417 0.394491 -0.131417 0.262954 -0.131537 0.394491 -0.131417 0.394491 0 12.2293 0.131417 0.525908 0.131537 0.263074 0.131417 0.394491 0.131417 0.394491 0.131537 0.131417 0.131417 0.263074 0.131537 0.262954 0.131417 0.262954 0.262954 0 0 0.263074 0.131537 0.131417 0.131417 0.131537 0.131417 0.131537 0.131537 0.262954 0.262954 0.131537 0.131417 0.131417 0.131537 0.131537 0.131417 0.131537 0.262954 0 0 0.262954 0.262954 0.131537 0.262954 0.131417 0.262954 0.131537 0.262834 0.131537 0.394491 0.131417 0.262954 0.131537 0.394371 0.131537 1.05182 0.131417 7.36224 0 0 -6.9693 -5.52168 -0.131537 -0.394491 -0.131537 -0.131417 -0.131417 0 -0.788982 0.394371 -0.131537 5.25884 -0.131537 0 -5.65441 -4.60152 -0.131417 -0.394371 -0.131537 -0.262954 -0.131537 0 -0.657445 0.131537 -0.131537 0.262954 -0.131417 5.25872 -0.131537 0 -6.96942 -8.41405 0 -0.394371 0.131537z"/>
   <path id="_145099120" class="fil0" d="M26.1626 36.8193c0,-5.94687 4.6803,-10.3883 10.5176,-10.3883l1.57761 0c2.6106,0 5.71856,1.69931 7.06679,3.05701 1.54403,1.5547 3.05641,4.03832 3.05641,7.06835l0 0.920519c0,6.39423 -4.75536,11.1773 -11.1749,11.1773 -6.25694,0 -11.0435,-4.74888 -11.0435,-11.0459l0 -0.788982zm9.07138 -11.0458l-1.05182 0.131417 -0.394371 0.131537 -0.394371 0.131537 -0.657325 0.131417 -0.262954 0.131537 -0.262954 0.131537 -0.131537 0.131417 -0.525788 0.131537 -0.262954 0.131537 -0.131537 0.131417 -0.394371 0.131537 -0.131417 0.131537 -0.262954 0.131417 -0.131537 0.131537 -0.262954 0.131537 -0.131417 0.131537 -0.131537 0.131417 -0.262834 0.131537 -0.131537 0.131537 -0.131417 0.131417 -0.262954 0.131537 0 0.262954 -0.262954 0 -0.131417 0.131537 -0.131537 0.131537 -0.131417 0.131417 -0.131537 0.131537 -0.131417 0.131537 -0.131537 0.262954 -0.131417 0.131537 -0.131537 0.131417 -0.131417 0.263074 -0.131417 0.131417 -0.131537 0.131537 -0.131417 0.262954 -0.131537 0.263074 -0.131417 0.131417 -0.131537 0.131537 -0.131417 0.394491 -0.131537 0.262954 -0.131417 0.131537 -0.131417 0.526028 -0.131537 0.262954 -0.131417 0.262954 -0.131537 0.394491 -0.131417 0.788982 -0.131537 0.526028 -0.131417 0.788982 0 3.02451 0.131417 0.9204 0.131537 0.526028 0.131417 0.920519 0.131537 0.262954 0.131417 0.394491 0.131537 0.262954 0.131417 0.526028 0.131417 0.131537 0.131537 0.262954 0.131417 0.394491 0.131537 0.263074 0.131417 0.131417 0.131537 0.263074 0.131417 0.262954 0.131537 0.131537 0.131417 0.131417 0.131417 0.263074 0.131537 0.131417 0.131417 0.263074 0.131537 0.131417 0.131417 0.131537 0.131537 0.131537 0.131417 0.131417 0.131537 0.263074 0.131417 0.131417 0.262954 0 0 0.263074 0.131417 0.131417 0.262954 0.131537 0.131537 0.131537 0.131417 0.131417 0.131417 0.131537 0.262954 0.131537 0.131537 0.131417 0.131417 0.131537 0.394491 0.131537 0.131417 0.131417 0.131417 0.131537 0.262954 0.131537 0.262954 0.131417 0.131537 0.131537 0.262954 0.131537 0.394371 0.131417 0.262954 0.131537 0.262954 0.131537 0.657325 0.131417 0.262954 0.131537 0.394371 0.131537 0.525908 0.131417 1.0517 0.131537 3.15533 0 1.18323 -0.131537 0.525908 -0.131417 0.394371 -0.131537 0.262954 -0.131537 0.657325 -0.131417 0.131417 -0.131537 0.394491 -0.131537 0.394371 -0.131417 0.131537 -0.131537 0.262834 -0.131537 0.262954 -0.131417 0.262954 -0.131537 0.131537 -0.131537 0.262834 -0.131417 0.131537 -0.131537 0.262954 -0.131537 0.131417 -0.131417 0.262954 -0.131537 0.131537 -0.131537 0.131417 -0.131417 0 -0.263074 0.262954 0 0.131417 -0.131417 0.131537 -0.131537 0.262954 -0.131537 0.131417 -0.262954 0.131537 -0.131537 0.131417 -0.131417 0.131417 -0.131537 0.131537 -0.262954 0.131417 -0.131537 0.131537 -0.131537 0.131417 -0.262954 0.131537 -0.131537 0.131417 -0.131417 0.131417 -0.263074 0.131537 -0.262954 0.131417 -0.131537 0.131537 -0.262954 0.131417 -0.394491 0.131537 -0.131537 0.131417 -0.262954 0.131537 -0.262954 0.131417 -0.394611 0.131417 -0.394491 0.131537 -0.262954 0.131417 -0.788982 0.131537 -0.526028 0.131417 -0.657445 0 -4.20787 -0.131417 -0.657565 -0.131537 -0.526028 -0.131417 -0.657445 -0.131537 -0.262954 -0.131417 -0.263074 -0.131417 -0.394491 -0.131537 -0.262954 -0.131417 -0.262954 -0.131537 -0.131537 -0.131417 -0.394491 -0.131537 -0.262954 -0.131417 -0.131537 -0.131537 -0.262954 -0.131417 -0.263074 -0.262954 0 0 -0.262954 -0.131417 -0.262954 -0.262954 0 0 -0.263074 -0.131537 -0.131417 -0.131417 -0.131537 -0.131417 -0.131537 -0.131537 -0.131417 -0.131417 -0.131537 -0.131537 -0.131537 -0.131417 -0.131417 -0.131537 -0.131537 -0.131417 -0.131537 -0.262954 0 0 -0.262954 -0.262954 -0.131537 -0.262954 0 0 -0.262954 -0.262954 -0.131537 -0.262954 -0.131537 -0.131417 -0.131417 -0.262954 -0.131537 -0.394371 -0.131537 -0.131537 -0.131417 -0.262834 -0.131537 -0.394491 -0.131537 -0.262954 -0.131417 -0.262954 -0.131537 -0.262834 -0.131537 -0.657445 -0.131417 -0.394371 -0.131537 -0.394371 -0.131537 -1.05182 -0.131417 -1.18323 -0.131537 -1.70914 0 -1.0517 0.131537z"/>
   <path id="_174731440" class="fil0" d="M127 33.1374c0,-3.21277 3.34706,-6.70635 6.57349,-6.70635l1.18323 0c0.782148,0 0.989705,0.247007 1.70914,0.262954l0 5.65441c-0.294849,-0.0687062 -0.302283,-0.131417 -0.657325,-0.131417l-0.394491 0c-1.05038,0 -1.84056,1.124 -1.84056,2.23541 0,1.36141 2.36647,3.86913 2.36647,5.78595l0 2.23541c0,1.41501 -1.64164,3.73771 -2.55004,4.4189 -1.31393,0.985149 -2.85173,1.76154 -5.07515,1.76154l-0.262954 0c-0.662481,0 -2.36647,-0.385978 -2.36647,-0.920519l0 -5.25992c0.774354,0.0645095 0.274105,0.263074 0.788743,0.263074l1.05182 0c0.968362,0 1.84056,-1.07592 1.84056,-2.10399 0,-1.12304 -2.36647,-3.5774 -2.36647,-7.49545zm5.78475 -7.3638l-0.92028 0.131417 -0.262954 0.131537 -0.262954 0.131537 -0.525908 0.131417 -0.262954 0.131537 -0.131417 0.131537 -0.262954 0.131417 -0.262954 0.131537 -0.131537 0.131537 -0.131417 0.131417 -0.262954 0.131537 -0.131417 0.131537 -0.131537 0.131417 -0.262954 0.131537 -0.131417 0.131537 -0.131417 0.262954 -0.262954 0.131537 -0.131537 0.262954 -0.131417 0.131537 -0.131537 0.131537 -0.131417 0.131417 -0.131537 0.263074 -0.131417 0.131417 -0.131417 0.131537 -0.131537 0.394491 -0.131417 0.131537 -0.131537 0.262954 -0.131417 0.394491 -0.131537 0.262954 -0.131417 0.263074 -0.131537 0.394491 -0.131417 0.9204 0 2.76156 0.131417 0.9204 0.131537 0.394491 0.131417 0.263074 0.131537 0.394491 0.131417 0.394491 0.131537 0.262954 0.131417 0.262954 0.131537 0.394491 0.131417 0.263074 0.131417 0.131417 0.131537 0.263074 0.131417 0.262954 0.131537 0.262954 0.131417 0.131537 0.131537 0.262954 0.131417 0.263074 0.131537 0.262954 0 0.394491 -0.131537 0.262954 -0.131417 0.263074 -0.131537 0.131417 -0.131417 0.131537 -0.131537 0.131537 -1.70902 0 -0.131537 -0.131537 -0.262954 -0.131537 -0.262954 -0.131417 -0.262834 -0.131537 -0.262954 0 0 7.23238 0.131417 0.131537 0.394371 0.131417 0.262954 0.131537 0.262954 0.131537 0.394371 0.131417 0.788863 0.131537 2.49788 0 0.9204 -0.131537 0.394371 -0.131417 0.262954 -0.131537 0.262954 -0.131537 0.525788 -0.131417 0.262954 -0.131537 0.131537 -0.131537 0.262954 -0.131417 0.262834 -0.131537 0.131537 -0.131537 0.262954 -0.131417 0.262954 -0.131537 0.131417 -0.262954 0.262954 -0.131537 0.131417 -0.131537 0.131537 -0.131417 0.131417 -0.131537 0.131537 -0.131537 0.131417 -0.131417 0.131537 -0.131537 0.131417 -0.131537 0.131537 -0.262954 0.131417 -0.131537 0.131417 -0.131417 0.131537 -0.263074 0.131417 -0.262954 0.131537 -0.131537 0.131417 -0.262954 0.131537 -0.394491 0.131417 -0.262954 0.131417 -0.263074 0.131537 -0.262954 0.131417 -0.788982 0.131537 -0.657445 0 -2.10399 -0.131537 -0.657565 -0.131417 -0.788982 -0.131537 -0.262954 -0.131417 -0.262954 -0.131417 -0.263074 -0.131537 -0.394491 -0.131417 -0.262954 -0.131537 -0.262954 -0.131417 -0.263074 -0.131537 -0.262954 -0.131417 -0.131537 -0.131417 -0.262954 -0.131537 -0.262954 -0.131417 -0.131537 -0.131537 -0.262954 -0.131417 -0.263074 -0.131537 -0.262954 -0.131417 -0.526028 0 -0.262954 0.131417 -0.394491 0.131537 -0.263074 0.131417 -0.131417 0.131537 -0.131537 0.262954 -0.131537 0.394371 -0.131417 0.394371 0 0.262954 0.131417 0.525908 0.131537 0.525908 0 0 -6.96942 -0.131537 -0.131417 -0.262954 -0.131537 -0.394371 -0.131537 -0.92028 -0.131417 -0.92028 -0.131537 -0.92028 0 -0.92028 0.131537z"/>
  </g>
 </g>
</svg>
