<?xml version="1.0" encoding="UTF-8"?>
<!DOCTYPE svg PUBLIC "-//W3C//DTD SVG 1.1//EN" "http://www.w3.org/Graphics/SVG/1.1/DTD/svg11.dtd">
<!-- Creator: CorelDRAW -->
<svg xmlns="http://www.w3.org/2000/svg" xml:space="preserve" width="113.262mm" height="39.9189mm" style="shape-rendering:geometricPrecision; text-rendering:geometricPrecision; image-rendering:optimizeQuality; fill-rule:evenodd; clip-rule:evenodd"
viewBox="0 0 77.9957 27.4893"
 xmlns:xlink="http://www.w3.org/1999/xlink">
 <defs>
  <style type="text/css">
   <![CDATA[
    .fil0 {fill:white}
   ]]>
  </style>
 </defs>
 <g id="Capa_x0020_1">
  <metadata id="CorelCorpID_0Corel-Layer"/>
  <g id="_174717928">
   <path id="_174722776" class="fil0" d="M19.5556 11.2525l3.32222 0 0 -8.23167 0.603997 0c1.02344,0 2.34065,1.37636 2.34065,2.56769l0 0.453118c0,1.21708 -1.06958,2.17325 -2.11416,2.41661l0 2.71871c1.50493,0 2.67794,-0.752465 3.45444,-1.52917 0.647174,-0.647312 1.60437,-2.16526 1.60437,-3.37959l0 -1.1328c0,-1.30895 -1.06765,-2.68786 -1.75477,-3.38021 -0.755564,-0.761349 -2.17572,-1.45308 -3.68155,-1.45308l-3.7752 0 0 10.9504z"/>
   <path id="_174722752" class="fil0" d="M30.7302 3.32291l0 5.36187c0,1.2867 1.74037,2.56769 3.24668,2.56769l2.86917 0 0 -2.94527 -2.56714 0c-0.373168,0 -0.679539,-0.30644 -0.679539,-0.679677l0 -0.0755426c0,-0.311467 0.253829,-0.679677 0.528523,-0.679677l2.49167 0 0 -2.19005 -2.11416 0c-0.183244,0 -0.679539,-0.38639 -0.679539,-0.604203l0 -0.226559c0,-0.373237 0.306371,-0.679677 0.679539,-0.679677l2.34065 0 0 -2.94527 -3.02019 0c-1.72522,0 -3.09566,1.29283 -3.09566,3.09635z"/>
   <path id="_174722728" class="fil0" d="M41.6783 2.79425l0 8.45823 3.02019 0 0 -7.62753c0,-0.220706 0.376267,-0.528661 0.603997,-0.528661 0.373237,0 0.679539,0.30644 0.679539,0.679746l0 7.47645 3.02019 0 0 -7.47645c0,-0.373306 0.306371,-0.679746 0.679539,-0.679746l0.0754738 0c0.210307,0 0.528523,0.318353 0.528523,0.528661l0 7.62753 3.02019 0 0 -7.62753c0,-1.26797 -0.131046,-1.7235 -0.699992,-2.4717 -0.368692,-0.484864 -1.21633,-1.15325 -2.01817,-1.15325l-0.45298 0c-0.583544,0 -1.2792,0.301344 -1.64768,0.54202 -0.615153,0.401815 -0.77395,0.977647 -1.07047,1.19491 -0.517436,-0.977991 -1.22135,-1.73693 -2.71816,-1.73693l-0.302033 0c-1.26288,0 -2.71816,1.48331 -2.71816,2.79425z"/>
   <polygon id="_174722704" class="fil0" points="55.6465,11.2525 58.7422,11.2525 58.7422,0.226559 55.6465,0.226559 "/>
   <path id="_174722680" class="fil0" d="M61.0828 7.40097c0,2.27379 1.39351,3.8515 3.62419,3.8515l0.830556 0 0 -2.94527c-0.804594,0 -1.43455,-0.256928 -1.43455,-1.05732l0 -7.02333 -3.02019 0 0 7.17442z"/>
   <path id="_174722656" class="fil0" d="M51.0408 27.1872l3.3977 0 0 -9.1379 1.28354 0c0.544361,0 1.05705,0.380261 1.05705,0.906236l0 0.377575c0,0.640976 -0.749986,0.981779 -1.43455,0.981779l0 2.79425c0,0.431357 1.64093,4.07806 1.8876,4.07806l3.36127 -0.0162517 -2.07773 -5.11913c0.670036,-0.178906 1.66111,-1.86598 1.66111,-2.79425l0 -0.226559c0,-2.11285 -1.79512,-4.00252 -3.85068,-4.00252l-5.2853 0 0 12.1587z"/>
   <path id="_174722632" class="fil0" d="M3.62419 20.8436c0,-1.51733 1.37017,-2.56769 2.94465,-2.56769 1.08314,0 2.21794,0.961533 2.41619,1.81247l3.69856 -0.243224c-0.333297,-1.41892 -1.01139,-2.69832 -1.98139,-3.51339 -0.809759,-0.680297 -2.39182,-1.60533 -3.83133,-1.60533l-0.90603 0c-3.07025,0 -5.96484,3.09863 -5.96484,6.26818l0 0.453118c0,3.02212 3.04347,6.04162 6.11585,6.04162l0.679539 0c1.64011,0 3.18257,-0.954853 4.02049,-1.79374 0.766582,-0.767477 1.8688,-2.42143 1.8688,-3.8703l0 -0.302033 -2.64186 -0.0938602 -0.906856 0.0183175c0,1.23506 -1.21082,2.41668 -2.4916,2.41668l-0.453049 0c-1.21027,0 -2.56714,-1.20434 -2.56714,-2.34113l0 -0.679677z"/>
   <path id="_174722608" class="fil0" d="M39.4886 21.1456l0 -0.604134c0,-0.387147 0.472882,-1.25998 0.696686,-1.49329 0.511238,-0.532724 0.694414,-0.54023 1.26928,-0.905823l1.20524 -0.168576 0.0754738 0c1.23671,0 2.86917,1.31797 2.86917,2.41668l0 1.1328c0,1.15786 -1.46258,2.64317 -2.56714,2.64317l-0.755013 0c-1.51691,0 -2.7937,-1.47821 -2.7937,-3.02081zm-3.32215 0.0755426c0,3.49734 2.82304,6.26818 6.34234,6.26818l0.151016 0c1.55155,0 3.13609,-0.65888 3.98248,-1.37857 0.514819,-0.437693 0.886128,-0.870427 1.27266,-1.44585 0.405327,-0.603239 0.585059,-1.44619 0.846601,-1.85957l0.165064 -1.58419 0 -1.4349c0,-0.313602 -0.61467,-1.76496 -0.753911,-2.04013 -0.313326,-0.619147 -0.783316,-1.05161 -1.2646,-1.52931 -0.809071,-0.803079 -2.55144,-1.4904 -4.17282,-1.4904l-0.528523 0c-3.66826,0 -6.04031,2.72511 -6.04031,6.49474z"/>
   <path id="_174722584" class="fil0" d="M29.5221 23.0336c0,2.38521 1.52042,4.15361 3.85075,4.15361l1.05705 0 0 -3.32284 -0.453049 0c-0.611778,0 -1.13252,-0.551454 -1.13252,-1.20834l0 -7.62753 -3.32222 0 0 8.00511z"/>
   <path id="_174722560" class="fil0" d="M62.8949 18.3514l0 5.8906c0,0.648069 0.754187,1.68487 1.14485,2.02677 0.498843,0.436591 1.42691,0.918494 2.32832,0.918494l3.3977 0 0 -3.24737 -2.86917 0c-0.379572,0 -0.755013,-0.37551 -0.755013,-0.75522 0,-0.566122 0.264503,-0.830693 0.830556,-0.830693l2.56714 0 0 -2.49215 -2.34065 0c-0.441136,0 -0.830556,-0.389489 -0.830556,-0.830762 0,-0.498154 0.540918,-0.830693 1.05705,-0.830693l2.26518 0 0 -3.17183 -3.62426 0c-1.6638,0 -3.17114,1.61601 -3.17114,3.32284z"/>
   <path id="_174734344" class="fil0" d="M72.5594 18.5779c0,2.25017 1.35908,3.65972 1.35908,4.30469 0,0.590431 -0.500909,1.20834 -1.05705,1.20834l-0.604066 0c-0.29556,0 -0.00826355,-0.114037 -0.45298,-0.151085l0 3.02081c0,0.306991 0.978611,0.528661 1.35908,0.528661l0.151016 0c1.27693,0 2.16009,-0.445887 2.91469,-1.01167 0.521706,-0.39121 1.46451,-1.72515 1.46451,-2.53781l0 -1.28381c0,-1.10084 -1.35908,-2.54104 -1.35908,-3.32291 0,-0.63829 0.453807,-1.28381 1.05705,-1.28381l0.226559 0c0.203903,0 0.208173,0.0360153 0.377507,0.0754738l0 -3.24737c-0.413178,-0.00915877 -0.532379,-0.151016 -0.981572,-0.151016l-0.679539 0c-1.85296,0 -3.7752,2.00639 -3.7752,3.8515z"/>
   <path id="_174724360" class="fil0" d="M17.97 20.6925c0,-1.56835 1.52972,-2.71871 3.17114,-2.71871 1.38841,0 2.94472,1.32678 2.94472,2.64323l0 0.377575c0,1.62172 -1.21571,3.17183 -2.71816,3.17183l-0.604066 0c-1.37313,0 -2.79363,-1.37795 -2.79363,-2.71871l0 -0.75522zm-3.32215 0l0 0.453118c0,3.61641 2.74894,6.34372 6.34234,6.34372 3.68678,0 6.41782,-2.74694 6.41782,-6.4192l0 -0.528661c0,-1.74017 -0.868568,-3.16652 -1.75532,-4.0594 -0.774295,-0.779735 -2.55922,-1.75566 -4.05851,-1.75566l-0.90603 0c-3.35239,0 -6.04031,2.55075 -6.04031,5.96608z"/>
  </g>
 </g>
</svg>
