<?xml version="1.0" encoding="UTF-8"?>
<!DOCTYPE svg PUBLIC "-//W3C//DTD SVG 1.1//EN" "http://www.w3.org/Graphics/SVG/1.1/DTD/svg11.dtd">
<!-- Creator: CorelDRAW -->
<svg xmlns="http://www.w3.org/2000/svg" xml:space="preserve" width="114.468mm" height="41.1252mm" style="shape-rendering:geometricPrecision; text-rendering:geometricPrecision; image-rendering:optimizeQuality; fill-rule:evenodd; clip-rule:evenodd"
viewBox="0 0 81.3928 29.2421"
 xmlns:xlink="http://www.w3.org/1999/xlink">
 <defs>
  <style type="text/css">
   <![CDATA[
    .fil1 {fill:#72CDD6}
    .fil0 {fill:#FDFDFD}
   ]]>
  </style>
 </defs>
 <g id="Capa_x0020_1">
  <metadata id="CorelCorpID_0Corel-Layer"/>
  <g id="_174734344">
   <path id="_145099624" class="fil0" d="M20.5821 12.0867l3.43039 0 0 -8.49968 0.623662 0c1.05676,0 2.41686,1.42118 2.41686,2.65129l0 0.467871c0,1.25671 -1.1044,2.244 -2.18299,2.49529l0 2.80723c1.55393,0 2.76513,-0.776964 3.56691,-1.57896 0.668245,-0.668387 1.6566,-2.23575 1.6566,-3.48962l0 -1.16968c0,-1.35156 -1.10241,-2.77537 -1.8119,-3.49026 -0.780164,-0.786137 -2.24656,-1.50039 -3.80142,-1.50039l-3.89812 0 0 11.3069z"/>
   <path id="_146152232" class="fil1" d="M63.4614 8.10981l0 -7.408 3.11852 0 0 7.252c0,0.826454 0.650469,1.09175 1.48126,1.09175l0 3.04116 -0.857598 0c-2.3033,0 -3.74219,-1.62909 -3.74219,-3.9769zm-0.389798 0.779809l0.0780022 0.701806 0.0779311 0.233935 0.0779311 0.155933 0.0780022 0.311938 0.0779311 0.0779311 0.0780022 0.156004 0.0779311 0.0779311 0.0780022 0.156004 0.0779311 0.0779311 0.0780022 0.0780022 0.0779311 0.155933 0.0779311 0.0780022 0.0780022 0.0780022 0.0779311 0.0779311 0.0780022 0.0780022 0.0779311 0.0780022 0.155933 0 0 0.155933 0.0779311 0.0780022 0.155933 0.0779311 0.0780022 0.0780022 0.155933 0.0780022 0.0779311 0.0779311 0.233864 0.0780022 0.0780022 0.0780022 0.233864 0.0780022 0.311867 0.0779311 0.233864 0.0780022 0.311867 0.0780022 2.02706 0 0 -3.89897 -0.857598 -0.0780022 -0.311867 -0.0779311 -0.0780022 -0.0780022 -0.0779311 -0.155933 -0.0779311 -0.234007 -0.0780022 -7.64187 -3.89812 0 0 8.57768z"/>
   <path id="_145099696" class="fil1" d="M26.5072 7.17407l-0.0780022 0.155933 -0.0779311 0.233935 0 0.155933 -0.155933 0 -0.0780022 0.156004 -0.0779311 0.0779311 -0.0779311 0.0780022 -0.0780022 0.0780022 0 0.155933 -0.155933 0 -0.0779311 0.0780022 -0.0780022 0.0780022 -0.155862 0.0779311 -0.0780022 0.0780022 -0.233864 0.0780022 -0.233935 0.0779311 -0.233864 0.0780022 -0.155933 0.0780022 -0.07722 -4.84453 0.467018 0.0878147 0.233935 0.0779311 0.0779311 0.0780022 0.233935 0.0780022 0.0779311 0.0779311 0.0779311 0.0780022 0.155933 0.0780022 0.155933 0 0 0.155933 0.0780022 0.0780022 0.0779311 0.0779311 0.0779311 0.156004 0.0780022 0.0779311 0.0779311 0.0780022 0.0780022 0.0780022 0.0779311 0.233935 0.0780022 0.155933 0.0779311 0.233935 0 0.935742 -0.0779311 0.311938zm-5.92518 -6.39426l3.89812 0c1.55485,0 3.02125,0.71425 3.80142,1.50039 0.709486,0.71489 1.8119,2.1387 1.8119,3.49026l0 1.16968c0,1.25387 -0.98836,2.82123 -1.6566,3.48962 -0.80178,0.801993 -2.01298,1.57896 -3.56691,1.57896l0 -2.80723c1.07859,-0.251285 2.18299,-1.23858 2.18299,-2.49529l0 -0.467871c0,-1.23012 -1.3601,-2.65129 -2.41686,-2.65129l-0.623662 0 0 8.49968 -3.43039 0 0 -11.3069zm-0.389798 11.6968l4.98958 0 0.4678 -0.0780022 0.311867 -0.0780022 0.467729 -0.0779311 0.155933 -0.0780022 0.155933 -0.0780022 0.233864 -0.0780022 0.233935 -0.0779311 0.0779311 -0.0780022 0.155933 -0.0780022 0.155933 -0.0779311 0.155933 -0.0780022 0.0779311 -0.0780022 0.155933 -0.0779311 0.0779311 -0.0780022 0.0780022 -0.0780022 0.0779311 -0.0779311 0.155933 -0.0780022 0.0780022 -0.0780022 0.0779311 -0.0779311 0.0780022 -0.0780022 0.0779311 -0.0780022 0.0779311 -0.0779311 0.0780022 -0.0780022 0.0779311 -0.0780022 0.0780022 -0.0779311 0.0779311 -0.0780022 0.0780022 -0.0780022 0.0779311 -0.0779311 0.0780022 -0.156004 0.0779311 -0.0779311 0.0779311 -0.156004 0.0780022 -0.0779311 0.0779311 -0.0780022 0.0780022 -0.155933 0.0779311 -0.156004 0.0780022 -0.0779311 0.0779311 -0.233935 0.0779311 -0.156004 0.0780022 -0.155933 0.0779311 -0.155933 0.0780022 -0.311938 0.0779311 -0.233935 0.0780022 -0.233935 0.0779311 -0.623875 0.0780022 -0.545802 0 -0.935742 -0.0780022 -0.467871 -0.0779311 -0.467871 -0.0780022 -0.233935 -0.0779311 -0.156004 -0.0780022 -0.311867 -0.0779311 -0.156004 -0.0780022 -0.155933 -0.0779311 -0.156004 -0.0779311 -0.155933 -0.0780022 -0.0780022 -0.0779311 -0.155933 -0.0780022 -0.155933 -0.0779311 -0.156004 -0.155933 0 0 -0.233935 -0.0779311 -0.0779311 -0.0780022 -0.0780022 -0.0779311 -0.0780022 -0.0780022 -0.0779311 -0.0779311 -0.0780022 -0.0780022 -0.0780022 -0.0779311 -0.0779311 -0.0780022 -0.0780022 -0.0779311 -0.0780022 -0.0779311 -0.0779311 -0.0780022 -0.0780022 -0.0779311 -0.0780022 -0.0780022 -0.0779311 -0.0779311 -0.0780022 -0.155933 -0.0780022 -0.0780022 -0.0779311 -0.0779311 -0.0780022 -0.155933 -0.0780022 -0.155933 -0.0779311 -0.0779311 -0.0780022 -0.0780022 -0.0780022 -0.233864 -0.0779311 -0.155933 -0.0780022 -0.155933 -0.0780022 -0.155933 -0.0779311 -0.233864 -0.0780022 -0.155933 -0.0780022 -0.233864 -0.0779311 -0.4678 -0.0780022 -0.389798 -0.0780022 -0.779595 -0.0779311 -4.36592 0 0 12.1647z"/>
   <path id="_146152352" class="fil0" d="M32.1205 3.89897l0 5.53645c0,1.3286 1.79704,2.65129 3.35239,2.65129l2.96259 0 0 -3.04116 -2.65072 0c-0.385318,0 -0.701664,-0.316417 -0.701664,-0.701806l0 -0.0780022c0,-0.321608 0.262093,-0.701806 0.545731,-0.701806l2.57279 0 0 -2.26135 -2.18299 0c-0.18921,0 -0.701664,-0.39897 -0.701664,-0.623875l0 -0.233935c0,-0.385389 0.316346,-0.701806 0.701664,-0.701806l2.41686 0 0 -3.04116 -3.11852 0c-1.78139,0 -3.19645,1.33493 -3.19645,3.19717z"/>
   <path id="_146152640" class="fil0" d="M43.425 3.3531l0 8.73362 3.11852 0 0 -7.87588c0,-0.227892 0.388518,-0.545873 0.623662,-0.545873 0.385389,0 0.701664,0.316417 0.701664,0.701878l0 7.71987 3.11852 0 0 -7.71987c0,-0.38546 0.316346,-0.701878 0.701664,-0.701878l0.0779311 0c0.217155,0 0.545731,0.328718 0.545731,0.545873l0 7.87588 3.11852 0 0 -7.87588c0,-1.30926 -0.135313,-1.77962 -0.722782,-2.55217 -0.380696,-0.50065 -1.25593,-1.1908 -2.08387,-1.1908l-0.467729 0c-0.602544,0 -1.32085,0.311156 -1.70133,0.559668 -0.635181,0.414898 -0.799149,1.00948 -1.10533,1.23381 -0.534283,-1.00983 -1.26112,-1.79348 -2.80666,-1.79348l-0.311867 0c-1.30399,0 -2.80666,1.5316 -2.80666,2.88523z"/>
   <polygon id="_145099504" class="fil0" points="57.8481,12.0867 61.0446,12.0867 61.0446,0.701806 57.8481,0.701806 "/>
   <path id="_146151800" class="fil0" d="M63.4614 8.10981c0,2.34782 1.43888,3.9769 3.74219,3.9769l0.857598 0 0 -3.04116c-0.830791,0 -1.48126,-0.265293 -1.48126,-1.09175l0 -7.252 -3.11852 0 0 7.408z"/>
   <path id="_146151464" class="fil1" d="M32.1205 3.89897c0,-1.86224 1.41506,-3.19717 3.19645,-3.19717l3.11852 0 0 3.04116 -2.41686 0c-0.385318,0 -0.701664,0.316417 -0.701664,0.701806l0 0.233935c0,0.224905 0.512454,0.623875 0.701664,0.623875l2.18299 0 0 2.26135 -2.57279 0c-0.283638,0 -0.545731,0.380198 -0.545731,0.701806l0 0.0780022c0,0.385389 0.316346,0.701806 0.701664,0.701806l2.65072 0 0 3.04116 -2.96259 0c-1.55535,0 -3.35239,-1.3227 -3.35239,-2.65129l0 -5.53645zm2.18299 -3.5091l-0.233935 0.0780022 -0.233864 0.0780022 -0.233864 0.0779311 -0.0780022 0.0780022 -0.155933 0.0780022 -0.0779311 0.0779311 -0.155933 0.0780022 -0.0779311 0.0780022 -0.155933 0.0779311 -0.0780022 0.0780022 -0.0779311 0.0780022 -0.0780022 0.0779311 -0.0779311 0.0780022 -0.0779311 0.0780022 -0.0780022 0.0779311 -0.0779311 0.156004 -0.0780022 0.0779311 -0.0779311 0.0780022 -0.0780022 0.155933 -0.0779311 0.156004 -0.0780022 0.0779311 -0.0779311 0.233935 -0.0779311 0.156004 -0.0780022 0.233935 -0.0779311 0.311867 0 6.31633 0.0779311 0.311938 0.0780022 0.233935 0.0779311 0.155933 0.0779311 0.233935 0.0780022 0.155933 0.0779311 0.0780022 0.0780022 0.233935 0.0779311 0.0780022 0.0780022 0.0779311 0.0779311 0.0780022 0.0780022 0.155933 0.0779311 0.0780022 0.0779311 0.0780022 0.0780022 0.0779311 0.155933 0.0780022 0.0779311 0.0780022 0.0780022 0.0779311 0.155933 0.0780022 0.0779311 0.0780022 0.0779311 0.0779311 0.233935 0.0780022 0.0779311 0.0780022 0.155933 0.0780022 0.311867 0.0779311 0.233864 0.0780022 0.311867 0.0780022 4.13198 0 0 -3.82097 -3.04052 -0.0780022 -0.155933 -0.0780022 -0.0779311 -0.155933 0 -0.155933 0 -0.156004 0.389798 0 2.65072 -0.0780022 0 -3.11909 -2.49479 -0.0780022 -0.311867 0 0 -0.155933 -0.0779311 -0.311938 0.155862 0 0.155933 -0.0780022 2.80666 -0.0779311 0 -3.82097 -4.20999 0 -0.311795 0.0779311z"/>
   <path id="_145099552" class="fil1" d="M43.425 3.3531c0,-1.35363 1.50266,-2.88523 2.80666,-2.88523l0.311867 0c1.54554,0 2.27237,0.783648 2.80666,1.79348 0.306178,-0.224336 0.470146,-0.818916 1.10533,-1.23381 0.380483,-0.248512 1.09879,-0.559668 1.70133,-0.559668l0.467729 0c0.827947,0 1.70318,0.690145 2.08387,1.1908 0.58747,0.772556 0.722782,1.24292 0.722782,2.55217l0 7.87588 -3.11852 0 0 -7.87588c0,-0.217155 -0.328576,-0.545873 -0.545731,-0.545873l-0.0779311 0c-0.385318,0 -0.701664,0.316417 -0.701664,0.701878l0 7.71987 -3.11852 0 0 -7.71987c0,-0.38546 -0.316275,-0.701878 -0.701664,-0.701878 -0.235144,0 -0.623662,0.317982 -0.623662,0.545873l0 7.87588 -3.11852 0 0 -8.73362zm2.26093 -3.2751l-0.233864 0.0779311 -0.155933 0.0780022 -0.233935 0.0780022 -0.155862 0.0779311 -0.0780022 0.0780022 -0.233864 0.0780022 -0.0780022 0.0779311 -0.0779311 0.0780022 -0.0780022 0.0780022 -0.155862 0.0779311 -0.0780022 0.0780022 0 0.155933 -0.155933 0 -0.0779311 0.0780022 -0.0780022 0.0780022 -0.0779311 0.0779311 -0.0779311 0.0780022 -0.0780022 0.155933 -0.0779311 0.156004 -0.0780022 0.0779311 -0.0779311 0.0780022 -0.0780022 0.233935 -0.0779311 0.233935 -0.0780022 0.155933 -0.0779311 0.233935 0 9.74743 3.89812 0 0.0779311 -8.10981 0.0780022 -0.156004 0.0779311 -0.0779311 0.0780022 0 0.0779311 0.0779311 0.0780022 0.156004 0.0779311 8.10981 3.89812 0 0.0780022 -8.10981 0.0779311 -0.156004 0.233864 0 0.0780022 0.0780022 0.0779311 8.18781 3.89812 0 0 -9.66943 -0.0779311 -0.233935 -0.0780022 -0.155933 -0.0779311 -0.233935 -0.0780022 -0.233935 -0.0779311 -0.0780022 -0.0779311 -0.0780022 -0.0780022 -0.155933 -0.0779311 -0.155933 -0.0780022 -0.0780022 -0.0779311 -0.0780022 -0.0780022 -0.155933 -0.0779311 -0.0780022 -0.155933 0 0 -0.155933 -0.0779311 -0.0780022 -0.155933 -0.0779311 -0.0780022 -0.0780022 -0.0779311 -0.0780022 -0.155933 -0.0779311 -0.155933 -0.0780022 -0.0779311 -0.0780022 -0.155933 -0.0779311 -0.311867 -0.0780022 -0.155933 -0.0780022 -0.233864 -0.0779311 -0.389798 -0.0780022 -0.9356 0 -0.389798 0.0780022 -0.155933 0.0779311 -0.233864 0.0780022 -0.233864 0.0780022 -0.155933 0.0779311 -0.155933 0.0780022 -0.155933 0.0780022 -0.0780022 0.0779311 -0.0779311 0.0780022 -0.0779311 0.0780022 -0.155933 0.0779311 -0.0780022 0.0780022 -0.0779311 0.0780022 -0.0780022 0.0779311 -0.0779311 0.0780022 -0.0779311 0.0780022 -0.0780022 0.0779311 -0.0779311 0 -0.0780022 -0.0779311 -0.0779311 -0.156004 -0.155933 -0.0779311 -0.0780022 -0.0780022 -0.0779311 -0.0780022 -0.0779311 -0.0779311 -0.0780022 -0.0780022 -0.0779311 -0.0780022 -0.0780022 -0.0779311 -0.155933 -0.0780022 -0.155933 -0.0780022 -0.155862 -0.0779311 -0.233935 -0.0780022 -0.233864 -0.0780022 -0.233864 -0.0779311 -0.389869 -0.0780022 -0.935529 0 -0.389798 0.0780022z"/>
   <path id="_146152952" class="fil1" d="M57.8481 0.701806l3.19645 0 0 11.3849 -3.19645 0 0 -11.3849zm-0.389869 11.7748l3.97612 0 0 -12.1647 -3.97612 0 0 12.1647z"/>
   <path id="_146153096" class="fil1" d="M4.13198 21.9901l0 0.701806c0,1.1738 1.40105,2.41736 2.65072,2.41736l0.4678 0c1.32248,0 2.57272,-1.22009 2.57272,-2.49536l0.936382 -0.0189139 2.72787 0.0969161 0 0.311867c0,1.49605 -1.13811,3.20385 -1.92965,3.99631 -0.865206,0.866201 -2.45789,1.85214 -4.15139,1.85214l-0.701664 0c-3.17242,0 -6.31498,-3.11781 -6.31498,-6.23833l0 -0.467871c0,-3.27275 2.98883,-6.47226 6.15904,-6.47226l0.935529 0c1.48638,0 3.11995,0.955154 3.95607,1.6576 1.00159,0.841599 1.70176,2.16266 2.0459,3.62778l-3.81898 0.251143c-0.204711,-0.878645 -1.37645,-1.87148 -2.49486,-1.87148 -1.62574,0 -3.04052,1.08456 -3.04052,2.65129zm1.87113 -6.7062l-0.623733 0.0779311 -0.311795 0.0780022 -0.155933 0.0780022 -0.389798 0.0779311 -0.0780022 0.0780022 -0.233864 0.0780022 -0.0780022 0.0779311 -0.233864 0.0780022 -0.155933 0.0780022 -0.0779311 0.0779311 -0.233935 0.0780022 -0.0779311 0.0780022 -0.155933 0.0779311 -0.155933 0.0780022 -0.0779311 0.0780022 -0.0780022 0.0780022 -0.0779311 0.0779311 -0.155933 0.0780022 -0.0779311 0.0780022 -0.0780022 0.0779311 -0.155933 0.0780022 -0.0779311 0.0780022 -0.0780022 0.0779311 -0.0779311 0.0780022 -0.0780022 0.0780022 -0.0779311 0.0779311 -0.0779311 0.0780022 -0.0780022 0.0780022 -0.0779311 0.155933 -0.155933 0.0780022 -0.0780022 0.155933 0 0.155933 -0.155933 0 -0.0779311 0.156004 -0.0779311 0.0779311 -0.0780022 0.156004 -0.0779311 0.0779311 -0.0780022 0.156004 -0.0779311 0.155933 -0.0780022 0.0780022 -0.0779311 0.233935 -0.0779311 0.155933 -0.0780022 0.0780022 -0.0779311 0.155933 -0.0780022 0.311938 -0.0779311 0.155933 -0.0780022 0.155933 -0.0779311 0.38994 -0.0780022 0.311938 -0.0779311 0.389869 0 2.02742 0.0779311 0.38994 0.0780022 0.311867 0.0779311 0.38994 0.0780022 0.233935 0.0779311 0.155933 0.0780022 0.233935 0.0779311 0.233935 0.0780022 0.0780022 0.0779311 0.155933 0.0779311 0.233935 0.0780022 0.0780022 0.0779311 0.0780022 0.0780022 0.233935 0.0779311 0.0779311 0.0780022 0.0780022 0.0779311 0.155933 0.0779311 0.156004 0.155933 0 0 0.155933 0.0780022 0.0780022 0.0779311 0.0779311 0.0780022 0.0780022 0.0779311 0.155933 0.0780022 0.0780022 0.0779311 0.0780022 0.0779311 0.0779311 0.0780022 0.0780022 0.155933 0.0780022 0.0779311 0.0779311 0.0780022 0.0780022 0.0779311 0.0780022 0.0780022 0.0779311 0.0779311 0.0780022 0.155933 0.0780022 0.0779311 0.0779311 0.0780022 0.0780022 0.155933 0.0780022 0.0779311 0.0779311 0.155933 0.0780022 0.0779311 0.0780022 0.233935 0.0779311 0.0779311 0.0780022 0.155933 0.0780022 0.233864 0.0779311 0.155933 0.0780022 0.155933 0.0780022 0.311867 0.0779311 0.155933 0.0780022 0.233864 0.0780022 0.233864 0.0779311 0.701664 0.0780022 2.02706 0 0.623662 -0.0780022 0.233935 -0.0779311 0.233864 -0.0780022 0.155933 -0.0780022 0.311867 -0.0779311 0.155862 -0.0780022 0.0780022 -0.0780022 0.233864 -0.0779311 0.155933 -0.0780022 0.0780022 -0.0780022 0.155862 -0.0779311 0.155933 -0.0780022 0.0780022 -0.0780022 0.0779311 -0.0779311 0.233935 -0.0780022 0.0779311 -0.0780022 0.0779311 -0.0779311 0.155933 -0.0780022 0.0780022 -0.0780022 0.0779311 -0.0779311 0.0780022 -0.0780022 0.0779311 -0.0780022 0.0779311 -0.0779311 0.0780022 -0.0780022 0.0779311 -0.0780022 0.155933 -0.0779311 0.0780022 -0.156004 0.0779311 -0.0779311 0.0780022 -0.0780022 0.0779311 -0.0780022 0.0779311 -0.0779311 0.0780022 -0.156004 0.0779311 -0.0779311 0.0780022 -0.0780022 0.0779311 -0.155933 0.0780022 -0.0780022 0.0779311 -0.155933 0.0780022 -0.156004 0.0779311 -0.155933 0.0779311 -0.0780022 0.0780022 -0.155933 0.0779311 -0.233935 0.0780022 -0.155933 0.0779311 -0.156004 0.0780022 -0.311938 0.0779311 -0.233935 0.0779311 -0.155933 0.0780022 -0.311938 0.0779311 -0.467871 0.0780022 -0.311867 0.0779311 -0.38994 0 -0.545802 -3.58625 -0.0780022 -0.935529 0 -0.0780022 0.389869 -0.0779311 0.233935 -0.0780022 0.233935 -0.0779311 0.156004 -0.0779311 0.311867 -0.0780022 0.0780022 -0.0779311 0.0780022 -0.0780022 0.155933 -0.0779311 0.0780022 -0.0780022 0.0779311 0 0.156004 -0.155933 0 -0.0779311 0.0779311 -0.0779311 0.0780022 -0.155933 0.0780022 -0.0780022 0.0779311 -0.155933 0.0780022 -0.311795 0.0780022 -0.311867 0.0779311 -0.779666 0 -0.311795 -0.0779311 -0.233935 -0.0780022 -0.155933 -0.0780022 -0.155862 -0.0779311 -0.155933 -0.0780022 -0.0780022 -0.0780022 -0.0779311 -0.0779311 -0.155933 -0.0780022 -0.0780022 -0.0780022 -0.0779311 -0.0779311 -0.0779311 -0.156004 -0.0780022 -0.0779311 -0.0779311 -0.0780022 -0.0780022 -0.155933 -0.0779311 -0.233935 -0.0780022 -0.156004 -0.0779311 -0.233935 0 -1.01367 0.0779311 -0.233935 0.0780022 -0.156004 0.0779311 -0.233935 0.0780022 -0.155933 0.0779311 -0.0780022 0.0780022 -0.0779311 0.0779311 -0.156004 0.0779311 -0.0780022 0.0780022 -0.0779311 0.0779311 -0.0780022 0.0780022 -0.0780022 0.155933 -0.0779311 0.0779311 -0.0780022 0.155933 -0.0780022 0.0779311 -0.0779311 0.155933 -0.0780022 0.389869 -0.0780022 1.09146 0 0.389798 0.0780022 0.155933 0.0780022 0.0779311 0.0779311 0.0780022 0.0780022 0.155933 0.0780022 0.0779311 0.0779311 0.0779311 0.0780022 0.0780022 0.0780022 0.0779311 0.0779311 0.0780022 0.0780022 0.0779311 0.0780022 0.0780022 0.155933 0.0779311 0.0780022 0.0780022 0.0780022 0.0779311 0.233935 0.0779311 0.155933 0.0780022 0.0780022 0.0779311 0.155933 0.389798 0 0.9356 -0.0780022 1.71512 -0.0779311 1.01353 -0.0780022 0.545731 -0.0780022 0 -0.233935 -0.0779311 -0.233935 -0.0780022 -0.233935 -0.0779311 -0.467871 -0.0780022 -0.155933 -0.0779311 -0.233935 -0.0779311 -0.156004 -0.0780022 -0.311867 -0.0779311 -0.156004 -0.0780022 -0.155933 -0.0779311 -0.155933 -0.0780022 -0.156004 -0.0779311 -0.0779311 -0.0779311 -0.156004 -0.0780022 -0.155933 -0.0779311 -0.0780022 -0.0780022 -0.0779311 -0.0779311 -0.156004 -0.0780022 -0.0779311 -0.0779311 -0.0780022 -0.0780022 -0.0780022 -0.0779311 -0.155933 -0.0779311 -0.0780022 -0.0780022 -0.0779311 -0.0779311 -0.0780022 -0.0780022 -0.0780022 -0.0779311 -0.0779311 -0.0780022 -0.0780022 -0.0779311 -0.0780022 -0.0780022 -0.0779311 -0.0779311 -0.0780022 -0.155933 -0.0780022 -0.0779311 -0.0779311 -0.0780022 -0.0780022 -0.155933 -0.0780022 -0.0779311 -0.0779311 -0.0779311 -0.0780022 -0.0780022 -0.0780022 -0.155933 -0.0780022 -0.155933 -0.0779311 -0.0779311 -0.0780022 -0.233864 -0.0780022 -0.0780022 -0.0779311 -0.155933 -0.0780022 -0.233864 -0.0780022 -0.0780022 -0.0779311 -0.233864 -0.0780022 -0.155933 -0.0780022 -0.311795 -0.0779311 -0.233935 -0.0780022 -0.233864 -0.0780022 -0.623733 -0.0779311 -0.701664 -0.0780022 -0.623662 0 -0.701664 0.0780022z"/>
   <path id="_145099096" class="fil0" d="M53.0924 28.5403l3.50832 0 0 -9.43542 1.32533 0c0.562085,0 1.09146,0.392642 1.09146,0.935742l0 0.389869c0,0.661845 -0.774405,1.01374 -1.48126,1.01374l0 2.88523c0,0.445402 1.69436,4.21084 1.94906,4.21084l3.47071 -0.0167808 -2.14538 -5.2858c0.691852,-0.184731 1.7152,-1.92673 1.7152,-2.88523l0 -0.233935c0,-2.18164 -1.85357,-4.13284 -3.97605,-4.13284l-5.45738 0 0 12.5546z"/>
   <path id="_146152112" class="fil0" d="M4.13198 21.9901c0,-1.56673 1.41478,-2.65129 3.04052,-2.65129 1.11841,0 2.29015,0.992839 2.49486,1.87148l3.81898 -0.251143c-0.344148,-1.46512 -1.04432,-2.78618 -2.0459,-3.62778 -0.836124,-0.702446 -2.46969,-1.6576 -3.95607,-1.6576l-0.935529 0c-3.17022,0 -6.15904,3.19951 -6.15904,6.47226l0 0.467871c0,3.12051 3.14256,6.23833 6.31498,6.23833l0.701664 0c1.69351,0 3.28619,-0.985942 4.15139,-1.85214 0.791541,-0.792465 1.92965,-2.50027 1.92965,-3.99631l0 -0.311867 -2.72787 -0.0969161 -0.936382 0.0189139c0,1.27527 -1.25024,2.49536 -2.57272,2.49536l-0.4678 0c-1.24967,0 -2.65072,-1.24356 -2.65072,-2.41736l0 -0.701806z"/>
   <path id="_174735208" class="fil0" d="M41.1641 22.3019l0 -0.623804c0,-0.399752 0.488278,-1.30101 0.719369,-1.54191 0.527884,-0.550068 0.717023,-0.557819 1.31061,-0.935315l1.24448 -0.174065 0.0779311 0c1.27697,0 2.96259,1.36088 2.96259,2.49536l0 1.16968c0,1.19556 -1.5102,2.72922 -2.65072,2.72922l-0.779595 0c-1.5663,0 -2.88466,-1.52634 -2.88466,-3.11916zm-3.43032 0.0780022c0,3.61121 2.91495,6.47226 6.54884,6.47226l0.155933 0c1.60207,0 3.23819,-0.680333 4.11214,-1.42345 0.531581,-0.451943 0.914979,-0.898767 1.31409,-1.49292 0.418524,-0.62288 0.604108,-1.49328 0.874165,-1.92012l0.170439 -1.63577 0 -1.48162c0,-0.323812 -0.634683,-1.82242 -0.778458,-2.10656 -0.323528,-0.639305 -0.808819,-1.08584 -1.30577,-1.5791 -0.835413,-0.829227 -2.63451,-1.53893 -4.30868,-1.53893l-0.545731 0c-3.78769,0 -6.23698,2.81384 -6.23698,6.7062z"/>
   <path id="_145098832" class="fil1" d="M37.7338 22.3799c0,-3.89236 2.44928,-6.7062 6.23698,-6.7062l0.545731 0c1.67417,0 3.47327,0.709699 4.30868,1.53893 0.496953,0.493255 0.982245,0.939795 1.30577,1.5791 0.143774,0.284136 0.778458,1.78274 0.778458,2.10656l0 1.48162 -0.170439 1.63577c-0.270057,0.426843 -0.455641,1.29724 -0.874165,1.92012 -0.399112,0.594153 -0.782511,1.04098 -1.31409,1.49292 -0.873952,0.743118 -2.51008,1.42345 -4.11214,1.42345l-0.155933 0c-3.63389,0 -6.54884,-2.86105 -6.54884,-6.47226zm5.37938 -7.09607l-0.623662 0.0779311 -0.233864 0.0780022 -0.233935 0.0780022 -0.311795 0.0779311 -0.233935 0.0780022 -0.155933 0.0780022 -0.155933 0.0779311 -0.233864 0.0780022 -0.0779311 0.0780022 -0.155933 0.0779311 -0.233935 0.0780022 -0.0779311 0.0780022 -0.0779311 0.0779311 -0.155933 0.0780022 -0.155933 0.0780022 -0.0780022 0.0780022 -0.0779311 0.0779311 -0.155933 0.0780022 -0.0779311 0.0780022 -0.0780022 0.0779311 -0.155933 0.0780022 -0.0779311 0.155933 -0.0780022 0.0780022 -0.155862 0.0780022 -0.0780022 0.155933 -0.0779311 0.0780022 -0.0780022 0.0779311 0 0.156004 -0.155933 0 -0.0779311 0.0779311 -0.0780022 0.156004 -0.0779311 0.0779311 -0.0779311 0.156004 -0.0780022 0.0779311 -0.0779311 0.156004 -0.0780022 0.155933 -0.0779311 0.0780022 -0.0780022 0.233935 -0.0779311 0.155933 -0.0779311 0.0780022 -0.0780022 0.233935 -0.0779311 0.233935 -0.0780022 0.233935 -0.0779311 0.155933 -0.0780022 0.545873 -0.0779311 0.389869 -0.0780022 0.779809 0 0.701806 0.0780022 0.779809 0.0779311 0.467871 0.0780022 0.545802 0.0779311 0.233935 0.0780022 0.233935 0.0779311 0.233935 0.0780022 0.234007 0.0779311 0.0779311 0.0779311 0.156004 0.0780022 0.233935 0.0779311 0.155933 0.0780022 0.0780022 0.0779311 0.233935 0.0780022 0.0779311 0.0779311 0.0780022 0.0779311 0.155933 0.0780022 0.156004 0.0779311 0.0779311 0.0780022 0.0780022 0.0779311 0.155933 0.0780022 0.0780022 0.0779311 0.0780022 0.0780022 0.0779311 0.0779311 0.0780022 0.0779311 0.0780022 0.0780022 0.0779311 0.0779311 0.0780022 0.0780022 0.0780022 0.0779311 0.0779311 0.0780022 0.0780022 0.0779311 0.0780022 0.155933 0.0779311 0.0779311 0.0780022 0.0780022 0.0780022 0.155933 0 0 0.155933 0.233864 0.0780022 0.0779311 0.0779311 0.0780022 0.0780022 0.155933 0.0780022 0.155933 0.0779311 0.155933 0.0780022 0.155862 0.0780022 0.233935 0.0779311 0.155933 0.0780022 0.155933 0.0780022 0.311795 0.0779311 0.233935 0.0780022 0.233864 0.0780022 0.233864 0.0779311 0.701664 0.0780022 1.87113 0 0.701664 -0.0780022 0.233864 -0.0779311 0.233864 -0.0780022 0.233935 -0.0780022 0.311795 -0.0779311 0.155933 -0.0780022 0.155933 -0.0780022 0.233935 -0.0779311 0.155862 -0.0780022 0.155933 -0.0780022 0.155933 -0.0779311 0.0780022 -0.0780022 0.0779311 -0.0780022 0.155933 -0.0779311 0.155933 -0.0780022 0.0779311 -0.0780022 0.0780022 -0.0779311 0.155933 -0.0780022 0.0779311 -0.0780022 0.0779311 -0.0779311 0.0780022 -0.0780022 0.155933 -0.0780022 0.0779311 -0.155933 0.155933 -0.0780022 0.0780022 -0.155933 0.155862 -0.0780022 0.0780022 -0.155933 0 -0.155933 0.155933 0 0.0779311 -0.0780022 0.0780022 -0.155933 0.0779311 -0.0780022 0.0779311 -0.155933 0.0780022 -0.156004 0.0779311 -0.0779311 0.0780022 -0.0780022 0.0779311 -0.155933 0.0780022 -0.233935 0.0779311 -0.156004 0.0780022 -0.0779311 0.0779311 -0.233935 0.0779311 -0.156004 0.0780022 -0.233935 0.0779311 -0.155933 0.0780022 -0.38994 0.0779311 -0.311867 0.0780022 -0.311938 0 -2.88523 -0.0780022 -0.389869 -0.0779311 -0.233935 -0.0780022 -0.38994 -0.0779311 -0.155933 -0.0780022 -0.155933 -0.0779311 -0.156004 -0.0779311 -0.233935 -0.0780022 -0.155933 -0.0779311 -0.0780022 -0.0780022 -0.233935 -0.0779311 -0.0779311 -0.0780022 -0.156004 -0.0779311 -0.0779311 -0.0780022 -0.156004 -0.0779311 -0.0779311 -0.0779311 -0.0780022 -0.0780022 -0.155933 -0.0779311 -0.0780022 -0.0780022 -0.0780022 -0.0779311 -0.0779311 -0.0780022 -0.156004 -0.0779311 -0.0779311 -0.155933 0 0 -0.156004 -0.155933 -0.0779311 -0.0779311 -0.0780022 -0.0780022 -0.0780022 -0.0779311 -0.0779311 -0.0780022 -0.0780022 -0.155862 -0.0780022 -0.0780022 -0.0779311 -0.0779311 -0.0780022 -0.155933 -0.0780022 -0.0780022 -0.0780022 -0.155933 -0.0779311 -0.155862 -0.0780022 -0.155933 -0.0780022 -0.0780022 -0.0779311 -0.155933 -0.0780022 -0.311795 -0.0780022 -0.0780022 -0.0779311 -0.233864 -0.0780022 -0.155933 -0.0780022 -0.389798 -0.0779311 -0.233935 -0.0780022 -0.233864 -0.0780022 -0.623662 -0.0779311 -0.623733 -0.0780022 -1.09146 0 -0.623733 0.0780022z"/>
   <path id="_174735136" class="fil0" d="M30.8731 24.2514c0,2.46286 1.56993,4.28884 3.97612,4.28884l1.09146 0 0 -3.43103 -0.4678 0c-0.631697,0 -1.16939,-0.569409 -1.16939,-1.24768l0 -7.87588 -3.43039 0 0 8.26574z"/>
   <path id="_174735064" class="fil1" d="M19.4127 21.5222l0.0779311 -0.233935 0.0779311 -0.0780022 0.0780022 -0.311938 0.0779311 -0.0779311 0.0780022 -0.156004 0.0779311 -0.0780022 0 -0.155933 0.155933 0 0.0780022 -0.0780022 0 -0.155933 0.155862 0 0.0780022 -0.0780022 0.0779311 -0.0779311 0.0780022 -0.0780022 0.155933 -0.0780022 0.155933 -0.0779311 0.155862 -0.0780022 0.233935 -0.0780022 0.233864 -0.0779311 0.4678 -0.0780022 0.311795 0 0.4678 0.0780022 0.233864 0.0779311 0.311867 0.0780022 0.0780022 0.0780022 0.155933 0.0779311 0.155862 0.0780022 0.155933 0 0 0.155933 0.155933 0.0780022 0.0780022 0.0780022 0.0779311 0.0779311 0.0779311 0.0780022 0.0780022 0.0780022 0.0779311 0.155933 0.0780022 0.0780022 0.0779311 0.0780022 0.0780022 0.233935 0.0779311 0.155933 0.0780022 0.233935 0 1.55955 -0.0780022 0.156004 -0.0779311 0.155933 -0.0780022 0.233935 -0.0779311 0.155933 -0.0780022 0.0780022 -0.0779311 0.0780022 -0.0780022 0.155933 -0.0779311 0.0780022 -0.0779311 0.0779311 0 0.156004 -0.155933 0 -0.0780022 0.0779311 -0.0779311 0.0780022 -0.155933 0.0780022 -0.155933 0.0779311 -0.155933 0.0780022 -0.0779311 0.0780022 -0.389798 0.0779311 -0.233935 0.0780022 -0.857598 0 -0.311795 -0.0780022 -0.311867 -0.0779311 -0.155933 -0.0780022 -0.0779311 -0.0780022 -0.155933 -0.0779311 -0.155933 -0.0780022 -0.0780022 -0.0780022 -0.0779311 -0.0779311 -0.155933 -0.0780022 -0.0779311 -0.155933 -0.155933 0 0 -0.156004 -0.0780022 -0.0779311 -0.0779311 -0.156004 -0.0780022 -0.0779311 -0.0779311 -0.0780022 -0.0780022 -0.311938 -0.0779311 -0.233935 -0.0779311 -0.233935 0 -1.24761zm-0.4678 0.311867l0 0.779809c0,1.38441 1.46675,2.80723 2.88459,2.80723l0.623733 0c1.55137,0 2.80666,-1.60057 2.80666,-3.2751l0 -0.389869c0,-1.35931 -1.60697,-2.72929 -3.04059,-2.72929 -1.69486,0 -3.27439,1.18781 -3.27439,2.80723z"/>
   <path id="_145099768" class="fil1" d="M46.9334 23.0818l-0.0779311 0.155933 -0.0780022 0.156004 -0.0779311 0.233935 -0.0780022 0.0779311 -0.0779311 0.0780022 -0.0780022 0.155933 0 0.156004 -0.155933 0 -0.0779311 0.0779311 0 0.156004 -0.155933 0 -0.0779311 0.0779311 -0.0780022 0.0780022 -0.155933 0.0780022 -0.0779311 0.0779311 -0.155933 0.0780022 -0.155933 0.0780022 -0.311867 0.0779311 -0.311795 0.0780022 -0.857598 0 -0.311867 -0.0780022 -0.311867 -0.0779311 -0.155933 -0.0780022 -0.0779311 -0.0780022 -0.155933 -0.0779311 -0.155933 -0.0780022 -0.0779311 -0.0780022 -0.0780022 -0.0779311 -0.0779311 -0.0780022 -0.0780022 -0.0780022 -0.0779311 -0.0779311 -0.0779311 -0.0780022 -0.0780022 -0.0780022 -0.0779311 -0.155933 -0.0780022 -0.155933 -0.0779311 -0.0780022 -0.0780022 -0.155933 -0.0779311 -0.233935 -0.0779311 -0.233935 -0.0780022 -0.38994 0 -0.779738 0.0780022 -0.311938 0.0779311 -0.233935 0.0779311 -0.233935 0.0780022 -0.0780022 0.0779311 -0.155933 0.0780022 -0.156004 0.0779311 -0.0779311 0.0780022 -0.0780022 0.0779311 -0.0780022 0.0779311 -0.0779311 0.0780022 -0.0780022 0.0779311 -0.0780022 0.0780022 -0.0779311 0.155933 -0.0780022 0.155933 -0.0780022 0.155862 -0.0779311 0.0780022 -0.0780022 0.311867 -0.0780022 0.233864 -0.0779311 0.389798 -0.0780022 0.389798 0 0.389869 0.0780022 0.233864 0.0779311 0.311867 0.0780022 0.155933 0.0780022 0.0779311 0.0779311 0.233864 0.0780022 0.0780022 0.0780022 0.0779311 0.0779311 0.0780022 0.0780022 0.0779311 0.0780022 0.0779311 0.0779311 0.0780022 0.0780022 0.0779311 0.0780022 0.0780022 0.0779311 0.0779311 0.0780022 0.0780022 0.156004 0.0779311 0.155933 0.0780022 0.155933 0.0779311 0.156004 0.0779311 0.467871 0 0.701806 -0.0779311 0.623804zm-5.76925 -0.779809c0,1.59282 1.31836,3.11916 2.88466,3.11916l0.779595 0c1.14052,0 2.65072,-1.53366 2.65072,-2.72922l0 -1.16968c0,-1.13448 -1.68562,-2.49536 -2.96259,-2.49536l-0.0779311 0 -1.24448 0.174065c-0.593585,0.377496 -0.782724,0.385247 -1.31061,0.935315 -0.231091,0.240904 -0.719369,1.14216 -0.719369,1.54191l0 0.623804z"/>
   <path id="_174734992" class="fil0" d="M65.3325 19.4167l0 6.08239c0,0.669169 0.778742,1.73973 1.18212,2.09276 0.515085,0.450806 1.47337,0.948399 2.40413,0.948399l3.50832 0 0 -3.3531 -2.96259 0c-0.391931,0 -0.779595,-0.387736 -0.779595,-0.779809 0,-0.584554 0.273114,-0.85774 0.857598,-0.85774l2.65072 0 0 -2.57329 -2.41686 0c-0.455499,0 -0.857598,-0.40217 -0.857598,-0.857811 0,-0.514374 0.55853,-0.85774 1.09146,-0.85774l2.33893 0 0 -3.2751 -3.74226 0c-1.71797,0 -3.27439,1.66862 -3.27439,3.43103z"/>
   <path id="_174734920" class="fil0" d="M75.3117 19.6507c0,2.32343 1.40333,3.77888 1.40333,4.44485 0,0.609654 -0.517218,1.24768 -1.09146,1.24768l-0.623733 0c-0.305183,0 -0.0085326,-0.11775 -0.467729,-0.156004l0 3.11916c0,0.316986 1.01047,0.545873 1.40333,0.545873l0.155933 0c1.3185,0 2.23042,-0.460405 3.00959,-1.0446 0.538692,-0.403948 1.51219,-1.78132 1.51219,-2.62043l0 -1.32561c0,-1.13668 -1.40333,-2.62377 -1.40333,-3.4311 0,-0.659072 0.468582,-1.32561 1.09146,-1.32561l0.233935 0c0.210542,0 0.21495,0.0371879 0.389798,0.0779311l0 -3.3531c-0.42663,-0.00945697 -0.549713,-0.155933 -1.01353,-0.155933l-0.701664 0c-1.91329,0 -3.89812,2.07172 -3.89812,3.9769z"/>
   <path id="_174734848" class="fil0" d="M18.9449 21.8341c0,-1.61942 1.57953,-2.80723 3.27439,-2.80723 1.43362,0 3.04059,1.36998 3.04059,2.72929l0 0.389869c0,1.67452 -1.25529,3.2751 -2.80666,3.2751l-0.623733 0c-1.41783,0 -2.88459,-1.42281 -2.88459,-2.80723l0 -0.779809zm-3.43032 0l0 0.467871c0,3.73415 2.83844,6.55026 6.54884,6.55026 3.80682,0 6.62677,-2.83638 6.62677,-6.6282l0 -0.545873c0,-1.79682 -0.896847,-3.26962 -1.81247,-4.19157 -0.799505,-0.805122 -2.64255,-1.81282 -4.19064,-1.81282l-0.935529 0c-3.46153,0 -6.23698,2.6338 -6.23698,6.16032z"/>
   <path id="_174734776" class="fil1" d="M30.8731 15.9857l3.43039 0 0 7.87588c0,0.678271 0.537696,1.24768 1.16939,1.24768l0.4678 0 0 3.43103 -1.09146 0c-2.40619,0 -3.97612,-1.82598 -3.97612,-4.28884l0 -8.26574zm-0.467729 8.73362l0.0779311 0.623875 0.0780022 0.311867 0.0779311 0.38994 0.0779311 0.233935 0.0780022 0.155933 0.0779311 0.233935 0.0780022 0.0780022 0.0779311 0.155933 0.0780022 0.0780022 0.0779311 0.155933 0.0780022 0.0780022 0.0779311 0.0779311 0.0779311 0.156004 0.0780022 0.0779311 0.155933 0 0 0.156004 0.0779311 0.0779311 0.0780022 0.0780022 0.155862 0.0780022 0.0780022 0.0779311 0.0779311 0.0780022 0.0780022 0.0780022 0.155933 0.0779311 0.0779311 0.0780022 0.155933 0.0780022 0.155933 0.0779311 0.0779311 0.0780022 0.155933 0.0780022 0.311867 0.0779311 0.155933 0.0780022 0.233864 0.0780022 0.701664 0.0779311 2.02706 0 0 -4.21084 -0.857598 -0.0780022 -0.311867 -0.0779311 -0.155933 -0.0780022 -0.155933 0 0 -0.155933 -0.0779311 -0.156004 -0.0780022 -0.389869 -0.0779311 -8.18781 -4.28792 0 0 9.12355z"/>
   <path id="_174734704" class="fil1" d="M53.0924 15.9857l5.45738 0c2.12248,0 3.97605,1.95119 3.97605,4.13284l0 0.233935c0,0.958496 -1.02334,2.7005 -1.7152,2.88523l2.14538 5.2858 -3.47071 0.0167808c-0.254698,0 -1.94906,-3.76544 -1.94906,-4.21084l0 -2.88523c0.706855,0 1.48126,-0.351899 1.48126,-1.01374l0 -0.389869c0,-0.5431 -0.529377,-0.935742 -1.09146,-0.935742l-1.32533 0 0 9.43542 -3.50832 0 0 -12.5546zm-0.389798 12.9445l4.28792 0 0.00014221 -9.44225 1.09132 0.0848283 0.155933 0.0779311 0.155933 0.0780022 0.0779311 0.155933 0.164893 0.000497735 -0.0868903 0.623378 0 0.155933 -0.155933 0 0 0.156004 -0.155933 0 -0.311867 0.0779311 -0.857598 0.0780022 0 3.74297 0.0780022 0.155933 0.0779311 0.156004 0.0780022 0.233935 0.0779311 0.155933 0.0779311 0.0780022 0.0780022 0.233935 0.0779311 0.233935 0.0780022 0.0780022 0.0779311 0.155933 0.0780022 0.311938 0.0779311 0.0779311 0.0780022 0.156004 0.0779311 0.233935 0.0779311 0.155933 0.0780022 0.155933 0.0779311 0.156004 0.0780022 0.233935 0.0779311 0.155933 0.0780022 0.155933 0.0779311 0.233935 0.0779311 0.156004 0.0780022 0.155933 0.0779311 0.155933 0.0780022 0.156004 0.0779311 0.0779311 4.52185 0 0 -0.233935 -0.0780022 -0.233935 -0.0779311 -0.155933 -0.0780022 -0.155933 -0.0779311 -0.233935 -0.0779311 -0.156004 -0.0780022 -0.233935 -0.0779311 -0.0779311 -0.0780022 -0.311938 -0.0779311 -0.155933 -0.0780022 -0.156004 -0.0779311 -0.233935 -0.0780022 -0.155933 -0.0779311 -0.155933 -0.0779311 -0.156004 -0.0780022 -0.233935 -0.0779311 -0.233935 -0.0780022 -0.0779311 -0.0779311 -0.311938 -0.0780022 -0.155933 -0.0779311 -0.156004 -0.0779311 -0.233935 -0.0780022 -0.155933 -0.0779311 -0.156004 -0.0780022 -0.155933 -0.0779311 -0.311938 -0.0780022 -0.155933 -0.0779311 -0.0780022 0 -0.311867 0.155933 -0.0780022 0.0779311 -0.155933 0.155933 -0.0780022 0.0780022 -0.155933 0.0779311 -0.0780022 0.0779311 -0.0780022 0.0780022 -0.0779311 0.0779311 -0.156004 0.0780022 -0.0779311 0.0779311 -0.156004 0.0780022 -0.155933 0.0779311 -0.155933 0.0779311 -0.156004 0.0780022 -0.155933 0.0779311 -0.233935 0.0780022 -0.233935 0.0779311 -0.311938 0 -1.79348 -0.0779311 -0.233935 -0.0780022 -0.233935 -0.0779311 -0.233935 -0.0780022 -0.156004 -0.0779311 -0.155933 -0.0779311 -0.0780022 -0.0780022 -0.233935 -0.0779311 -0.0779311 -0.0780022 -0.156004 -0.0779311 -0.0779311 -0.0780022 -0.156004 -0.0779311 -0.0779311 -0.0779311 -0.0780022 -0.0780022 -0.0780022 -0.0779311 -0.0779311 -0.0780022 -0.0780022 -0.0779311 -0.0780022 -0.0780022 -0.0779311 -0.0779311 -0.0780022 -0.0780022 -0.0780022 -0.0779311 -0.0779311 -0.155933 -0.0780022 -0.0779311 -0.0780022 -0.155933 -0.0780022 -0.0780022 -0.0779311 -0.0779311 -0.0780022 -0.233864 -0.0780022 -0.0780022 -0.0779311 -0.155933 -0.0780022 -0.233864 -0.0780022 -0.233864 -0.0779311 -0.155933 -0.0780022 -0.233935 -0.0780022 -6.7047 0 0 13.3344z"/>
   <path id="_174734632" class="fil1" d="M65.3325 19.4167c0,-1.76241 1.55642,-3.43103 3.27439,-3.43103l3.74226 0 0 3.2751 -2.33893 0c-0.532932,0 -1.09146,0.343366 -1.09146,0.85774 0,0.455641 0.402099,0.857811 0.857598,0.857811l2.41686 0 0 2.57329 -2.65072 0c-0.584483,0 -0.857598,0.273185 -0.857598,0.85774 0,0.392073 0.387665,0.779809 0.779595,0.779809l2.96259 0 0 3.3531 -3.50832 0c-0.930765,0 -1.88905,-0.497593 -2.40413,-0.948399 -0.403379,-0.353036 -1.18212,-1.42359 -1.18212,-2.09276l0 -6.08239zm2.26093 -3.74297l-0.155933 0.0780022 -0.155933 0.0779311 -0.233864 0.0780022 -0.155933 0.0780022 -0.0780022 0.0779311 -0.155933 0.0780022 -0.0779311 0.0780022 -0.0780022 0.0779311 -0.155862 0.0780022 -0.0780022 0.0780022 -0.0779311 0.0780022 -0.0780022 0.0779311 -0.0779311 0.0780022 -0.0780022 0.0780022 -0.0779311 0.0779311 -0.0779311 0.0780022 -0.0780022 0.0780022 -0.0779311 0.0779311 -0.0780022 0.156004 -0.0779311 0.0779311 -0.0780022 0.156004 -0.0779311 0.0779311 -0.0780022 0.156004 -0.0779311 0.233935 -0.0779311 0.155933 -0.0780022 0.233935 -0.0779311 0.233935 0 7.25207 0.0779311 0.311867 0.0780022 0.156004 0.0779311 0.233935 0.0779311 0.233935 0.0780022 0.0779311 0.0779311 0.156004 0.0780022 0.155933 0.0779311 0.155933 0.155933 0 0 0.156004 0.0780022 0.0779311 0.0779311 0.0780022 0.0779311 0.0780022 0.0780022 0.155933 0.155933 0.0780022 0.0779311 0.0779311 0.0780022 0.0780022 0.0779311 0.0780022 0.155933 0 0 0.155933 0.155933 0.0780022 0.155933 0.0779311 0.155933 0.0780022 0.155862 0.0780022 0.233935 0.0779311 0.155933 0.0780022 0.233864 0.0780022 0.623733 0.0779311 4.36585 0 0 -4.13284 -3.27439 -0.0780022 -0.233935 -0.0780022 -0.0779311 -0.0779311 0 -0.467871 0.233864 -0.0780022 3.11852 -0.0780022 0 -3.3531 -2.72873 -0.0779311 -0.233864 -0.0780022 -0.155933 -0.0780022 0 -0.389869 0.0780022 -0.0780022 0.155933 -0.0779311 3.11845 -0.0780022 0 -4.13291 -4.98958 0 -0.233864 0.0780022z"/>
   <path id="_174734560" class="fil1" d="M15.5145 21.8341c0,-3.52652 2.77544,-6.16032 6.23698,-6.16032l0.935529 0c1.5481,0 3.39114,1.0077 4.19064,1.81282 0.915619,0.921948 1.81247,2.39475 1.81247,4.19157l0 0.545873c0,3.79182 -2.81995,6.6282 -6.62677,6.6282 -3.7104,0 -6.54884,-2.81611 -6.54884,-6.55026l0 -0.467871zm5.37938 -6.55019l-0.623733 0.0779311 -0.233864 0.0780022 -0.233864 0.0780022 -0.389798 0.0779311 -0.155933 0.0780022 -0.155933 0.0780022 -0.0780022 0.0779311 -0.311795 0.0780022 -0.155933 0.0780022 -0.0780022 0.0779311 -0.233864 0.0780022 -0.0779311 0.0780022 -0.155933 0.0779311 -0.0780022 0.0780022 -0.155933 0.0780022 -0.0779311 0.0780022 -0.0780022 0.0779311 -0.155862 0.0780022 -0.0780022 0.0780022 -0.0779311 0.0779311 -0.155933 0.0780022 0 0.155933 -0.155933 0 -0.0779311 0.0780022 -0.0780022 0.0780022 -0.0779311 0.0779311 -0.0780022 0.0780022 -0.0779311 0.0780022 -0.0780022 0.155933 -0.0779311 0.0780022 -0.0780022 0.0779311 -0.0779311 0.156004 -0.0779311 0.0779311 -0.0780022 0.0780022 -0.0779311 0.155933 -0.0780022 0.156004 -0.0779311 0.0779311 -0.0780022 0.0780022 -0.0779311 0.233935 -0.0780022 0.155933 -0.0779311 0.0780022 -0.0779311 0.311938 -0.0780022 0.155933 -0.0779311 0.155933 -0.0780022 0.233935 -0.0779311 0.467871 -0.0780022 0.311938 -0.0779311 0.467871 0 1.79355 0.0779311 0.545802 0.0780022 0.311938 0.0779311 0.545873 0.0780022 0.155933 0.0779311 0.233935 0.0780022 0.155933 0.0779311 0.311938 0.0779311 0.0780022 0.0780022 0.155933 0.0779311 0.233935 0.0780022 0.156004 0.0779311 0.0779311 0.0780022 0.156004 0.0779311 0.155933 0.0780022 0.0780022 0.0779311 0.0779311 0.0779311 0.156004 0.0780022 0.0779311 0.0779311 0.156004 0.0780022 0.0779311 0.0779311 0.0780022 0.0780022 0.0780022 0.0779311 0.0779311 0.0780022 0.156004 0.0779311 0.0779311 0.155933 0 0 0.156004 0.0779311 0.0779311 0.155933 0.0780022 0.0780022 0.0780022 0.0779311 0.0779311 0.0779311 0.0780022 0.155933 0.0780022 0.0780022 0.0779311 0.0779311 0.0780022 0.233935 0.0780022 0.0779311 0.0779311 0.0779311 0.0780022 0.155933 0.0780022 0.155933 0.0779311 0.0780022 0.0780022 0.155933 0.0780022 0.233864 0.0779311 0.155933 0.0780022 0.155933 0.0780022 0.389798 0.0779311 0.155933 0.0780022 0.233864 0.0780022 0.311867 0.0779311 0.623662 0.0780022 1.87113 0 0.701664 -0.0780022 0.311867 -0.0779311 0.233864 -0.0780022 0.155933 -0.0780022 0.389798 -0.0779311 0.0779311 -0.0780022 0.233935 -0.0780022 0.233864 -0.0779311 0.0780022 -0.0780022 0.155862 -0.0780022 0.155933 -0.0779311 0.155933 -0.0780022 0.0780022 -0.0780022 0.155862 -0.0779311 0.0780022 -0.0780022 0.155933 -0.0780022 0.0779311 -0.0779311 0.155933 -0.0780022 0.0780022 -0.0780022 0.0779311 -0.0779311 0 -0.156004 0.155933 0 0.0779311 -0.0779311 0.0780022 -0.0780022 0.155933 -0.0780022 0.0779311 -0.155933 0.0780022 -0.0780022 0.0779311 -0.0779311 0.0779311 -0.0780022 0.0780022 -0.155933 0.0779311 -0.0780022 0.0780022 -0.0780022 0.0779311 -0.155933 0.0780022 -0.0780022 0.0779311 -0.0779311 0.0779311 -0.156004 0.0780022 -0.155933 0.0779311 -0.0780022 0.0780022 -0.155933 0.0779311 -0.233935 0.0780022 -0.0780022 0.0779311 -0.155933 0.0780022 -0.155933 0.0779311 -0.234007 0.0779311 -0.233935 0.0780022 -0.155933 0.0779311 -0.467871 0.0780022 -0.311938 0.0779311 -0.389869 0 -2.49529 -0.0779311 -0.38994 -0.0780022 -0.311938 -0.0779311 -0.389869 -0.0780022 -0.155933 -0.0779311 -0.156004 -0.0779311 -0.233935 -0.0780022 -0.155933 -0.0779311 -0.155933 -0.0780022 -0.0780022 -0.0779311 -0.233935 -0.0780022 -0.155933 -0.0779311 -0.0780022 -0.0780022 -0.155933 -0.0779311 -0.156004 -0.155933 0 0 -0.155933 -0.0779311 -0.155933 -0.155933 0 0 -0.156004 -0.0780022 -0.0779311 -0.0779311 -0.0780022 -0.0779311 -0.0780022 -0.0780022 -0.0779311 -0.0779311 -0.0780022 -0.0780022 -0.0780022 -0.0779311 -0.0779311 -0.0780022 -0.0780022 -0.0779311 -0.0780022 -0.155933 0 0 -0.155933 -0.155933 -0.0780022 -0.155933 0 0 -0.155933 -0.155933 -0.0780022 -0.155933 -0.0780022 -0.0779311 -0.0779311 -0.155933 -0.0780022 -0.233864 -0.0780022 -0.0780022 -0.0779311 -0.155862 -0.0780022 -0.233935 -0.0780022 -0.155933 -0.0779311 -0.155933 -0.0780022 -0.155862 -0.0780022 -0.389869 -0.0779311 -0.233864 -0.0780022 -0.233864 -0.0780022 -0.623733 -0.0779311 -0.701664 -0.0780022 -1.01353 0 -0.623662 0.0780022z"/>
   <path id="_174734488" class="fil1" d="M75.3117 19.6507c0,-1.90519 1.98483,-3.9769 3.89812,-3.9769l0.701664 0c0.463818,0 0.586901,0.146476 1.01353,0.155933l0 3.3531c-0.174847,-0.0407432 -0.179256,-0.0779311 -0.389798,-0.0779311l-0.233935 0c-0.62288,0 -1.09146,0.666538 -1.09146,1.32561 0,0.807326 1.40333,2.29442 1.40333,3.4311l0 1.32561c0,0.83911 -0.973499,2.21649 -1.51219,2.62043 -0.779169,0.584199 -1.69109,1.0446 -3.00959,1.0446l-0.155933 0c-0.392855,0 -1.40333,-0.228887 -1.40333,-0.545873l0 -3.11916c0.459196,0.0382545 0.162546,0.156004 0.467729,0.156004l0.623733 0c0.574244,0 1.09146,-0.638025 1.09146,-1.24768 0,-0.66597 -1.40333,-2.12142 -1.40333,-4.44485zm3.43039 -4.36677l-0.545731 0.0779311 -0.155933 0.0780022 -0.155933 0.0780022 -0.311867 0.0779311 -0.155933 0.0780022 -0.0779311 0.0780022 -0.155933 0.0779311 -0.155933 0.0780022 -0.0780022 0.0780022 -0.0779311 0.0779311 -0.155933 0.0780022 -0.0779311 0.0780022 -0.0780022 0.0779311 -0.155933 0.0780022 -0.0779311 0.0780022 -0.0779311 0.155933 -0.155933 0.0780022 -0.0780022 0.155933 -0.0779311 0.0780022 -0.0780022 0.0780022 -0.0779311 0.0779311 -0.0780022 0.156004 -0.0779311 0.0779311 -0.0779311 0.0780022 -0.0780022 0.233935 -0.0779311 0.0780022 -0.0780022 0.155933 -0.0779311 0.233935 -0.0780022 0.155933 -0.0779311 0.156004 -0.0780022 0.233935 -0.0779311 0.545802 0 1.63762 0.0779311 0.545802 0.0780022 0.233935 0.0779311 0.156004 0.0780022 0.233935 0.0779311 0.233935 0.0780022 0.155933 0.0779311 0.155933 0.0780022 0.233935 0.0779311 0.156004 0.0779311 0.0779311 0.0780022 0.156004 0.0779311 0.155933 0.0780022 0.155933 0.0779311 0.0780022 0.0780022 0.155933 0.0779311 0.156004 0.0780022 0.155933 0 0.233935 -0.0780022 0.155933 -0.0779311 0.156004 -0.0780022 0.0779311 -0.0779311 0.0780022 -0.0780022 0.0780022 -1.01346 0 -0.0780022 -0.0780022 -0.155933 -0.0780022 -0.155933 -0.0779311 -0.155862 -0.0780022 -0.155933 0 0 4.28884 0.0779311 0.0780022 0.233864 0.0779311 0.155933 0.0780022 0.155933 0.0780022 0.233864 0.0779311 0.4678 0.0780022 1.48126 0 0.545802 -0.0780022 0.233864 -0.0779311 0.155933 -0.0780022 0.155933 -0.0780022 0.311795 -0.0779311 0.155933 -0.0780022 0.0780022 -0.0780022 0.155933 -0.0779311 0.155862 -0.0780022 0.0780022 -0.0780022 0.155933 -0.0779311 0.155933 -0.0780022 0.0779311 -0.155933 0.155933 -0.0780022 0.0779311 -0.0780022 0.0780022 -0.0779311 0.0779311 -0.0780022 0.0780022 -0.0780022 0.0779311 -0.0779311 0.0780022 -0.0780022 0.0779311 -0.0780022 0.0780022 -0.155933 0.0779311 -0.0780022 0.0779311 -0.0779311 0.0780022 -0.156004 0.0779311 -0.155933 0.0780022 -0.0780022 0.0779311 -0.155933 0.0780022 -0.233935 0.0779311 -0.155933 0.0779311 -0.156004 0.0780022 -0.155933 0.0779311 -0.467871 0.0780022 -0.389869 0 -1.24768 -0.0780022 -0.38994 -0.0779311 -0.467871 -0.0780022 -0.155933 -0.0779311 -0.155933 -0.0779311 -0.156004 -0.0780022 -0.233935 -0.0779311 -0.155933 -0.0780022 -0.155933 -0.0779311 -0.156004 -0.0780022 -0.155933 -0.0779311 -0.0780022 -0.0779311 -0.155933 -0.0780022 -0.155933 -0.0779311 -0.0780022 -0.0780022 -0.155933 -0.0779311 -0.156004 -0.0780022 -0.155933 -0.0779311 -0.311938 0 -0.155933 0.0779311 -0.233935 0.0780022 -0.156004 0.0779311 -0.0779311 0.0780022 -0.0780022 0.155933 -0.0780022 0.233864 -0.0779311 0.233864 0 0.155933 0.0779311 0.311867 0.0780022 0.311867 0 0 -4.13291 -0.0780022 -0.0779311 -0.155933 -0.0780022 -0.233864 -0.0780022 -0.545731 -0.0779311 -0.545731 -0.0780022 -0.545731 0 -0.545731 0.0780022z"/>
  </g>
 </g>
</svg>
