<?xml version="1.0" encoding="UTF-8"?>
<!DOCTYPE svg PUBLIC "-//W3C//DTD SVG 1.1//EN" "http://www.w3.org/Graphics/SVG/1.1/DTD/svg11.dtd">
<!-- Creator: CorelDRAW -->
<svg xmlns="http://www.w3.org/2000/svg" xml:space="preserve" width="114.468mm" height="41.1252mm" style="shape-rendering:geometricPrecision; text-rendering:geometricPrecision; image-rendering:optimizeQuality; fill-rule:evenodd; clip-rule:evenodd"
viewBox="0 0 67.9229 24.4027"
 xmlns:xlink="http://www.w3.org/1999/xlink">
 <defs>
  <style type="text/css">
   <![CDATA[
    .fil1 {fill:#72CDD6}
    .fil0 {fill:#FDFDFD}
   ]]>
  </style>
 </defs>
 <g id="Capa_x0020_1">
  <metadata id="CorelCorpID_0Corel-Layer"/>
  <g id="_174734344">
   <path id="_145099624" class="fil0" d="M17.1759 10.0865l2.86269 0 0 -7.09305 0.520451 0c0.881876,0 2.01689,1.18598 2.01689,2.21252l0 0.390442c0,1.04873 -0.921633,1.87264 -1.82173,2.08234l0 2.34265c1.29677,0 2.30752,-0.648383 2.97661,-1.31765 0.557655,-0.557774 1.38245,-1.86575 1.38245,-2.91211l0 -0.976105c0,-1.12789 -0.919971,-2.31607 -1.51204,-2.91265 -0.651053,-0.656037 -1.87477,-1.25208 -3.17231,-1.25208l-3.25301 0 0 9.4357z"/>
   <path id="_146152232" class="fil1" d="M52.959 6.7677l0 -6.18203 2.60243 0 0 6.05185c0,0.689682 0.542821,0.91107 1.23612,0.91107l0 2.53787 -0.715672 0c-1.92212,0 -3.12288,-1.35949 -3.12288,-3.31876zm-0.325289 0.650756l0.0650934 0.585663 0.0650341 0.195221 0.0650341 0.130127 0.0650934 0.260314 0.0650341 0.0650341 0.0650934 0.130187 0.0650341 0.0650341 0.0650934 0.130187 0.0650341 0.0650341 0.0650934 0.0650934 0.0650341 0.130127 0.0650341 0.0650934 0.0650934 0.0650934 0.0650341 0.0650341 0.0650934 0.0650934 0.0650341 0.0650934 0.130127 0 0 0.130127 0.0650341 0.0650934 0.130127 0.0650341 0.0650934 0.0650934 0.130127 0.0650934 0.0650341 0.0650341 0.195162 0.0650934 0.0650934 0.0650934 0.195162 0.0650934 0.260255 0.0650341 0.195162 0.0650934 0.260255 0.0650934 1.6916 0 0 -3.25372 -0.715672 -0.0650934 -0.260255 -0.0650341 -0.0650934 -0.0650934 -0.0650341 -0.130127 -0.0650341 -0.19528 -0.0650934 -6.3772 -3.25301 0 0 7.15814z"/>
   <path id="_145099696" class="fil1" d="M22.1205 5.98681l-0.0650934 0.130127 -0.0650341 0.195221 0 0.130127 -0.130127 0 -0.0650934 0.130187 -0.0650341 0.0650341 -0.0650341 0.0650934 -0.0650934 0.0650934 0 0.130127 -0.130127 0 -0.0650341 0.0650934 -0.0650934 0.0650934 -0.130068 0.0650341 -0.0650934 0.0650934 -0.195162 0.0650934 -0.195221 0.0650341 -0.195162 0.0650934 -0.130127 0.0650934 -0.0644407 -4.04279 0.38973 0.073282 0.195221 0.0650341 0.0650341 0.0650934 0.195221 0.0650934 0.0650341 0.0650341 0.0650341 0.0650934 0.130127 0.0650934 0.130127 0 0 0.130127 0.0650934 0.0650934 0.0650341 0.0650341 0.0650341 0.130187 0.0650934 0.0650341 0.0650341 0.0650934 0.0650934 0.0650934 0.0650341 0.195221 0.0650934 0.130127 0.0650341 0.195221 0 0.780884 -0.0650341 0.260314zm-4.94461 -5.33606l3.25301 0c1.29754,0 2.52126,0.596047 3.17231,1.25208 0.592071,0.596581 1.51204,1.78476 1.51204,2.91265l0 0.976105c0,1.04636 -0.824793,2.35434 -1.38245,2.91211 -0.669091,0.669269 -1.67985,1.31765 -2.97661,1.31765l0 -2.34265c0.900093,-0.209699 1.82173,-1.0336 1.82173,-2.08234l0 -0.390442c0,-1.02654 -1.13501,-2.21252 -2.01689,-2.21252l-0.520451 0 0 7.09305 -2.86269 0 0 -9.4357zm-0.325289 9.7611l4.16384 0 0.390382 -0.0650934 0.260255 -0.0650934 0.390323 -0.0650341 0.130127 -0.0650934 0.130127 -0.0650934 0.195162 -0.0650934 0.195221 -0.0650341 0.0650341 -0.0650934 0.130127 -0.0650934 0.130127 -0.0650341 0.130127 -0.0650934 0.0650341 -0.0650934 0.130127 -0.0650341 0.0650341 -0.0650934 0.0650934 -0.0650934 0.0650341 -0.0650341 0.130127 -0.0650934 0.0650934 -0.0650934 0.0650341 -0.0650341 0.0650934 -0.0650934 0.0650341 -0.0650934 0.0650341 -0.0650341 0.0650934 -0.0650934 0.0650341 -0.0650934 0.0650934 -0.0650341 0.0650341 -0.0650934 0.0650934 -0.0650934 0.0650341 -0.0650341 0.0650934 -0.130187 0.0650341 -0.0650341 0.0650341 -0.130187 0.0650934 -0.0650341 0.0650341 -0.0650934 0.0650934 -0.130127 0.0650341 -0.130187 0.0650934 -0.0650341 0.0650341 -0.195221 0.0650341 -0.130187 0.0650934 -0.130127 0.0650341 -0.130127 0.0650934 -0.260314 0.0650341 -0.195221 0.0650934 -0.195221 0.0650341 -0.520629 0.0650934 -0.455476 0 -0.780884 -0.0650934 -0.390442 -0.0650341 -0.390442 -0.0650934 -0.195221 -0.0650341 -0.130187 -0.0650934 -0.260255 -0.0650341 -0.130187 -0.0650934 -0.130127 -0.0650341 -0.130187 -0.0650341 -0.130127 -0.0650934 -0.0650934 -0.0650341 -0.130127 -0.0650934 -0.130127 -0.0650341 -0.130187 -0.130127 0 0 -0.195221 -0.0650341 -0.0650341 -0.0650934 -0.0650934 -0.0650341 -0.0650934 -0.0650934 -0.0650341 -0.0650341 -0.0650934 -0.0650934 -0.0650934 -0.0650341 -0.0650341 -0.0650934 -0.0650934 -0.0650341 -0.0650934 -0.0650341 -0.0650341 -0.0650934 -0.0650934 -0.0650341 -0.0650934 -0.0650934 -0.0650341 -0.0650341 -0.0650934 -0.130127 -0.0650934 -0.0650934 -0.0650341 -0.0650341 -0.0650934 -0.130127 -0.0650934 -0.130127 -0.0650341 -0.0650341 -0.0650934 -0.0650934 -0.0650934 -0.195162 -0.0650341 -0.130127 -0.0650934 -0.130127 -0.0650934 -0.130127 -0.0650341 -0.195162 -0.0650934 -0.130127 -0.0650934 -0.195162 -0.0650341 -0.390382 -0.0650934 -0.325289 -0.0650934 -0.650578 -0.0650341 -3.64339 0 0 10.1515z"/>
   <path id="_146152352" class="fil0" d="M26.8048 3.25372l0 4.62021c0,1.10872 1.49964,2.21252 2.79759,2.21252l2.4723 0 0 -2.53787 -2.21205 0c-0.321551,0 -0.585544,-0.264053 -0.585544,-0.585663l0 -0.0650934c0,-0.268384 0.218719,-0.585663 0.455417,-0.585663l2.14701 0 0 -1.88712 -1.82173 0c-0.157898,0 -0.585544,-0.332944 -0.585544,-0.520629l0 -0.195221c0,-0.32161 0.263993,-0.585663 0.585544,-0.585663l2.01689 0 0 -2.53787 -2.60243 0c-1.48659,0 -2.66747,1.11401 -2.66747,2.66806z"/>
   <path id="_146152640" class="fil0" d="M36.2385 2.79819l0 7.28827 2.60243 0 0 -6.57248c0,-0.190177 0.324221,-0.455535 0.520451,-0.455535 0.32161,0 0.585544,0.264053 0.585544,0.585722l0 6.44229 2.60243 0 0 -6.44229c0,-0.321669 0.263993,-0.585722 0.585544,-0.585722l0.0650341 0c0.181217,0 0.455417,0.274318 0.455417,0.455535l0 6.57248 2.60243 0 0 -6.57248c0,-1.09258 -0.11292,-1.4851 -0.603167,-2.12981 -0.317694,-0.417796 -1.04808,-0.993728 -1.73901,-0.993728l-0.390323 0c-0.502827,0 -1.10226,0.259662 -1.41977,0.467047 -0.530063,0.346235 -0.666896,0.842417 -0.922404,1.02963 -0.445863,-0.842713 -1.05241,-1.49667 -2.34218,-1.49667l-0.260255 0c-1.08819,0 -2.34218,1.27813 -2.34218,2.40774z"/>
   <polygon id="_145099504" class="fil0" points="48.2747,10.0865 50.9422,10.0865 50.9422,0.585663 48.2747,0.585663 "/>
   <path id="_146151800" class="fil0" d="M52.959 6.7677c0,1.95927 1.20076,3.31876 3.12288,3.31876l0.715672 0 0 -2.53787c-0.693301,0 -1.23612,-0.221389 -1.23612,-0.91107l0 -6.05185 -2.60243 0 0 6.18203z"/>
   <path id="_146151464" class="fil1" d="M26.8048 3.25372c0,-1.55405 1.18088,-2.66806 2.66747,-2.66806l2.60243 0 0 2.53787 -2.01689 0c-0.321551,0 -0.585544,0.264053 -0.585544,0.585663l0 0.195221c0,0.187685 0.427647,0.520629 0.585544,0.520629l1.82173 0 0 1.88712 -2.14701 0c-0.236698,0 -0.455417,0.317278 -0.455417,0.585663l0 0.0650934c0,0.32161 0.263993,0.585663 0.585544,0.585663l2.21205 0 0 2.53787 -2.4723 0c-1.29795,0 -2.79759,-1.1038 -2.79759,-2.21252l0 -4.62021zm1.82173 -2.92837l-0.195221 0.0650934 -0.195162 0.0650934 -0.195162 0.0650341 -0.0650934 0.0650934 -0.130127 0.0650934 -0.0650341 0.0650341 -0.130127 0.0650934 -0.0650341 0.0650934 -0.130127 0.0650341 -0.0650934 0.0650934 -0.0650341 0.0650934 -0.0650934 0.0650341 -0.0650341 0.0650934 -0.0650341 0.0650934 -0.0650934 0.0650341 -0.0650341 0.130187 -0.0650934 0.0650341 -0.0650341 0.0650934 -0.0650934 0.130127 -0.0650341 0.130187 -0.0650934 0.0650341 -0.0650341 0.195221 -0.0650341 0.130187 -0.0650934 0.195221 -0.0650341 0.260255 0 5.27102 0.0650341 0.260314 0.0650934 0.195221 0.0650341 0.130127 0.0650341 0.195221 0.0650934 0.130127 0.0650341 0.0650934 0.0650934 0.195221 0.0650341 0.0650934 0.0650934 0.0650341 0.0650341 0.0650934 0.0650934 0.130127 0.0650341 0.0650934 0.0650341 0.0650934 0.0650934 0.0650341 0.130127 0.0650934 0.0650341 0.0650934 0.0650934 0.0650341 0.130127 0.0650934 0.0650341 0.0650934 0.0650341 0.0650341 0.195221 0.0650934 0.0650341 0.0650934 0.130127 0.0650934 0.260255 0.0650341 0.195162 0.0650934 0.260255 0.0650934 3.44817 0 0 -3.18863 -2.53734 -0.0650934 -0.130127 -0.0650934 -0.0650341 -0.130127 0 -0.130127 0 -0.130187 0.325289 0 2.21205 -0.0650934 0 -2.60291 -2.08192 -0.0650934 -0.260255 0 0 -0.130127 -0.0650341 -0.260314 0.130068 0 0.130127 -0.0650934 2.34218 -0.0650341 0 -3.18863 -3.51326 0 -0.260196 0.0650341z"/>
   <path id="_145099552" class="fil1" d="M36.2385 2.79819c0,-1.12961 1.25398,-2.40774 2.34218,-2.40774l0.260255 0c1.28976,0 1.89631,0.65396 2.34218,1.49667 0.255508,-0.18721 0.392341,-0.683392 0.922404,-1.02963 0.317516,-0.207385 0.916945,-0.467047 1.41977,-0.467047l0.390323 0c0.690928,0 1.42131,0.575931 1.73901,0.993728 0.490248,0.644704 0.603167,1.03722 0.603167,2.12981l0 6.57248 -2.60243 0 0 -6.57248c0,-0.181217 -0.274199,-0.455535 -0.455417,-0.455535l-0.0650341 0c-0.321551,0 -0.585544,0.264053 -0.585544,0.585722l0 6.44229 -2.60243 0 0 -6.44229c0,-0.321669 -0.263934,-0.585722 -0.585544,-0.585722 -0.19623,0 -0.520451,0.265358 -0.520451,0.455535l0 6.57248 -2.60243 0 0 -7.28827zm1.88676 -2.73309l-0.195162 0.0650341 -0.130127 0.0650934 -0.195221 0.0650934 -0.130068 0.0650341 -0.0650934 0.0650934 -0.195162 0.0650934 -0.0650934 0.0650341 -0.0650341 0.0650934 -0.0650934 0.0650934 -0.130068 0.0650341 -0.0650934 0.0650934 0 0.130127 -0.130127 0 -0.0650341 0.0650934 -0.0650934 0.0650934 -0.0650341 0.0650341 -0.0650341 0.0650934 -0.0650934 0.130127 -0.0650341 0.130187 -0.0650934 0.0650341 -0.0650341 0.0650934 -0.0650934 0.195221 -0.0650341 0.195221 -0.0650934 0.130127 -0.0650341 0.195221 0 8.1343 3.25301 0 0.0650341 -6.7677 0.0650934 -0.130187 0.0650341 -0.0650341 0.0650934 0 0.0650341 0.0650341 0.0650934 0.130187 0.0650341 6.7677 3.25301 0 0.0650934 -6.7677 0.0650341 -0.130187 0.195162 0 0.0650934 0.0650934 0.0650341 6.83279 3.25301 0 0 -8.06921 -0.0650341 -0.195221 -0.0650934 -0.130127 -0.0650341 -0.195221 -0.0650934 -0.195221 -0.0650341 -0.0650934 -0.0650341 -0.0650934 -0.0650934 -0.130127 -0.0650341 -0.130127 -0.0650934 -0.0650934 -0.0650341 -0.0650934 -0.0650934 -0.130127 -0.0650341 -0.0650934 -0.130127 0 0 -0.130127 -0.0650341 -0.0650934 -0.130127 -0.0650341 -0.0650934 -0.0650934 -0.0650341 -0.0650934 -0.130127 -0.0650341 -0.130127 -0.0650934 -0.0650341 -0.0650934 -0.130127 -0.0650341 -0.260255 -0.0650934 -0.130127 -0.0650934 -0.195162 -0.0650341 -0.325289 -0.0650934 -0.780765 0 -0.325289 0.0650934 -0.130127 0.0650341 -0.195162 0.0650934 -0.195162 0.0650934 -0.130127 0.0650341 -0.130127 0.0650934 -0.130127 0.0650934 -0.0650934 0.0650341 -0.0650341 0.0650934 -0.0650341 0.0650934 -0.130127 0.0650341 -0.0650934 0.0650934 -0.0650341 0.0650934 -0.0650934 0.0650341 -0.0650341 0.0650934 -0.0650341 0.0650934 -0.0650934 0.0650341 -0.0650341 0 -0.0650934 -0.0650341 -0.0650341 -0.130187 -0.130127 -0.0650341 -0.0650934 -0.0650934 -0.0650341 -0.0650934 -0.0650341 -0.0650341 -0.0650934 -0.0650934 -0.0650341 -0.0650934 -0.0650934 -0.0650341 -0.130127 -0.0650934 -0.130127 -0.0650934 -0.130068 -0.0650341 -0.195221 -0.0650934 -0.195162 -0.0650934 -0.195162 -0.0650341 -0.325348 -0.0650934 -0.780706 0 -0.325289 0.0650934z"/>
   <path id="_146152952" class="fil1" d="M48.2747 0.585663l2.66747 0 0 9.50079 -2.66747 0 0 -9.50079zm-0.325348 9.8262l3.3181 0 0 -10.1515 -3.3181 0 0 10.1515z"/>
   <path id="_146153096" class="fil1" d="M3.44817 18.3509l0 0.585663c0,0.979546 1.16919,2.0173 2.21205,2.0173l0.390382 0c1.10362,0 2.14696,-1.01817 2.14696,-2.0824l0.781418 -0.0157838 2.27643 0.0808772 0 0.260255c0,1.24846 -0.949759,2.67364 -1.61031,3.33495 -0.722021,0.722851 -2.05112,1.54563 -3.46437,1.54563l-0.585544 0c-2.64741,0 -5.2699,-2.60184 -5.2699,-5.20593l0 -0.390442c0,-2.73113 2.4942,-5.40115 5.13977,-5.40115l0.780706 0c1.24039,0 2.60362,0.797083 3.30137,1.38328 0.83583,0.702321 1.42013,1.80475 1.70732,3.02741l-3.18697 0.209581c-0.170833,-0.733235 -1.14866,-1.56177 -2.08198,-1.56177 -1.3567,0 -2.53734,0.905077 -2.53734,2.21252zm1.56147 -5.59637l-0.52051 0.0650341 -0.260196 0.0650934 -0.130127 0.0650934 -0.325289 0.0650341 -0.0650934 0.0650934 -0.195162 0.0650934 -0.0650934 0.0650341 -0.195162 0.0650934 -0.130127 0.0650934 -0.0650341 0.0650341 -0.195221 0.0650934 -0.0650341 0.0650934 -0.130127 0.0650341 -0.130127 0.0650934 -0.0650341 0.0650934 -0.0650934 0.0650934 -0.0650341 0.0650341 -0.130127 0.0650934 -0.0650341 0.0650934 -0.0650934 0.0650341 -0.130127 0.0650934 -0.0650341 0.0650934 -0.0650934 0.0650341 -0.0650341 0.0650934 -0.0650934 0.0650934 -0.0650341 0.0650341 -0.0650341 0.0650934 -0.0650934 0.0650934 -0.0650341 0.130127 -0.130127 0.0650934 -0.0650934 0.130127 0 0.130127 -0.130127 0 -0.0650341 0.130187 -0.0650341 0.0650341 -0.0650934 0.130187 -0.0650341 0.0650341 -0.0650934 0.130187 -0.0650341 0.130127 -0.0650934 0.0650934 -0.0650341 0.195221 -0.0650341 0.130127 -0.0650934 0.0650934 -0.0650341 0.130127 -0.0650934 0.260314 -0.0650341 0.130127 -0.0650934 0.130127 -0.0650341 0.325408 -0.0650934 0.260314 -0.0650341 0.325348 0 1.69189 0.0650341 0.325408 0.0650934 0.260255 0.0650341 0.325408 0.0650934 0.195221 0.0650341 0.130127 0.0650934 0.195221 0.0650341 0.195221 0.0650934 0.0650934 0.0650341 0.130127 0.0650341 0.195221 0.0650934 0.0650934 0.0650341 0.0650934 0.0650934 0.195221 0.0650341 0.0650341 0.0650934 0.0650934 0.0650341 0.130127 0.0650341 0.130187 0.130127 0 0 0.130127 0.0650934 0.0650934 0.0650341 0.0650341 0.0650934 0.0650934 0.0650341 0.130127 0.0650934 0.0650934 0.0650341 0.0650934 0.0650341 0.0650341 0.0650934 0.0650934 0.130127 0.0650934 0.0650341 0.0650341 0.0650934 0.0650934 0.0650341 0.0650934 0.0650934 0.0650341 0.0650341 0.0650934 0.130127 0.0650934 0.0650341 0.0650341 0.0650934 0.0650934 0.130127 0.0650934 0.0650341 0.0650341 0.130127 0.0650934 0.0650341 0.0650934 0.195221 0.0650341 0.0650341 0.0650934 0.130127 0.0650934 0.195162 0.0650341 0.130127 0.0650934 0.130127 0.0650934 0.260255 0.0650341 0.130127 0.0650934 0.195162 0.0650934 0.195162 0.0650341 0.585544 0.0650934 1.6916 0 0.520451 -0.0650934 0.195221 -0.0650341 0.195162 -0.0650934 0.130127 -0.0650934 0.260255 -0.0650341 0.130068 -0.0650934 0.0650934 -0.0650934 0.195162 -0.0650341 0.130127 -0.0650934 0.0650934 -0.0650934 0.130068 -0.0650341 0.130127 -0.0650934 0.0650934 -0.0650934 0.0650341 -0.0650341 0.195221 -0.0650934 0.0650341 -0.0650934 0.0650341 -0.0650341 0.130127 -0.0650934 0.0650934 -0.0650934 0.0650341 -0.0650341 0.0650934 -0.0650934 0.0650341 -0.0650934 0.0650341 -0.0650341 0.0650934 -0.0650934 0.0650341 -0.0650934 0.130127 -0.0650341 0.0650934 -0.130187 0.0650341 -0.0650341 0.0650934 -0.0650934 0.0650341 -0.0650934 0.0650341 -0.0650341 0.0650934 -0.130187 0.0650341 -0.0650341 0.0650934 -0.0650934 0.0650341 -0.130127 0.0650934 -0.0650934 0.0650341 -0.130127 0.0650934 -0.130187 0.0650341 -0.130127 0.0650341 -0.0650934 0.0650934 -0.130127 0.0650341 -0.195221 0.0650934 -0.130127 0.0650341 -0.130187 0.0650934 -0.260314 0.0650341 -0.195221 0.0650341 -0.130127 0.0650934 -0.260314 0.0650341 -0.390442 0.0650934 -0.260255 0.0650341 -0.325408 0 -0.455476 -2.99275 -0.0650934 -0.780706 0 -0.0650934 0.325348 -0.0650341 0.195221 -0.0650934 0.195221 -0.0650341 0.130187 -0.0650341 0.260255 -0.0650934 0.0650934 -0.0650341 0.0650934 -0.0650934 0.130127 -0.0650341 0.0650934 -0.0650934 0.0650341 0 0.130187 -0.130127 0 -0.0650341 0.0650341 -0.0650341 0.0650934 -0.130127 0.0650934 -0.0650934 0.0650341 -0.130127 0.0650934 -0.260196 0.0650934 -0.260255 0.0650341 -0.650637 0 -0.260196 -0.0650341 -0.195221 -0.0650934 -0.130127 -0.0650934 -0.130068 -0.0650341 -0.130127 -0.0650934 -0.0650934 -0.0650934 -0.0650341 -0.0650341 -0.130127 -0.0650934 -0.0650934 -0.0650934 -0.0650341 -0.0650341 -0.0650341 -0.130187 -0.0650934 -0.0650341 -0.0650341 -0.0650934 -0.0650934 -0.130127 -0.0650341 -0.195221 -0.0650934 -0.130187 -0.0650341 -0.195221 0 -0.845918 0.0650341 -0.195221 0.0650934 -0.130187 0.0650341 -0.195221 0.0650934 -0.130127 0.0650341 -0.0650934 0.0650934 -0.0650341 0.0650341 -0.130187 0.0650341 -0.0650934 0.0650934 -0.0650341 0.0650341 -0.0650934 0.0650934 -0.0650934 0.130127 -0.0650341 0.0650341 -0.0650934 0.130127 -0.0650934 0.0650341 -0.0650341 0.130127 -0.0650934 0.325348 -0.0650934 0.910833 0 0.325289 0.0650934 0.130127 0.0650934 0.0650341 0.0650341 0.0650934 0.0650934 0.130127 0.0650934 0.0650341 0.0650341 0.0650341 0.0650934 0.0650934 0.0650934 0.0650341 0.0650341 0.0650934 0.0650934 0.0650341 0.0650934 0.0650934 0.130127 0.0650341 0.0650934 0.0650934 0.0650934 0.0650341 0.195221 0.0650341 0.130127 0.0650934 0.0650934 0.0650341 0.130127 0.325289 0 0.780765 -0.0650934 1.43128 -0.0650341 0.845799 -0.0650934 0.455417 -0.0650934 0 -0.195221 -0.0650341 -0.195221 -0.0650934 -0.195221 -0.0650341 -0.390442 -0.0650934 -0.130127 -0.0650341 -0.195221 -0.0650341 -0.130187 -0.0650934 -0.260255 -0.0650341 -0.130187 -0.0650934 -0.130127 -0.0650341 -0.130127 -0.0650934 -0.130187 -0.0650341 -0.0650341 -0.0650341 -0.130187 -0.0650934 -0.130127 -0.0650341 -0.0650934 -0.0650934 -0.0650341 -0.0650341 -0.130187 -0.0650934 -0.0650341 -0.0650341 -0.0650934 -0.0650934 -0.0650934 -0.0650341 -0.130127 -0.0650341 -0.0650934 -0.0650934 -0.0650341 -0.0650341 -0.0650934 -0.0650934 -0.0650934 -0.0650341 -0.0650341 -0.0650934 -0.0650934 -0.0650341 -0.0650934 -0.0650934 -0.0650341 -0.0650341 -0.0650934 -0.130127 -0.0650934 -0.0650341 -0.0650341 -0.0650934 -0.0650934 -0.130127 -0.0650934 -0.0650341 -0.0650341 -0.0650341 -0.0650934 -0.0650934 -0.0650934 -0.130127 -0.0650934 -0.130127 -0.0650341 -0.0650341 -0.0650934 -0.195162 -0.0650934 -0.0650934 -0.0650341 -0.130127 -0.0650934 -0.195162 -0.0650934 -0.0650934 -0.0650341 -0.195162 -0.0650934 -0.130127 -0.0650934 -0.260196 -0.0650341 -0.195221 -0.0650934 -0.195162 -0.0650934 -0.52051 -0.0650341 -0.585544 -0.0650934 -0.520451 0 -0.585544 0.0650934z"/>
   <path id="_145099096" class="fil0" d="M44.306 23.8171l2.92772 0 0 -7.87393 1.10599 0c0.469064,0 0.910833,0.327663 0.910833,0.780884l0 0.325348c0,0.552315 -0.646246,0.845977 -1.23612,0.845977l0 2.40774c0,0.371691 1.41396,3.51398 1.6265,3.51398l2.89633 -0.0140037 -1.79034 -4.41104c0.577355,-0.154159 1.43134,-1.60787 1.43134,-2.40774l0 -0.195221c0,-1.8206 -1.54681,-3.44888 -3.31804,-3.44888l-4.55422 0 0 10.4769z"/>
   <path id="_146152112" class="fil0" d="M3.44817 18.3509c0,-1.30745 1.18064,-2.21252 2.53734,-2.21252 0.933322,0 1.91115,0.828532 2.08198,1.56177l3.18697 -0.209581c-0.287194,-1.22265 -0.871492,-2.32509 -1.70732,-3.02741 -0.697752,-0.586197 -2.06097,-1.38328 -3.30137,-1.38328l-0.780706 0c-2.64557,0 -5.13977,2.67002 -5.13977,5.40115l0 0.390442c0,2.60409 2.62249,5.20593 5.2699,5.20593l0.585544 0c1.41325,0 2.74235,-0.822776 3.46437,-1.54563 0.660547,-0.661318 1.61031,-2.08649 1.61031,-3.33495l0 -0.260255 -2.27643 -0.0808772 -0.781418 0.0157838c0,1.06422 -1.04333,2.0824 -2.14696,2.0824l-0.390382 0c-1.04286,0 -2.21205,-1.03776 -2.21205,-2.0173l0 -0.585663z"/>
   <path id="_174735208" class="fil0" d="M34.3518 18.6111l0 -0.520569c0,-0.333596 0.407472,-1.0857 0.600319,-1.28674 0.440523,-0.459036 0.598361,-0.465504 1.09371,-0.780528l1.03853 -0.145259 0.0650341 0c1.06565,0 2.4723,1.13566 2.4723,2.0824l0 0.976105c0,0.997703 -1.26027,2.27756 -2.21205,2.27756l-0.650578 0c-1.30709,0 -2.40727,-1.27374 -2.40727,-2.60297zm-2.86263 0.0650934c0,3.01358 2.43255,5.40115 5.46506,5.40115l0.130127 0c1.33694,0 2.7023,-0.567743 3.43162,-1.18788 0.443608,-0.37715 0.763557,-0.750028 1.09662,-1.24585 0.349261,-0.519798 0.504133,-1.24615 0.729497,-1.60235l0.142232 -1.36506 0 -1.23642c0,-0.270224 -0.529648,-1.52082 -0.649629,-1.75794 -0.269986,-0.533505 -0.674966,-0.906145 -1.08968,-1.31777 -0.697158,-0.691996 -2.19852,-1.28424 -3.59562,-1.28424l-0.455417 0c-3.16086,0 -5.2048,2.34817 -5.2048,5.59637z"/>
   <path id="_145098832" class="fil1" d="M31.4891 18.6762c0,-3.2482 2.04395,-5.59637 5.2048,-5.59637l0.455417 0c1.39711,0 2.89847,0.592249 3.59562,1.28424 0.414711,0.411625 0.81969,0.784266 1.08968,1.31777 0.119981,0.237113 0.649629,1.48771 0.649629,1.75794l0 1.23642 -0.142232 1.36506c-0.225364,0.356204 -0.380236,1.08256 -0.729497,1.60235 -0.333062,0.495825 -0.653011,0.868703 -1.09662,1.24585 -0.729319,0.620138 -2.09468,1.18788 -3.43162,1.18788l-0.130127 0c-3.03251,0 -5.46506,-2.38757 -5.46506,-5.40115zm4.48913 -5.92172l-0.520451 0.0650341 -0.195162 0.0650934 -0.195221 0.0650934 -0.260196 0.0650341 -0.195221 0.0650934 -0.130127 0.0650934 -0.130127 0.0650341 -0.195162 0.0650934 -0.0650341 0.0650934 -0.130127 0.0650341 -0.195221 0.0650934 -0.0650341 0.0650934 -0.0650341 0.0650341 -0.130127 0.0650934 -0.130127 0.0650934 -0.0650934 0.0650934 -0.0650341 0.0650341 -0.130127 0.0650934 -0.0650341 0.0650934 -0.0650934 0.0650341 -0.130127 0.0650934 -0.0650341 0.130127 -0.0650934 0.0650934 -0.130068 0.0650934 -0.0650934 0.130127 -0.0650341 0.0650934 -0.0650934 0.0650341 0 0.130187 -0.130127 0 -0.0650341 0.0650341 -0.0650934 0.130187 -0.0650341 0.0650341 -0.0650341 0.130187 -0.0650934 0.0650341 -0.0650341 0.130187 -0.0650934 0.130127 -0.0650341 0.0650934 -0.0650934 0.195221 -0.0650341 0.130127 -0.0650341 0.0650934 -0.0650934 0.195221 -0.0650341 0.195221 -0.0650934 0.195221 -0.0650341 0.130127 -0.0650934 0.455535 -0.0650341 0.325348 -0.0650934 0.650756 0 0.585663 0.0650934 0.650756 0.0650341 0.390442 0.0650934 0.455476 0.0650341 0.195221 0.0650934 0.195221 0.0650341 0.195221 0.0650934 0.19528 0.0650341 0.0650341 0.0650341 0.130187 0.0650934 0.195221 0.0650341 0.130127 0.0650934 0.0650934 0.0650341 0.195221 0.0650934 0.0650341 0.0650341 0.0650934 0.0650341 0.130127 0.0650934 0.130187 0.0650341 0.0650341 0.0650934 0.0650934 0.0650341 0.130127 0.0650934 0.0650934 0.0650341 0.0650934 0.0650934 0.0650341 0.0650341 0.0650934 0.0650341 0.0650934 0.0650934 0.0650341 0.0650341 0.0650934 0.0650934 0.0650934 0.0650341 0.0650341 0.0650934 0.0650934 0.0650341 0.0650934 0.130127 0.0650341 0.0650341 0.0650934 0.0650934 0.0650934 0.130127 0 0 0.130127 0.195162 0.0650934 0.0650341 0.0650341 0.0650934 0.0650934 0.130127 0.0650934 0.130127 0.0650341 0.130127 0.0650934 0.130068 0.0650934 0.195221 0.0650341 0.130127 0.0650934 0.130127 0.0650934 0.260196 0.0650341 0.195221 0.0650934 0.195162 0.0650934 0.195162 0.0650341 0.585544 0.0650934 1.56147 0 0.585544 -0.0650934 0.195162 -0.0650341 0.195162 -0.0650934 0.195221 -0.0650934 0.260196 -0.0650341 0.130127 -0.0650934 0.130127 -0.0650934 0.195221 -0.0650341 0.130068 -0.0650934 0.130127 -0.0650934 0.130127 -0.0650341 0.0650934 -0.0650934 0.0650341 -0.0650934 0.130127 -0.0650341 0.130127 -0.0650934 0.0650341 -0.0650934 0.0650934 -0.0650341 0.130127 -0.0650934 0.0650341 -0.0650934 0.0650341 -0.0650341 0.0650934 -0.0650934 0.130127 -0.0650934 0.0650341 -0.130127 0.130127 -0.0650934 0.0650934 -0.130127 0.130068 -0.0650934 0.0650934 -0.130127 0 -0.130127 0.130127 0 0.0650341 -0.0650934 0.0650934 -0.130127 0.0650341 -0.0650934 0.0650341 -0.130127 0.0650934 -0.130187 0.0650341 -0.0650341 0.0650934 -0.0650934 0.0650341 -0.130127 0.0650934 -0.195221 0.0650341 -0.130187 0.0650934 -0.0650341 0.0650341 -0.195221 0.0650341 -0.130187 0.0650934 -0.195221 0.0650341 -0.130127 0.0650934 -0.325408 0.0650341 -0.260255 0.0650934 -0.260314 0 -2.40774 -0.0650934 -0.325348 -0.0650341 -0.195221 -0.0650934 -0.325408 -0.0650341 -0.130127 -0.0650934 -0.130127 -0.0650341 -0.130187 -0.0650341 -0.195221 -0.0650934 -0.130127 -0.0650341 -0.0650934 -0.0650934 -0.195221 -0.0650341 -0.0650341 -0.0650934 -0.130187 -0.0650341 -0.0650341 -0.0650934 -0.130187 -0.0650341 -0.0650341 -0.0650341 -0.0650934 -0.0650934 -0.130127 -0.0650341 -0.0650934 -0.0650934 -0.0650934 -0.0650341 -0.0650341 -0.0650934 -0.130187 -0.0650341 -0.0650341 -0.130127 0 0 -0.130187 -0.130127 -0.0650341 -0.0650341 -0.0650934 -0.0650934 -0.0650934 -0.0650341 -0.0650341 -0.0650934 -0.0650934 -0.130068 -0.0650934 -0.0650934 -0.0650341 -0.0650341 -0.0650934 -0.130127 -0.0650934 -0.0650934 -0.0650934 -0.130127 -0.0650341 -0.130068 -0.0650934 -0.130127 -0.0650934 -0.0650934 -0.0650341 -0.130127 -0.0650934 -0.260196 -0.0650934 -0.0650934 -0.0650341 -0.195162 -0.0650934 -0.130127 -0.0650934 -0.325289 -0.0650341 -0.195221 -0.0650934 -0.195162 -0.0650934 -0.520451 -0.0650341 -0.52051 -0.0650934 -0.910833 0 -0.52051 0.0650934z"/>
   <path id="_174735136" class="fil0" d="M25.7638 20.238c0,2.05528 1.31012,3.57907 3.3181,3.57907l0.910833 0 0 -2.86322 -0.390382 0c-0.527156,0 -0.975867,-0.475176 -0.975867,-1.0412l0 -6.57248 -2.86269 0 0 6.89783z"/>
   <path id="_174735064" class="fil1" d="M16.2 17.9604l0.0650341 -0.195221 0.0650341 -0.0650934 0.0650934 -0.260314 0.0650341 -0.0650341 0.0650934 -0.130187 0.0650341 -0.0650934 0 -0.130127 0.130127 0 0.0650934 -0.0650934 0 -0.130127 0.130068 0 0.0650934 -0.0650934 0.0650341 -0.0650341 0.0650934 -0.0650934 0.130127 -0.0650934 0.130127 -0.0650341 0.130068 -0.0650934 0.195221 -0.0650934 0.195162 -0.0650341 0.390382 -0.0650934 0.260196 0 0.390382 0.0650934 0.195162 0.0650341 0.260255 0.0650934 0.0650934 0.0650934 0.130127 0.0650341 0.130068 0.0650934 0.130127 0 0 0.130127 0.130127 0.0650934 0.0650934 0.0650934 0.0650341 0.0650341 0.0650341 0.0650934 0.0650934 0.0650934 0.0650341 0.130127 0.0650934 0.0650934 0.0650341 0.0650934 0.0650934 0.195221 0.0650341 0.130127 0.0650934 0.195221 0 1.30145 -0.0650934 0.130187 -0.0650341 0.130127 -0.0650934 0.195221 -0.0650341 0.130127 -0.0650934 0.0650934 -0.0650341 0.0650934 -0.0650934 0.130127 -0.0650341 0.0650934 -0.0650341 0.0650341 0 0.130187 -0.130127 0 -0.0650934 0.0650341 -0.0650341 0.0650934 -0.130127 0.0650934 -0.130127 0.0650341 -0.130127 0.0650934 -0.0650341 0.0650934 -0.325289 0.0650341 -0.195221 0.0650934 -0.715672 0 -0.260196 -0.0650934 -0.260255 -0.0650341 -0.130127 -0.0650934 -0.0650341 -0.0650934 -0.130127 -0.0650341 -0.130127 -0.0650934 -0.0650934 -0.0650934 -0.0650341 -0.0650341 -0.130127 -0.0650934 -0.0650341 -0.130127 -0.130127 0 0 -0.130187 -0.0650934 -0.0650341 -0.0650341 -0.130187 -0.0650934 -0.0650341 -0.0650341 -0.0650934 -0.0650934 -0.260314 -0.0650341 -0.195221 -0.0650341 -0.195221 0 -1.04114zm-0.390382 0.260255l0 0.650756c0,1.1553 1.22402,2.34265 2.40721,2.34265l0.52051 0c1.29463,0 2.34218,-1.33569 2.34218,-2.73309l0 -0.325348c0,-1.13436 -1.34103,-2.27762 -2.5374,-2.27762 -1.41437,0 -2.7325,0.991236 -2.7325,2.34265z"/>
   <path id="_145099768" class="fil1" d="M39.1662 19.2619l-0.0650341 0.130127 -0.0650934 0.130187 -0.0650341 0.195221 -0.0650934 0.0650341 -0.0650341 0.0650934 -0.0650934 0.130127 0 0.130187 -0.130127 0 -0.0650341 0.0650341 0 0.130187 -0.130127 0 -0.0650341 0.0650341 -0.0650934 0.0650934 -0.130127 0.0650934 -0.0650341 0.0650341 -0.130127 0.0650934 -0.130127 0.0650934 -0.260255 0.0650341 -0.260196 0.0650934 -0.715672 0 -0.260255 -0.0650934 -0.260255 -0.0650341 -0.130127 -0.0650934 -0.0650341 -0.0650934 -0.130127 -0.0650341 -0.130127 -0.0650934 -0.0650341 -0.0650934 -0.0650934 -0.0650341 -0.0650341 -0.0650934 -0.0650934 -0.0650934 -0.0650341 -0.0650341 -0.0650341 -0.0650934 -0.0650934 -0.0650934 -0.0650341 -0.130127 -0.0650934 -0.130127 -0.0650341 -0.0650934 -0.0650934 -0.130127 -0.0650341 -0.195221 -0.0650341 -0.195221 -0.0650934 -0.325408 0 -0.650697 0.0650934 -0.260314 0.0650341 -0.195221 0.0650341 -0.195221 0.0650934 -0.0650934 0.0650341 -0.130127 0.0650934 -0.130187 0.0650341 -0.0650341 0.0650934 -0.0650934 0.0650341 -0.0650934 0.0650341 -0.0650341 0.0650934 -0.0650934 0.0650341 -0.0650934 0.0650934 -0.0650341 0.130127 -0.0650934 0.130127 -0.0650934 0.130068 -0.0650341 0.0650934 -0.0650934 0.260255 -0.0650934 0.195162 -0.0650341 0.325289 -0.0650934 0.325289 0 0.325348 0.0650934 0.195162 0.0650341 0.260255 0.0650934 0.130127 0.0650934 0.0650341 0.0650341 0.195162 0.0650934 0.0650934 0.0650934 0.0650341 0.0650341 0.0650934 0.0650934 0.0650341 0.0650934 0.0650341 0.0650341 0.0650934 0.0650934 0.0650341 0.0650934 0.0650934 0.0650341 0.0650341 0.0650934 0.0650934 0.130187 0.0650341 0.130127 0.0650934 0.130127 0.0650341 0.130187 0.0650341 0.390442 0 0.585663 -0.0650341 0.520569zm-4.81448 -0.650756c0,1.32922 1.10018,2.60297 2.40727,2.60297l0.650578 0c0.951776,0 2.21205,-1.27985 2.21205,-2.27756l0 -0.976105c0,-0.946732 -1.40666,-2.0824 -2.4723,-2.0824l-0.0650341 0 -1.03853 0.145259c-0.495351,0.315024 -0.653189,0.321491 -1.09371,0.780528 -0.192847,0.201036 -0.600319,0.953141 -0.600319,1.28674l0 0.520569z"/>
   <path id="_174734992" class="fil0" d="M54.5205 16.2034l0 5.0758c0,0.558427 0.649866,1.45181 0.986489,1.74643 0.429842,0.376201 1.22954,0.791446 2.00627,0.791446l2.92772 0 0 -2.79819 -2.4723 0c-0.327069,0 -0.650578,-0.323568 -0.650578,-0.650756 0,-0.487815 0.227916,-0.71579 0.715672,-0.71579l2.21205 0 0 -2.14743 -2.01689 0c-0.380117,0 -0.715672,-0.335614 -0.715672,-0.71585 0,-0.429249 0.466097,-0.71579 0.910833,-0.71579l1.95185 0 0 -2.73309 -3.12294 0c-1.43366,0 -2.7325,1.39248 -2.7325,2.86322z"/>
   <path id="_174734920" class="fil0" d="M62.8481 16.3986c0,1.93892 1.17109,3.1535 1.17109,3.70926 0,0.508761 -0.431622,1.0412 -0.910833,1.0412l-0.52051 0c-0.254677,0 -0.00712052,-0.0982632 -0.390323,-0.130187l0 2.60297c0,0.264527 0.843247,0.455535 1.17109,0.455535l0.130127 0c1.1003,0 1.8613,-0.384211 2.51153,-0.87173 0.449542,-0.337097 1.26193,-1.48653 1.26193,-2.18677l0 -1.10623c0,-0.948572 -1.17109,-2.18956 -1.17109,-2.86328 0,-0.550001 0.391035,-1.10623 0.910833,-1.10623l0.195221 0c0.175699,0 0.179378,0.0310336 0.325289,0.0650341l0 -2.79819c-0.356026,-0.00789191 -0.458739,-0.130127 -0.845799,-0.130127l-0.585544 0c-1.59666,0 -3.25301,1.72886 -3.25301,3.31876z"/>
   <path id="_174734848" class="fil0" d="M15.8096 18.2207c0,-1.35142 1.31813,-2.34265 2.7325,-2.34265 1.19637,0 2.5374,1.14326 2.5374,2.27762l0 0.325348c0,1.3974 -1.04755,2.73309 -2.34218,2.73309l-0.52051 0c-1.18319,0 -2.40721,-1.18735 -2.40721,-2.34265l0 -0.650756zm-2.86263 0l0 0.390442c0,3.11618 2.3687,5.46624 5.46506,5.46624 3.17682,0 5.53009,-2.36698 5.53009,-5.53128l0 -0.455535c0,-1.49946 -0.748426,-2.72852 -1.51252,-3.4979 -0.667193,-0.67188 -2.20522,-1.51281 -3.49712,-1.51281l-0.780706 0c-2.88868,0 -5.2048,2.19793 -5.2048,5.14084z"/>
   <path id="_174734776" class="fil1" d="M25.7638 13.3402l2.86269 0 0 6.57248c0,0.566022 0.448711,1.0412 0.975867,1.0412l0.390382 0 0 2.86322 -0.910833 0c-2.00799,0 -3.3181,-1.52379 -3.3181,-3.57907l0 -6.89783zm-0.390323 7.28827l0.0650341 0.520629 0.0650934 0.260255 0.0650341 0.325408 0.0650341 0.195221 0.0650934 0.130127 0.0650341 0.195221 0.0650934 0.0650934 0.0650341 0.130127 0.0650934 0.0650934 0.0650341 0.130127 0.0650934 0.0650934 0.0650341 0.0650341 0.0650341 0.130187 0.0650934 0.0650341 0.130127 0 0 0.130187 0.0650341 0.0650341 0.0650934 0.0650934 0.130068 0.0650934 0.0650934 0.0650341 0.0650341 0.0650934 0.0650934 0.0650934 0.130127 0.0650341 0.0650341 0.0650934 0.130127 0.0650934 0.130127 0.0650341 0.0650341 0.0650934 0.130127 0.0650934 0.260255 0.0650341 0.130127 0.0650934 0.195162 0.0650934 0.585544 0.0650341 1.6916 0 0 -3.51398 -0.715672 -0.0650934 -0.260255 -0.0650341 -0.130127 -0.0650934 -0.130127 0 0 -0.130127 -0.0650341 -0.130187 -0.0650934 -0.325348 -0.0650341 -6.83279 -3.5783 0 0 7.61367z"/>
   <path id="_174734704" class="fil1" d="M44.306 13.3402l4.55422 0c1.77123,0 3.31804,1.62828 3.31804,3.44888l0 0.195221c0,0.799872 -0.853988,2.25359 -1.43134,2.40774l1.79034 4.41104 -2.89633 0.0140037c-0.212548,0 -1.6265,-3.14229 -1.6265,-3.51398l0 -2.40774c0.589876,0 1.23612,-0.293662 1.23612,-0.845977l0 -0.325348c0,-0.453221 -0.441769,-0.780884 -0.910833,-0.780884l-1.10599 0 0 7.87393 -2.92772 0 0 -10.4769zm-0.325289 10.8022l3.5783 0 0.000118675 -7.87963 0.910714 0.0707898 0.130127 0.0650341 0.130127 0.0650934 0.0650341 0.130127 0.137604 0.000415364 -0.0725106 0.520213 0 0.130127 -0.130127 0 0 0.130187 -0.130127 0 -0.260255 0.0650341 -0.715672 0.0650934 0 3.12353 0.0650934 0.130127 0.0650341 0.130187 0.0650934 0.195221 0.0650341 0.130127 0.0650341 0.0650934 0.0650934 0.195221 0.0650341 0.195221 0.0650934 0.0650934 0.0650341 0.130127 0.0650934 0.260314 0.0650341 0.0650341 0.0650934 0.130187 0.0650341 0.195221 0.0650341 0.130127 0.0650934 0.130127 0.0650341 0.130187 0.0650934 0.195221 0.0650341 0.130127 0.0650934 0.130127 0.0650341 0.195221 0.0650341 0.130187 0.0650934 0.130127 0.0650341 0.130127 0.0650934 0.130187 0.0650341 0.0650341 3.77352 0 0 -0.195221 -0.0650934 -0.195221 -0.0650341 -0.130127 -0.0650934 -0.130127 -0.0650341 -0.195221 -0.0650341 -0.130187 -0.0650934 -0.195221 -0.0650341 -0.0650341 -0.0650934 -0.260314 -0.0650341 -0.130127 -0.0650934 -0.130187 -0.0650341 -0.195221 -0.0650934 -0.130127 -0.0650341 -0.130127 -0.0650341 -0.130187 -0.0650934 -0.195221 -0.0650341 -0.195221 -0.0650934 -0.0650341 -0.0650341 -0.260314 -0.0650934 -0.130127 -0.0650341 -0.130187 -0.0650341 -0.195221 -0.0650934 -0.130127 -0.0650341 -0.130187 -0.0650934 -0.130127 -0.0650341 -0.260314 -0.0650934 -0.130127 -0.0650341 -0.0650934 0 -0.260255 0.130127 -0.0650934 0.0650341 -0.130127 0.130127 -0.0650934 0.0650934 -0.130127 0.0650341 -0.0650934 0.0650341 -0.0650934 0.0650934 -0.0650341 0.0650341 -0.130187 0.0650934 -0.0650341 0.0650341 -0.130187 0.0650934 -0.130127 0.0650341 -0.130127 0.0650341 -0.130187 0.0650934 -0.130127 0.0650341 -0.195221 0.0650934 -0.195221 0.0650341 -0.260314 0 -1.49667 -0.0650341 -0.195221 -0.0650934 -0.195221 -0.0650341 -0.195221 -0.0650934 -0.130187 -0.0650341 -0.130127 -0.0650341 -0.0650934 -0.0650934 -0.195221 -0.0650341 -0.0650341 -0.0650934 -0.130187 -0.0650341 -0.0650341 -0.0650934 -0.130187 -0.0650341 -0.0650341 -0.0650341 -0.0650934 -0.0650934 -0.0650934 -0.0650341 -0.0650341 -0.0650934 -0.0650934 -0.0650341 -0.0650934 -0.0650934 -0.0650341 -0.0650341 -0.0650934 -0.0650934 -0.0650934 -0.0650341 -0.0650341 -0.130127 -0.0650934 -0.0650341 -0.0650934 -0.130127 -0.0650934 -0.0650934 -0.0650341 -0.0650341 -0.0650934 -0.195162 -0.0650934 -0.0650934 -0.0650341 -0.130127 -0.0650934 -0.195162 -0.0650934 -0.195162 -0.0650341 -0.130127 -0.0650934 -0.195221 -0.0650934 -5.59513 0 0 11.1277z"/>
   <path id="_174734632" class="fil1" d="M54.5205 16.2034c0,-1.47074 1.29884,-2.86322 2.7325,-2.86322l3.12294 0 0 2.73309 -1.95185 0c-0.444736,0 -0.910833,0.286542 -0.910833,0.71579 0,0.380236 0.335554,0.71585 0.715672,0.71585l2.01689 0 0 2.14743 -2.21205 0c-0.487756,0 -0.715672,0.227975 -0.715672,0.71579 0,0.327188 0.323509,0.650756 0.650578,0.650756l2.4723 0 0 2.79819 -2.92772 0c-0.77673,0 -1.57642,-0.415245 -2.00627,-0.791446 -0.336623,-0.294611 -0.986489,-1.188 -0.986489,-1.74643l0 -5.0758zm1.88676 -3.12353l-0.130127 0.0650934 -0.130127 0.0650341 -0.195162 0.0650934 -0.130127 0.0650934 -0.0650934 0.0650341 -0.130127 0.0650934 -0.0650341 0.0650934 -0.0650934 0.0650341 -0.130068 0.0650934 -0.0650934 0.0650934 -0.0650341 0.0650934 -0.0650934 0.0650341 -0.0650341 0.0650934 -0.0650934 0.0650934 -0.0650341 0.0650341 -0.0650341 0.0650934 -0.0650934 0.0650934 -0.0650341 0.0650341 -0.0650934 0.130187 -0.0650341 0.0650341 -0.0650934 0.130187 -0.0650341 0.0650341 -0.0650934 0.130187 -0.0650341 0.195221 -0.0650341 0.130127 -0.0650934 0.195221 -0.0650341 0.195221 0 6.05191 0.0650341 0.260255 0.0650934 0.130187 0.0650341 0.195221 0.0650341 0.195221 0.0650934 0.0650341 0.0650341 0.130187 0.0650934 0.130127 0.0650341 0.130127 0.130127 0 0 0.130187 0.0650934 0.0650341 0.0650341 0.0650934 0.0650341 0.0650934 0.0650934 0.130127 0.130127 0.0650934 0.0650341 0.0650341 0.0650934 0.0650934 0.0650341 0.0650934 0.130127 0 0 0.130127 0.130127 0.0650934 0.130127 0.0650341 0.130127 0.0650934 0.130068 0.0650934 0.195221 0.0650341 0.130127 0.0650934 0.195162 0.0650934 0.52051 0.0650341 3.64333 0 0 -3.44888 -2.7325 -0.0650934 -0.195221 -0.0650934 -0.0650341 -0.0650341 0 -0.390442 0.195162 -0.0650934 2.60243 -0.0650934 0 -2.79819 -2.27714 -0.0650341 -0.195162 -0.0650934 -0.130127 -0.0650934 0 -0.325348 0.0650934 -0.0650934 0.130127 -0.0650341 2.60237 -0.0650934 0 -3.44894 -4.16384 0 -0.195162 0.0650934z"/>
   <path id="_174734560" class="fil1" d="M12.947 18.2207c0,-2.94291 2.31613,-5.14084 5.2048,-5.14084l0.780706 0c1.2919,0 2.82993,0.840933 3.49712,1.51281 0.764091,0.769372 1.51252,1.99843 1.51252,3.4979l0 0.455535c0,3.1643 -2.35327,5.53128 -5.53009,5.53128 -3.09636,0 -5.46506,-2.35007 -5.46506,-5.46624l0 -0.390442zm4.48913 -5.46619l-0.52051 0.0650341 -0.195162 0.0650934 -0.195162 0.0650934 -0.325289 0.0650341 -0.130127 0.0650934 -0.130127 0.0650934 -0.0650934 0.0650341 -0.260196 0.0650934 -0.130127 0.0650934 -0.0650934 0.0650341 -0.195162 0.0650934 -0.0650341 0.0650934 -0.130127 0.0650341 -0.0650934 0.0650934 -0.130127 0.0650934 -0.0650341 0.0650934 -0.0650934 0.0650341 -0.130068 0.0650934 -0.0650934 0.0650934 -0.0650341 0.0650341 -0.130127 0.0650934 0 0.130127 -0.130127 0 -0.0650341 0.0650934 -0.0650934 0.0650934 -0.0650341 0.0650341 -0.0650934 0.0650934 -0.0650341 0.0650934 -0.0650934 0.130127 -0.0650341 0.0650934 -0.0650934 0.0650341 -0.0650341 0.130187 -0.0650341 0.0650341 -0.0650934 0.0650934 -0.0650341 0.130127 -0.0650934 0.130187 -0.0650341 0.0650341 -0.0650934 0.0650934 -0.0650341 0.195221 -0.0650934 0.130127 -0.0650341 0.0650934 -0.0650341 0.260314 -0.0650934 0.130127 -0.0650341 0.130127 -0.0650934 0.195221 -0.0650341 0.390442 -0.0650934 0.260314 -0.0650341 0.390442 0 1.49673 0.0650341 0.455476 0.0650934 0.260314 0.0650341 0.455535 0.0650934 0.130127 0.0650341 0.195221 0.0650934 0.130127 0.0650341 0.260314 0.0650341 0.0650934 0.0650934 0.130127 0.0650341 0.195221 0.0650934 0.130187 0.0650341 0.0650341 0.0650934 0.130187 0.0650341 0.130127 0.0650934 0.0650934 0.0650341 0.0650341 0.0650341 0.130187 0.0650934 0.0650341 0.0650341 0.130187 0.0650934 0.0650341 0.0650341 0.0650934 0.0650934 0.0650934 0.0650341 0.0650341 0.0650934 0.130187 0.0650341 0.0650341 0.130127 0 0 0.130187 0.0650341 0.0650341 0.130127 0.0650934 0.0650934 0.0650934 0.0650341 0.0650341 0.0650341 0.0650934 0.130127 0.0650934 0.0650934 0.0650341 0.0650341 0.0650934 0.195221 0.0650934 0.0650341 0.0650341 0.0650341 0.0650934 0.130127 0.0650934 0.130127 0.0650341 0.0650934 0.0650934 0.130127 0.0650934 0.195162 0.0650341 0.130127 0.0650934 0.130127 0.0650934 0.325289 0.0650341 0.130127 0.0650934 0.195162 0.0650934 0.260255 0.0650341 0.520451 0.0650934 1.56147 0 0.585544 -0.0650934 0.260255 -0.0650341 0.195162 -0.0650934 0.130127 -0.0650934 0.325289 -0.0650341 0.0650341 -0.0650934 0.195221 -0.0650934 0.195162 -0.0650341 0.0650934 -0.0650934 0.130068 -0.0650934 0.130127 -0.0650341 0.130127 -0.0650934 0.0650934 -0.0650934 0.130068 -0.0650341 0.0650934 -0.0650934 0.130127 -0.0650934 0.0650341 -0.0650341 0.130127 -0.0650934 0.0650934 -0.0650934 0.0650341 -0.0650341 0 -0.130187 0.130127 0 0.0650341 -0.0650341 0.0650934 -0.0650934 0.130127 -0.0650934 0.0650341 -0.130127 0.0650934 -0.0650934 0.0650341 -0.0650341 0.0650341 -0.0650934 0.0650934 -0.130127 0.0650341 -0.0650934 0.0650934 -0.0650934 0.0650341 -0.130127 0.0650934 -0.0650934 0.0650341 -0.0650341 0.0650341 -0.130187 0.0650934 -0.130127 0.0650341 -0.0650934 0.0650934 -0.130127 0.0650341 -0.195221 0.0650934 -0.0650934 0.0650341 -0.130127 0.0650934 -0.130127 0.0650341 -0.19528 0.0650341 -0.195221 0.0650934 -0.130127 0.0650341 -0.390442 0.0650934 -0.260314 0.0650341 -0.325348 0 -2.08234 -0.0650341 -0.325408 -0.0650934 -0.260314 -0.0650341 -0.325348 -0.0650934 -0.130127 -0.0650341 -0.130187 -0.0650341 -0.195221 -0.0650934 -0.130127 -0.0650341 -0.130127 -0.0650934 -0.0650934 -0.0650341 -0.195221 -0.0650934 -0.130127 -0.0650341 -0.0650934 -0.0650934 -0.130127 -0.0650341 -0.130187 -0.130127 0 0 -0.130127 -0.0650341 -0.130127 -0.130127 0 0 -0.130187 -0.0650934 -0.0650341 -0.0650341 -0.0650934 -0.0650341 -0.0650934 -0.0650934 -0.0650341 -0.0650341 -0.0650934 -0.0650934 -0.0650934 -0.0650341 -0.0650341 -0.0650934 -0.0650934 -0.0650341 -0.0650934 -0.130127 0 0 -0.130127 -0.130127 -0.0650934 -0.130127 0 0 -0.130127 -0.130127 -0.0650934 -0.130127 -0.0650934 -0.0650341 -0.0650341 -0.130127 -0.0650934 -0.195162 -0.0650934 -0.0650934 -0.0650341 -0.130068 -0.0650934 -0.195221 -0.0650934 -0.130127 -0.0650341 -0.130127 -0.0650934 -0.130068 -0.0650934 -0.325348 -0.0650341 -0.195162 -0.0650934 -0.195162 -0.0650934 -0.52051 -0.0650341 -0.585544 -0.0650934 -0.845799 0 -0.520451 0.0650934z"/>
   <path id="_174734488" class="fil1" d="M62.8481 16.3986c0,-1.58989 1.65635,-3.31876 3.25301,-3.31876l0.585544 0c0.38706,0 0.489773,0.122236 0.845799,0.130127l0 2.79819c-0.145911,-0.0340005 -0.14959,-0.0650341 -0.325289,-0.0650341l-0.195221 0c-0.519798,0 -0.910833,0.556231 -0.910833,1.10623 0,0.67372 1.17109,1.91471 1.17109,2.86328l0 1.10623c0,0.700244 -0.812392,1.84967 -1.26193,2.18677 -0.650222,0.487518 -1.41123,0.87173 -2.51153,0.87173l-0.130127 0c-0.327841,0 -1.17109,-0.191008 -1.17109,-0.455535l0 -2.60297c0.383203,0.0319237 0.135646,0.130187 0.390323,0.130187l0.52051 0c0.479211,0 0.910833,-0.532437 0.910833,-1.0412 0,-0.555757 -1.17109,-1.77034 -1.17109,-3.70926zm2.86269 -3.6441l-0.455417 0.0650341 -0.130127 0.0650934 -0.130127 0.0650934 -0.260255 0.0650341 -0.130127 0.0650934 -0.0650341 0.0650934 -0.130127 0.0650341 -0.130127 0.0650934 -0.0650934 0.0650934 -0.0650341 0.0650341 -0.130127 0.0650934 -0.0650341 0.0650934 -0.0650934 0.0650341 -0.130127 0.0650934 -0.0650341 0.0650934 -0.0650341 0.130127 -0.130127 0.0650934 -0.0650934 0.130127 -0.0650341 0.0650934 -0.0650934 0.0650934 -0.0650341 0.0650341 -0.0650934 0.130187 -0.0650341 0.0650341 -0.0650341 0.0650934 -0.0650934 0.195221 -0.0650341 0.0650934 -0.0650934 0.130127 -0.0650341 0.195221 -0.0650934 0.130127 -0.0650341 0.130187 -0.0650934 0.195221 -0.0650341 0.455476 0 1.36661 0.0650341 0.455476 0.0650934 0.195221 0.0650341 0.130187 0.0650934 0.195221 0.0650341 0.195221 0.0650934 0.130127 0.0650341 0.130127 0.0650934 0.195221 0.0650341 0.130187 0.0650341 0.0650341 0.0650934 0.130187 0.0650341 0.130127 0.0650934 0.130127 0.0650341 0.0650934 0.0650934 0.130127 0.0650341 0.130187 0.0650934 0.130127 0 0.195221 -0.0650934 0.130127 -0.0650341 0.130187 -0.0650934 0.0650341 -0.0650341 0.0650934 -0.0650934 0.0650934 -0.84574 0 -0.0650934 -0.0650934 -0.130127 -0.0650934 -0.130127 -0.0650341 -0.130068 -0.0650934 -0.130127 0 0 3.57907 0.0650341 0.0650934 0.195162 0.0650341 0.130127 0.0650934 0.130127 0.0650934 0.195162 0.0650341 0.390382 0.0650934 1.23612 0 0.455476 -0.0650934 0.195162 -0.0650341 0.130127 -0.0650934 0.130127 -0.0650934 0.260196 -0.0650341 0.130127 -0.0650934 0.0650934 -0.0650934 0.130127 -0.0650341 0.130068 -0.0650934 0.0650934 -0.0650934 0.130127 -0.0650341 0.130127 -0.0650934 0.0650341 -0.130127 0.130127 -0.0650934 0.0650341 -0.0650934 0.0650934 -0.0650341 0.0650341 -0.0650934 0.0650934 -0.0650934 0.0650341 -0.0650341 0.0650934 -0.0650934 0.0650341 -0.0650934 0.0650934 -0.130127 0.0650341 -0.0650934 0.0650341 -0.0650341 0.0650934 -0.130187 0.0650341 -0.130127 0.0650934 -0.0650934 0.0650341 -0.130127 0.0650934 -0.195221 0.0650341 -0.130127 0.0650341 -0.130187 0.0650934 -0.130127 0.0650341 -0.390442 0.0650934 -0.325348 0 -1.0412 -0.0650934 -0.325408 -0.0650341 -0.390442 -0.0650934 -0.130127 -0.0650341 -0.130127 -0.0650341 -0.130187 -0.0650934 -0.195221 -0.0650341 -0.130127 -0.0650934 -0.130127 -0.0650341 -0.130187 -0.0650934 -0.130127 -0.0650341 -0.0650934 -0.0650341 -0.130127 -0.0650934 -0.130127 -0.0650341 -0.0650934 -0.0650934 -0.130127 -0.0650341 -0.130187 -0.0650934 -0.130127 -0.0650341 -0.260314 0 -0.130127 0.0650341 -0.195221 0.0650934 -0.130187 0.0650341 -0.0650341 0.0650934 -0.0650934 0.130127 -0.0650934 0.195162 -0.0650341 0.195162 0 0.130127 0.0650341 0.260255 0.0650934 0.260255 0 0 -3.44894 -0.0650934 -0.0650341 -0.130127 -0.0650934 -0.195162 -0.0650934 -0.455417 -0.0650341 -0.455417 -0.0650934 -0.455417 0 -0.455417 0.0650934z"/>
  </g>
 </g>
</svg>
