<svg id="Layer_1" data-name="Layer 1" xmlns="http://www.w3.org/2000/svg" viewBox="0 0 449.03 87.97"><defs><style>.cls-1{fill:#fff;}</style></defs><title>STEEZY_WHITE</title><path class="cls-1" d="M59.25,50a19.66,19.66,0,0,0-6-6h0c-8.69-5.92-21.4-7.14-28.79-10.7-3.6-1.73-5.95-4-5.95-7.66,0-5.94,4.22-8.68,11.19-8.68C38.49,17,43,21,43.66,28.49L61,24.17C59.44,10,48.93,0,29.65,0,11.63,0,0,10.52,0,25.64,0,31.15,1.33,35.3,3.51,38.5A20.09,20.09,0,0,0,9.2,44h0c9,6.14,22.4,7.22,29.63,11.12C42,56.79,43.94,59,43.94,62.34c0,5.94-4.22,8.68-11.2,8.68-8.58,0-13.07-3.83-13.92-10.92L1.49,64.42C3.27,78.3,13.76,88,32.74,88c18,0,29.66-10.52,29.66-25.64A22.48,22.48,0,0,0,59.25,50Z"/><polygon class="cls-1" points="150.91 86.45 211.67 86.45 211.67 69.47 168.11 69.47 168.11 52.51 211.67 52.51 211.67 35.53 150.91 35.53 150.91 86.45"/><polygon class="cls-1" points="72.83 18.52 94.58 18.52 94.58 86.45 111.83 86.45 111.83 18.52 133.59 18.52 133.59 1.54 72.83 1.54 72.83 18.52"/><polygon class="cls-1" points="306.95 18.52 343.81 18.52 306.96 69.45 306.95 69.45 306.95 86.43 366.29 86.43 366.29 69.45 329.45 69.45 366.29 18.52 366.29 1.54 306.95 1.54 306.95 18.52"/><polygon class="cls-1" points="228.96 86.45 289.72 86.45 289.72 69.47 246.16 69.47 246.16 52.51 289.72 52.51 289.72 35.53 228.96 35.53 228.96 86.45"/><rect class="cls-1" x="150.91" y="1.57" width="138.81" height="16.98"/><polygon class="cls-1" points="428.46 1.54 412.89 35.53 397.31 1.54 376.74 1.54 404.26 52.62 404.26 86.45 421.51 86.45 421.51 53.92 449.03 1.54 428.46 1.54"/></svg>