<svg xmlns="http://www.w3.org/2000/svg" xmlns:xlink="http://www.w3.org/1999/xlink" viewBox="0 0 1024 1024"><defs><style>.cls-1{fill:url(#linear-gradient);}.cls-2{fill:#222;}.cls-3{fill:#fff;}</style><linearGradient id="linear-gradient" x1="124.99" y1="899.01" x2="895.87" y2="128.13" gradientUnits="userSpaceOnUse"><stop offset="0" stop-color="#0b79fb"/><stop offset="1" stop-color="#81f1ae"/></linearGradient></defs><title>STEEZY_MARK</title><g id="Mask"><rect class="cls-1" x="-0.44" y="-0.43" width="1024.87" height="1024.87" rx="225.21"/><rect class="cls-2" x="66" y="65" width="893" height="893" rx="172.6"/><path class="cls-3" d="M686.76,549.56C676.94,534,664,521.79,649.07,512h0c-54.14-36.86-133.3-44.46-179.36-66.61-22.43-10.78-37-25-37-47.72,0-37,26.24-54.1,69.72-54.1,55,0,83.12,25.26,87.22,71.93l108-26.92C687.93,300,622.42,238,502.38,238c-112.28,0-184.73,65.54-184.73,159.7,0,34.38,8.27,60.2,21.87,80.15,9.52,14,21.62,25.09,35.41,34.15h0c56.27,38.3,139.55,45,184.63,69.28,19.41,10.45,31.78,24.14,31.78,45.05,0,37-26.24,54.1-69.72,54.1-53.47,0-81.43-23.9-86.74-68.06l-108,26.92C338,725.79,403.34,786,521.62,786c112.28,0,184.73-65.55,184.73-159.7C706.35,593.87,699,569,686.76,549.56Z"/></g></svg>