<svg id="Layer_1" data-name="Layer 1" xmlns="http://www.w3.org/2000/svg" viewBox="0 0 19.53 19.53"><defs><style>.cls-1{fill:#fff;}</style></defs><path class="cls-1" d="M12.83,2.74H6.71A3.77,3.77,0,0,0,2.94,6.51h0v6.12A3.77,3.77,0,0,0,6.71,16.4h6.12a3.77,3.77,0,0,0,3.77-3.77h0V6.51a3.77,3.77,0,0,0-3.77-3.77Zm2.56,9.89a2.56,2.56,0,0,1-2.56,2.56H6.71a2.56,2.56,0,0,1-2.56-2.56V6.51A2.57,2.57,0,0,1,6.71,4h6.12a2.56,2.56,0,0,1,2.56,2.56v6.07Z"/><path class="cls-1" d="M9.77,6.05a3.52,3.52,0,1,0,3.52,3.52h0A3.54,3.54,0,0,0,9.77,6.05Zm0,5.83a2.31,2.31,0,1,1,2.31-2.31,2.3,2.3,0,0,1-2.31,2.31Z"/><path class="cls-1" d="M13.44,5a.89.89,0,0,0-.89.89h0a.88.88,0,0,0,.86.9.91.91,0,0,0,.65-.27.87.87,0,0,0,.27-.63A.91.91,0,0,0,13.44,5Z"/></svg>