<svg id="Layer_1" data-name="Layer 1" xmlns="http://www.w3.org/2000/svg" viewBox="0 0 19.53 19.53"><defs><style>.cls-1{fill:#ee1d52;}.cls-2{fill:#fff;}.cls-3{fill:#69c9d0;}</style></defs><path class="cls-1" d="M3.92,14.9,4,15S3.94,15,3.92,14.9Zm1.86-3a2.06,2.06,0,0,1,.9-1.53,2,2,0,0,1,1.7-.24V8.25a3.88,3.88,0,0,1,.69,0v2.4a2,2,0,0,0-1.7.25,2.06,2.06,0,0,0-.9,1.52,2.26,2.26,0,0,0,.39,1.34l-.24-.15a2,2,0,0,1-.84-1.76ZM13,4.8a3.3,3.3,0,0,1-.79-1.63h.65a3.05,3.05,0,0,0,.83,2.2v0A4,4,0,0,1,13,4.8Zm3.16,1.69V8.84a7.7,7.7,0,0,1-1.46-.2,5.71,5.71,0,0,1-1.42-.58l-.42-.27v4.86a5,5,0,0,1-.28,1.51,4.85,4.85,0,0,1-.8,1.33,4.52,4.52,0,0,1-1.47,1.09,4.33,4.33,0,0,1-1.81.4,4.47,4.47,0,0,1-2.43-.73,5.53,5.53,0,0,1-.7-.58h0a4.47,4.47,0,0,0,2.43.73A4.3,4.3,0,0,0,9.61,16a4.52,4.52,0,0,0,1.47-1.09,4.64,4.64,0,0,0,.8-1.32,5.15,5.15,0,0,0,.29-1.52V7.21l.41.27A5.49,5.49,0,0,0,14,8.07a8.24,8.24,0,0,0,1.46.19V6.42a2.37,2.37,0,0,0,.69.07Z"/><path class="cls-2" d="M15.46,6.42V8.26A7.7,7.7,0,0,1,14,8.06a5.71,5.71,0,0,1-1.42-.58l-.41-.27v4.87a5.16,5.16,0,0,1-.29,1.51,4.9,4.9,0,0,1-.8,1.32A4.52,4.52,0,0,1,9.61,16a4.3,4.3,0,0,1-1.81.4,4.47,4.47,0,0,1-2.43-.73h0L5,15.28a4.71,4.71,0,0,1-.65-1.18h0a5,5,0,0,1-.26-1.58,4.42,4.42,0,0,1,.53-2,4.91,4.91,0,0,1,1-1.25,4.67,4.67,0,0,1,1.22-.72,4.11,4.11,0,0,1,1.5-.31v1.87a2,2,0,0,0-1.7.24,2,2,0,0,0-.06,3.29l.24.15a2,2,0,0,0,.45.43,2,2,0,0,0,2,.2,1.88,1.88,0,0,0,1-1.15,2.72,2.72,0,0,0,.11-.94V3.17h1.72A3.33,3.33,0,0,0,13,4.8a4,4,0,0,0,.7.59,3.57,3.57,0,0,0,1,.74A4.59,4.59,0,0,0,15.46,6.42Z"/><path class="cls-3" d="M3.68,13.53h0l0,.12a.87.87,0,0,1,0-.12Z"/><path class="cls-3" d="M6.88,8.56a4.67,4.67,0,0,0-1.22.72,4.79,4.79,0,0,0-1,1.26,4.32,4.32,0,0,0-.53,2,5,5,0,0,0,.26,1.57h0A4.71,4.71,0,0,0,5,15.28a4.32,4.32,0,0,0,.34.39,5,5,0,0,1-1-1,4.88,4.88,0,0,1-.65-1.17h0A4.68,4.68,0,0,1,3.43,12,4.24,4.24,0,0,1,4,10,4.74,4.74,0,0,1,5,8.71,4.31,4.31,0,0,1,6.19,8a3.69,3.69,0,0,1,.86-.25,4,4,0,0,1,1.34,0v.53A4.12,4.12,0,0,0,6.88,8.56Z"/><path class="cls-3" d="M12.2,3.17H10.47v9.17a2.72,2.72,0,0,1-.11.94,1.88,1.88,0,0,1-1,1.15,2,2,0,0,1-2-.2,2,2,0,0,1-.45-.43,1.91,1.91,0,0,0,1.77,0,1.89,1.89,0,0,0,1-1.14,2.75,2.75,0,0,0,.11-1V2.59h2.38A2.51,2.51,0,0,0,12.2,3.17Zm3.26,2.74v.51a4.59,4.59,0,0,1-.81-.29,3.75,3.75,0,0,1-1-.74l.27.16a3.16,3.16,0,0,0,1.5.36Z"/></svg>