<svg id="Layer_1" data-name="Layer 1" xmlns="http://www.w3.org/2000/svg" viewBox="0 0 19.53 19.53"><defs><style>.cls-1{fill:#fff;}</style></defs><path class="cls-1" d="M16.56,5.37a5.25,5.25,0,0,1-1.38,1.44v.34A8.11,8.11,0,0,1,13,12.64,7.37,7.37,0,0,1,7.23,15.1,7.76,7.76,0,0,1,3,13.84l.66.05a5.44,5.44,0,0,0,3.46-1.21,2.75,2.75,0,0,1-1.61-.56,2.56,2.56,0,0,1-1-1.37,4.6,4.6,0,0,0,.52.06,3.67,3.67,0,0,0,.74-.11,2.83,2.83,0,0,1-1.59-1A2.6,2.6,0,0,1,3.52,8h0a2.65,2.65,0,0,0,1.26.35A2.62,2.62,0,0,1,3.55,5.94a2.8,2.8,0,0,1,.37-1.38A7.5,7.5,0,0,0,9.65,7.47a2.25,2.25,0,0,1-.06-.63A2.77,2.77,0,0,1,12.29,4h.1a2.59,2.59,0,0,1,2,.9,5.23,5.23,0,0,0,1.79-.7A2.52,2.52,0,0,1,15,5.8,4.71,4.71,0,0,0,16.56,5.37Z"/></svg>