<svg id="Layer_1" data-name="Layer 1" xmlns="http://www.w3.org/2000/svg" viewBox="0 0 19.53 19.53"><defs><style>.cls-1{fill:#fff;}</style></defs><path class="cls-1" d="M17,6.13a1.89,1.89,0,0,0-1.34-1.34,45.28,45.28,0,0,0-5.95-.32,45.07,45.07,0,0,0-5.94.32A1.9,1.9,0,0,0,2.44,6.13a19.68,19.68,0,0,0-.32,3.66,19.76,19.76,0,0,0,.32,3.67A1.9,1.9,0,0,0,3.79,14.8a45.07,45.07,0,0,0,5.94.32,45.28,45.28,0,0,0,5.95-.32A1.89,1.89,0,0,0,17,13.46a19.76,19.76,0,0,0,.32-3.67A19.68,19.68,0,0,0,17,6.13Zm-8.81,6V7.51l3.95,2.28Z"/></svg>