<svg width="40" height="40" viewBox="0 0 40 40" fill="none" xmlns="http://www.w3.org/2000/svg">
<path fill-rule="evenodd" clip-rule="evenodd" d="M20.0001 10.8162C12.4673 10.8162 6.36064 16.923 6.36064 24.4558H3.69214C3.69214 15.4492 10.9936 8.14771 20.0001 8.14771C29.0066 8.14771 36.308 15.4492 36.308 24.4558H33.6395C33.6395 16.923 27.5328 10.8162 20.0001 10.8162Z" fill="#FCEF2E"/>
<path fill-rule="evenodd" clip-rule="evenodd" d="M21.3338 16.9687V24.4556H18.6653V16.9687H21.3338Z" fill="#FCEF2E"/>
<path fill-rule="evenodd" clip-rule="evenodd" d="M20.0002 25.7898C19.1865 25.7898 18.5269 26.4495 18.5269 27.2632C18.5269 28.0769 19.1865 28.7365 20.0002 28.7365C20.8139 28.7365 21.4735 28.0769 21.4735 27.2632C21.4735 26.4495 20.8139 25.7898 20.0002 25.7898ZM15.8584 27.2632C15.8584 24.9757 17.7128 23.1213 20.0002 23.1213C22.2877 23.1213 24.142 24.9757 24.142 27.2632C24.142 29.5507 22.2877 31.405 20.0002 31.405C17.7128 31.405 15.8584 29.5507 15.8584 27.2632Z" fill="#FCEF2E"/>
</svg>
