<svg width="39" height="39" viewBox="0 0 39 39" fill="none" xmlns="http://www.w3.org/2000/svg">
<path d="M6.5 19.5L1.625 19.5L8.125 26L14.625 19.5L9.75 19.5C9.75 14.1212 14.1212 9.75 19.5 9.75C21.1412 9.75 22.7012 10.1563 24.05 10.8875L26.4225 8.515C24.4237 7.2475 22.0512 6.5 19.5 6.5C12.3175 6.5 6.5 12.3175 6.5 19.5ZM29.25 19.5C29.25 24.8787 24.8787 29.25 19.5 29.25C17.8587 29.25 16.2987 28.8437 14.95 28.1125L12.5775 30.485C14.5762 31.7525 16.9487 32.5 19.5 32.5C26.6825 32.5 32.5 26.6825 32.5 19.5L37.375 19.5L30.875 13L24.375 19.5L29.25 19.5Z" fill="#FCEF2E"/>
</svg>
