<svg width="149" height="29" viewBox="0 0 149 29" fill="none" xmlns="http://www.w3.org/2000/svg">
<path d="M13.6477 1.5978C13.7974 1.13715 14.4491 1.13715 14.5988 1.5978L17.1672 9.50268C17.2342 9.70869 17.4262 9.84818 17.6428 9.84818H25.9545C26.4388 9.84818 26.6402 10.468 26.2484 10.7527L19.5241 15.6382C19.3488 15.7655 19.2755 15.9912 19.3424 16.1972L21.9109 24.1021C22.0606 24.5627 21.5333 24.9458 21.1415 24.6611L14.4172 19.7756C14.2419 19.6483 14.0046 19.6483 13.8294 19.7756L7.10508 24.6611C6.71323 24.9458 6.18599 24.5627 6.33566 24.1021L8.90411 16.1972C8.97105 15.9912 8.89772 15.7655 8.72248 15.6382L1.99818 10.7527C1.60633 10.468 1.80772 9.84818 2.29208 9.84818L10.6038 9.84818C10.8204 9.84818 11.0124 9.70869 11.0793 9.50268L13.6477 1.5978Z" fill="white"/>
<path d="M43.6383 1.59756C43.788 1.1369 44.4397 1.1369 44.5894 1.59756L47.1579 9.50244C47.2248 9.70845 47.4168 9.84793 47.6334 9.84793H55.9451C56.4294 9.84793 56.6308 10.4677 56.239 10.7524L49.5147 15.6379C49.3394 15.7652 49.2661 15.9909 49.333 16.1969L51.9015 24.1018C52.0512 24.5625 51.5239 24.9455 51.1321 24.6608L44.4078 19.7754C44.2325 19.648 43.9952 19.648 43.82 19.7754L37.0957 24.6608C36.7038 24.9455 36.1766 24.5625 36.3263 24.1018L38.8947 16.1969C38.9617 15.9909 38.8883 15.7652 38.7131 15.6379L31.9888 10.7524C31.5969 10.4677 31.7983 9.84793 32.2827 9.84793L40.5944 9.84793C40.811 9.84793 41.003 9.70845 41.0699 9.50244L43.6383 1.59756Z" fill="white"/>
<path d="M73.6288 1.59756C73.7785 1.1369 74.4302 1.1369 74.5799 1.59756L77.1483 9.50244C77.2153 9.70845 77.4072 9.84793 77.6239 9.84793H85.9355C86.4199 9.84793 86.6213 10.4677 86.2294 10.7524L79.5051 15.6379C79.3299 15.7652 79.2566 15.9909 79.3235 16.1969L81.892 24.1018C82.0416 24.5625 81.5144 24.9455 81.1225 24.6608L74.3982 19.7754C74.223 19.648 73.9857 19.648 73.8105 19.7754L67.0862 24.6608C66.6943 24.9455 66.1671 24.5625 66.3167 24.1018L68.8852 16.1969C68.9521 15.9909 68.8788 15.7652 68.7036 15.6379L61.9793 10.7524C61.5874 10.4677 61.7888 9.84793 62.2732 9.84793L70.5848 9.84793C70.8015 9.84793 70.9934 9.70845 71.0604 9.50244L73.6288 1.59756Z" fill="white"/>
<path d="M103.619 1.59756C103.769 1.1369 104.421 1.1369 104.57 1.59756L107.139 9.50244C107.206 9.70845 107.398 9.84793 107.614 9.84793H115.926C116.411 9.84793 116.612 10.4677 116.22 10.7524L109.496 15.6379C109.32 15.7652 109.247 15.9909 109.314 16.1969L111.883 24.1018C112.032 24.5625 111.505 24.9455 111.113 24.6608L104.389 19.7754C104.214 19.648 103.976 19.648 103.801 19.7754L97.0768 24.6608C96.6849 24.9455 96.1577 24.5625 96.3073 24.1018L98.8758 16.1969C98.9427 15.9909 98.8694 15.7652 98.6942 15.6379L91.9699 10.7524C91.578 10.4677 91.7794 9.84793 92.2638 9.84793L100.575 9.84793C100.792 9.84793 100.984 9.70845 101.051 9.50244L103.619 1.59756Z" fill="white"/>
<path d="M133.61 1.59756C133.76 1.1369 134.411 1.1369 134.561 1.59756L137.13 9.50244C137.196 9.70845 137.388 9.84793 137.605 9.84793H145.917C146.401 9.84793 146.602 10.4677 146.211 10.7524L139.486 15.6379C139.311 15.7652 139.238 15.9909 139.305 16.1969L141.873 24.1018C142.023 24.5625 141.496 24.9455 141.104 24.6608L134.379 19.7754C134.204 19.648 133.967 19.648 133.792 19.7754L127.067 24.6608C126.676 24.9455 126.148 24.5625 126.298 24.1018L128.866 16.1969C128.933 15.9909 128.86 15.7652 128.685 15.6379L121.96 10.7524C121.569 10.4677 121.77 9.84793 122.254 9.84793L130.566 9.84793C130.783 9.84793 130.975 9.70845 131.042 9.50244L133.61 1.59756Z" fill="white"/>
</svg>
