<svg width="41" height="40" viewBox="0 0 41 40" fill="none" xmlns="http://www.w3.org/2000/svg">
<path fill-rule="evenodd" clip-rule="evenodd" d="M25.9662 20.4278C25.9662 23.6346 23.4078 26.2343 20.2519 26.2343C17.096 26.2343 14.5376 23.6346 14.5376 20.4278C14.5376 17.221 17.096 14.6214 20.2519 14.6214C23.4078 14.6214 25.9662 17.221 25.9662 20.4278ZM23.9493 20.4278C23.9493 22.5028 22.2939 24.1849 20.2518 24.1849C18.2098 24.1849 16.5543 22.5028 16.5543 20.4278C16.5543 18.3528 18.2098 16.6707 20.2518 16.6707C22.2939 16.6707 23.9493 18.3528 23.9493 20.4278Z" fill="#FCEF2E"/>
<path fill-rule="evenodd" clip-rule="evenodd" d="M14.8079 12.6428H9.58537C9.34645 12.6428 9.20442 12.8379 9.20442 12.9869V28.9869C9.20442 29.136 9.34645 29.331 9.58537 29.331H30.9187C31.1576 29.331 31.2997 29.136 31.2997 28.9869V12.9869C31.2997 12.8379 31.1576 12.6428 30.9187 12.6428H25.6962L23.2562 9.97618H17.2479L14.8079 12.6428ZM16.252 7.65359L13.812 10.3203H9.58537C8.1187 10.3203 6.9187 11.5203 6.9187 12.9869V28.9869C6.9187 30.4536 8.1187 31.6536 9.58537 31.6536H30.9187C32.3854 31.6536 33.5854 30.4536 33.5854 28.9869V12.9869C33.5854 11.5203 32.3854 10.3203 30.9187 10.3203H26.692L24.252 7.65359H16.252Z" fill="#FCEF2E"/>
</svg>
