<svg width="38" height="37" viewBox="0 0 38 37" fill="none" xmlns="http://www.w3.org/2000/svg">
<path d="M16.0382 30H9.57983V32.5H16.0382V35L19.9132 31.25L16.0382 27.5V30ZM21.2048 30V32.5H27.6632V30H21.2048ZM18.6215 15C20.0423 15 21.2048 13.875 21.2048 12.5C21.2048 11.125 20.0423 10 18.6215 10C17.2007 10 16.0511 11.125 16.0511 12.5C16.0511 13.875 17.2007 15 18.6215 15ZM25.0798 5H12.1632C10.7423 5 9.57983 6.125 9.57983 7.5V25C9.57983 26.375 10.7423 27.5 12.1632 27.5H25.0798C26.5007 27.5 27.6632 26.375 27.6632 25V7.5C27.6632 6.125 26.5007 5 25.0798 5ZM12.1632 7.5H25.0798V20.625C25.0798 18.5375 20.7786 17.5 18.6215 17.5C16.4644 17.5 12.1632 18.5375 12.1632 20.625V7.5Z" fill="#FCEF2E"/>
</svg>
