<svg width="376" height="52" viewBox="0 0 376 52" fill="none" xmlns="http://www.w3.org/2000/svg">
<path d="M304.199 38.804H308.539V34.402H311.267V30.62H308.539V16.484H303.486L293.349 30.992V34.402H304.199V38.804ZM298.123 30.62L304.478 21.134V30.62H298.123Z" fill="white"/>
<path d="M320.323 36.479C320.323 35.053 319.207 33.937 317.688 33.937C316.107 33.937 314.991 35.053 314.991 36.479C314.991 37.905 316.107 39.021 317.688 39.021C319.207 39.021 320.323 37.905 320.323 36.479Z" fill="white"/>
<path d="M324.005 16.267V19.987H334.607L326.299 38.804H330.701L338.947 19.491V16.267H324.005Z" fill="white"/>
<path d="M342.29 44.415H346.537L354.907 9.44702H350.66L342.29 44.415Z" fill="white"/>
<path d="M360.281 16.143V29.411H364.435C364.9 28.016 366.047 27.024 367.845 27.024C370.294 27.024 371.565 28.419 371.565 30.961C371.565 33.348 370.418 35.146 367.876 35.146C365.768 35.146 364.497 33.999 364.125 32.418H359.909C360.281 36.107 363.071 38.804 367.938 38.804C373.084 38.804 375.75 35.518 375.75 30.899C375.75 27.396 373.952 23.428 368.682 23.428C366.791 23.428 365.086 24.234 364.249 25.257V19.956H374.293V16.143H360.281Z" fill="white"/>
<path d="M25.7751 1.61709C25.9248 1.15644 26.5765 1.15643 26.7262 1.61709L31.9475 17.6865C32.0144 17.8926 32.2064 18.032 32.423 18.032L49.3194 18.032C49.8038 18.032 50.0052 18.6518 49.6133 18.9365L35.9438 28.868C35.7686 28.9953 35.6953 29.221 35.7622 29.427L40.9835 45.4965C41.1332 45.9571 40.6059 46.3402 40.2141 46.0555L26.5446 36.124C26.3693 35.9967 26.132 35.9967 25.9568 36.124L12.2873 46.0555C11.8954 46.3402 11.3682 45.9571 11.5179 45.4965L16.7392 29.427C16.8061 29.221 16.7328 28.9953 16.5575 28.868L2.88802 18.9365C2.49616 18.6518 2.69755 18.032 3.18191 18.032L20.0783 18.032C20.2949 18.032 20.4869 17.8926 20.5539 17.6865L25.7751 1.61709Z" fill="#FCEF2E"/>
<path d="M80.9729 1.61709C81.1226 1.15644 81.7743 1.15643 81.924 1.61709L87.1452 17.6865C87.2122 17.8926 87.4042 18.032 87.6208 18.032L104.517 18.032C105.002 18.032 105.203 18.6518 104.811 18.9365L91.1416 28.868C90.9664 28.9953 90.893 29.221 90.96 29.427L96.1812 45.4965C96.3309 45.9571 95.8037 46.3402 95.4118 46.0555L81.7423 36.124C81.5671 35.9967 81.3298 35.9967 81.1545 36.124L67.485 46.0555C67.0932 46.3402 66.5659 45.9571 66.7156 45.4965L71.9369 29.427C72.0038 29.221 71.9305 28.9953 71.7553 28.868L58.0858 18.9365C57.6939 18.6518 57.8953 18.032 58.3797 18.032L75.2761 18.032C75.4927 18.032 75.6847 17.8926 75.7516 17.6865L80.9729 1.61709Z" fill="#FCEF2E"/>
<path d="M136.171 1.61709C136.32 1.15644 136.972 1.15643 137.122 1.61709L142.343 17.6865C142.41 17.8926 142.602 18.032 142.819 18.032L159.715 18.032C160.199 18.032 160.401 18.6518 160.009 18.9365L146.339 28.868C146.164 28.9953 146.091 29.221 146.158 29.427L151.379 45.4965C151.529 45.9571 151.002 46.3402 150.61 46.0555L136.94 36.124C136.765 35.9967 136.528 35.9967 136.352 36.124L122.683 46.0555C122.291 46.3402 121.764 45.9571 121.913 45.4965L127.135 29.427C127.202 29.221 127.128 28.9953 126.953 28.868L113.284 18.9365C112.892 18.6518 113.093 18.032 113.578 18.032L130.474 18.032C130.691 18.032 130.883 17.8926 130.949 17.6865L136.171 1.61709Z" fill="#FCEF2E"/>
<path d="M191.369 1.61709C191.518 1.15644 192.17 1.15643 192.32 1.61709L197.541 17.6865C197.608 17.8926 197.8 18.032 198.016 18.032L214.913 18.032C215.397 18.032 215.599 18.6518 215.207 18.9365L201.537 28.868C201.362 28.9953 201.289 29.221 201.356 29.427L206.577 45.4965C206.727 45.9571 206.199 46.3402 205.807 46.0555L192.138 36.124C191.963 35.9967 191.725 35.9967 191.55 36.124L177.881 46.0555C177.489 46.3402 176.962 45.9571 177.111 45.4965L182.333 29.427C182.399 29.221 182.326 28.9953 182.151 28.868L168.481 18.9365C168.09 18.6518 168.291 18.032 168.775 18.032L185.672 18.032C185.888 18.032 186.08 17.8926 186.147 17.6865L191.369 1.61709Z" fill="#FCEF2E"/>
<path d="M247.042 1.7716L252.263 17.8411C252.397 18.2531 252.781 18.532 253.214 18.532L270.111 18.532L256.441 28.4635C256.091 28.7181 255.944 29.1695 256.078 29.5815L261.299 45.651L247.63 35.7195C247.279 35.4649 246.805 35.4649 246.454 35.7195L232.785 45.651L238.006 29.5815C238.14 29.1695 237.993 28.7182 237.643 28.4635L223.973 18.532L240.87 18.532C241.303 18.532 241.687 18.2531 241.821 17.8411L247.042 1.7716Z" stroke="#FCEF2E"/>
<path d="M233.079 46.0555L246.836 36.0603C246.966 35.9662 247.042 35.8158 247.042 35.6557L247.042 5.32836L247.042 3.31037C247.042 2.74098 246.243 2.61435 246.067 3.15587L241.345 17.6865C241.279 17.8926 241.087 18.032 240.87 18.032L223.974 18.032C223.489 18.032 223.288 18.6518 223.68 18.9365L237.349 28.868C237.524 28.9953 237.598 29.221 237.531 29.427L232.309 45.4965C232.16 45.9571 232.687 46.3402 233.079 46.0555Z" fill="#FCEF2E"/>
</svg>
