<svg width="41" height="40" viewBox="0 0 41 40" fill="none" xmlns="http://www.w3.org/2000/svg">
<path fill-rule="evenodd" clip-rule="evenodd" d="M9.54028 8.91343C9.54028 7.24297 11.1219 5.88879 13.0729 5.88879H27.6743C29.6253 5.88879 31.2069 7.24297 31.2069 8.91343V30.4892C31.2069 32.1596 29.6253 33.5138 27.6743 33.5138H13.0729C11.1219 33.5138 9.54028 32.1596 9.54028 30.4892V8.91343ZM13.0729 7.90522C12.4226 7.90522 11.8954 8.35661 11.8954 8.91343V30.4892C11.8954 31.046 12.4226 31.4974 13.0729 31.4974H27.6743C28.3247 31.4974 28.8519 31.046 28.8519 30.4892V8.91343C28.8519 8.35661 28.3247 7.90522 27.6743 7.90522H13.0729Z" fill="#FCEF2E"/>
<path d="M13.3088 19.5303V28.2711C13.3088 29.3847 14.3632 30.2875 15.6639 30.2875H25.0842C26.3849 30.2875 27.4393 29.3847 27.4393 28.2711V11.1315C27.4393 10.1231 26.5747 9.28758 25.4456 9.13868L13.3088 19.5303Z" fill="#FCEF2E"/>
<path d="M21.8096 9.11508H15.6639C14.3632 9.11508 13.3088 10.0179 13.3088 11.1315V16.3935L21.8096 9.11508Z" fill="#FCEF2E"/>
</svg>
