<svg width="74" height="74" viewBox="0 0 74 74" fill="none" xmlns="http://www.w3.org/2000/svg">
<path d="M55.0708 41.4336V23.1836C55.0708 20.6742 53.0177 18.6211 50.5083 18.6211H14.0083C11.4989 18.6211 9.4458 20.6742 9.4458 23.1836V41.4336C9.4458 43.943 11.4989 45.9961 14.0083 45.9961H50.5083C53.0177 45.9961 55.0708 43.943 55.0708 41.4336ZM50.5083 23.1836V41.4336H14.0083V23.1836H50.5083Z" fill="#111111"/>
<path d="M59.6333 27.7461V50.5586H18.5708C18.5708 53.068 20.6239 55.1211 23.1333 55.1211H59.6333C62.1427 55.1211 64.1958 53.068 64.1958 50.5586V32.3086C64.1958 29.7992 62.1427 27.7461 59.6333 27.7461Z" fill="#111111"/>
</svg>
