<svg width="74" height="74" viewBox="0 0 74 74" fill="none" xmlns="http://www.w3.org/2000/svg">
<path d="M59.4712 18.6211H13.8462C11.3368 18.6211 9.28369 20.6742 9.28369 23.1836V50.5586C9.28369 53.068 11.3368 55.1211 13.8462 55.1211H59.4712C61.9806 55.1211 64.0337 53.068 64.0337 50.5586V23.1836C64.0337 20.6742 61.9806 18.6211 59.4712 18.6211ZM59.4712 50.5586H13.8462V23.1836H59.4712V50.5586Z" fill="#111111"/>
<path d="M52.6274 45.9961C53.8873 45.9961 54.9087 44.9747 54.9087 43.7148C54.9087 42.4549 53.8873 41.4336 52.6274 41.4336C51.3675 41.4336 50.3462 42.4549 50.3462 43.7148C50.3462 44.9747 51.3675 45.9961 52.6274 45.9961Z" fill="#111111"/>
<path d="M43.5024 45.9961C44.7623 45.9961 45.7837 44.9747 45.7837 43.7148C45.7837 42.4549 44.7623 41.4336 43.5024 41.4336C42.2425 41.4336 41.2212 42.4549 41.2212 43.7148C41.2212 44.9747 42.2425 45.9961 43.5024 45.9961Z" fill="#111111"/>
<path d="M36.6587 41.4336H18.4087V45.9961H36.6587V41.4336Z" fill="#111111"/>
</svg>
